STARTFONT 2.1
FONT -FontForge-Microsoft Sans Serif-Book-R-Normal-SansSerif-14-110-96-96-P-71-ISO10646-1
SIZE 11 96 96
FONTBOUNDINGBOX 29 20 -8 -5
COMMENT "Generated by fontforge, http://fontforge.sourceforge.net"
COMMENT "(c) 2025 Microsoft Corporation. All rights reserved."
COMMENT ""
COMMENT "Hebrew OpenType Layout logic copyright (c) 2003 & 2007, Ralph Hancock & John Hudson. This layout logic for Biblical Hebrew is open source software under the MIT License; see embedded license description for details."
STARTPROPERTIES 40
FOUNDRY "FontForge"
FAMILY_NAME "Microsoft Sans Serif"
WEIGHT_NAME "Book"
SLANT "R"
SETWIDTH_NAME "Normal"
ADD_STYLE_NAME "SansSerif"
PIXEL_SIZE 14
POINT_SIZE 110
RESOLUTION_X 96
RESOLUTION_Y 96
SPACING "P"
AVERAGE_WIDTH 71
CHARSET_REGISTRY "ISO10646"
CHARSET_ENCODING "1"
FONTNAME_REGISTRY ""
CHARSET_COLLECTIONS "ISO8859-2 ISO8859-5 ISO8859-7 ISO8859-9 ISO8859-8 ISO8859-6 ISO8859-4 ISO8859-11 ISO10646-1"
FONT_NAME "MicrosoftSansSerif"
FACE_NAME "Microsoft Sans Serif"
COPYRIGHT "(c) 2025 Microsoft Corporation. All rights reserved."
FONT_VERSION "7.04"
FONT_ASCENT 11
FONT_DESCENT 3
UNDERLINE_POSITION -2
UNDERLINE_THICKNESS 1
X_HEIGHT 6
CAP_HEIGHT 9
RAW_ASCENT 799
RAW_DESCENT 200
NORM_SPACE 4
RELATIVE_WEIGHT 40
RELATIVE_SETWIDTH 50
SUPERSCRIPT_X 0
SUPERSCRIPT_Y 6
SUPERSCRIPT_SIZE 9
SUBSCRIPT_X 0
SUBSCRIPT_Y 1
SUBSCRIPT_SIZE 9
FIGURE_WIDTH 8
AVG_LOWERCASE_WIDTH 74
AVG_UPPERCASE_WIDTH 99
ENDPROPERTIES
CHARS 4416
STARTCHAR space
ENCODING 32
SWIDTH 265 0
DWIDTH 4 0
BBX 1 1 0 0
BITMAP
00
ENDCHAR
STARTCHAR exclam
ENCODING 33
SWIDTH 277 0
DWIDTH 3 0
BBX 1 10 1 0
BITMAP
80
80
80
80
80
80
80
80
00
80
ENDCHAR
STARTCHAR quotedbl
ENCODING 34
SWIDTH 354 0
DWIDTH 5 0
BBX 3 4 1 6
BITMAP
A0
A0
A0
A0
ENDCHAR
STARTCHAR numbersign
ENCODING 35
SWIDTH 556 0
DWIDTH 8 0
BBX 8 10 0 0
BITMAP
12
12
22
7F
24
24
FE
48
48
48
ENDCHAR
STARTCHAR dollar
ENCODING 36
SWIDTH 556 0
DWIDTH 8 0
BBX 6 12 1 -1
BITMAP
10
78
94
90
90
78
24
24
24
A4
78
20
ENDCHAR
STARTCHAR percent
ENCODING 37
SWIDTH 889 0
DWIDTH 12 0
BBX 10 10 1 0
BITMAP
7000
8880
8900
8A00
7400
0B80
1440
2440
4440
0380
ENDCHAR
STARTCHAR ampersand
ENCODING 38
SWIDTH 666 0
DWIDTH 9 0
BBX 7 10 1 0
BITMAP
30
48
48
58
20
52
8A
84
84
7A
ENDCHAR
STARTCHAR quotesingle
ENCODING 39
SWIDTH 190 0
DWIDTH 3 0
BBX 1 4 1 6
BITMAP
80
80
80
80
ENDCHAR
STARTCHAR parenleft
ENCODING 40
SWIDTH 333 0
DWIDTH 5 0
BBX 3 13 1 -3
BITMAP
20
40
40
80
80
80
80
80
80
80
40
40
20
ENDCHAR
STARTCHAR parenright
ENCODING 41
SWIDTH 333 0
DWIDTH 5 0
BBX 3 13 1 -3
BITMAP
80
40
40
20
20
20
20
20
20
20
40
40
80
ENDCHAR
STARTCHAR asterisk
ENCODING 42
SWIDTH 389 0
DWIDTH 5 0
BBX 5 4 0 6
BITMAP
20
F8
20
50
ENDCHAR
STARTCHAR plus
ENCODING 43
SWIDTH 583 0
DWIDTH 8 0
BBX 7 7 0 2
BITMAP
10
10
10
FE
10
10
10
ENDCHAR
STARTCHAR comma
ENCODING 44
SWIDTH 277 0
DWIDTH 4 0
BBX 2 3 1 -2
BITMAP
40
40
80
ENDCHAR
STARTCHAR hyphen
ENCODING 45
SWIDTH 333 0
DWIDTH 5 0
BBX 4 1 0 4
BITMAP
F0
ENDCHAR
STARTCHAR period
ENCODING 46
SWIDTH 277 0
DWIDTH 4 0
BBX 1 1 1 0
BITMAP
80
ENDCHAR
STARTCHAR slash
ENCODING 47
SWIDTH 277 0
DWIDTH 4 0
BBX 4 10 0 0
BITMAP
10
10
20
20
20
40
40
40
80
80
ENDCHAR
STARTCHAR zero
ENCODING 48
SWIDTH 556 0
DWIDTH 8 0
BBX 6 10 1 0
BITMAP
78
84
84
84
84
84
84
84
84
78
ENDCHAR
STARTCHAR one
ENCODING 49
SWIDTH 556 0
DWIDTH 8 0
BBX 3 10 2 0
BITMAP
20
E0
20
20
20
20
20
20
20
20
ENDCHAR
STARTCHAR two
ENCODING 50
SWIDTH 556 0
DWIDTH 8 0
BBX 6 10 1 0
BITMAP
78
84
84
04
08
10
20
40
80
FC
ENDCHAR
STARTCHAR three
ENCODING 51
SWIDTH 556 0
DWIDTH 8 0
BBX 6 10 1 0
BITMAP
78
84
84
04
38
04
04
84
84
78
ENDCHAR
STARTCHAR four
ENCODING 52
SWIDTH 556 0
DWIDTH 8 0
BBX 6 10 1 0
BITMAP
08
18
28
28
48
88
FC
08
08
08
ENDCHAR
STARTCHAR five
ENCODING 53
SWIDTH 556 0
DWIDTH 8 0
BBX 6 10 1 0
BITMAP
FC
80
80
B8
C4
04
04
84
84
78
ENDCHAR
STARTCHAR six
ENCODING 54
SWIDTH 556 0
DWIDTH 8 0
BBX 6 10 1 0
BITMAP
78
84
84
80
B8
C4
84
84
84
78
ENDCHAR
STARTCHAR seven
ENCODING 55
SWIDTH 556 0
DWIDTH 8 0
BBX 6 10 1 0
BITMAP
FC
04
04
08
08
10
10
10
20
60
ENDCHAR
STARTCHAR eight
ENCODING 56
SWIDTH 556 0
DWIDTH 8 0
BBX 6 10 1 0
BITMAP
78
84
84
84
78
84
84
84
84
78
ENDCHAR
STARTCHAR nine
ENCODING 57
SWIDTH 556 0
DWIDTH 8 0
BBX 6 10 1 0
BITMAP
78
84
84
84
8C
74
04
84
84
78
ENDCHAR
STARTCHAR colon
ENCODING 58
SWIDTH 277 0
DWIDTH 4 0
BBX 1 7 1 0
BITMAP
80
00
00
00
00
00
80
ENDCHAR
STARTCHAR semicolon
ENCODING 59
SWIDTH 277 0
DWIDTH 4 0
BBX 2 9 1 -2
BITMAP
40
00
00
00
00
00
40
40
80
ENDCHAR
STARTCHAR less
ENCODING 60
SWIDTH 583 0
DWIDTH 8 0
BBX 6 7 1 2
BITMAP
04
18
60
80
60
18
04
ENDCHAR
STARTCHAR equal
ENCODING 61
SWIDTH 583 0
DWIDTH 8 0
BBX 6 4 1 3
BITMAP
FC
00
00
FC
ENDCHAR
STARTCHAR greater
ENCODING 62
SWIDTH 583 0
DWIDTH 8 0
BBX 6 7 1 2
BITMAP
80
60
18
04
18
60
80
ENDCHAR
STARTCHAR question
ENCODING 63
SWIDTH 556 0
DWIDTH 8 0
BBX 6 10 1 0
BITMAP
78
84
84
04
08
10
10
10
00
10
ENDCHAR
STARTCHAR at
ENCODING 64
SWIDTH 1015 0
DWIDTH 14 0
BBX 12 13 1 -3
BITMAP
0F80
3060
4020
4790
8890
9090
9110
9110
9320
4DC0
4000
3040
0F80
ENDCHAR
STARTCHAR A
ENCODING 65
SWIDTH 666 0
DWIDTH 9 0
BBX 9 10 0 0
BITMAP
0800
0800
1400
1400
2200
2200
7F00
4100
8080
8080
ENDCHAR
STARTCHAR B
ENCODING 66
SWIDTH 666 0
DWIDTH 9 0
BBX 7 10 1 0
BITMAP
FC
82
82
82
FC
82
82
82
82
FC
ENDCHAR
STARTCHAR C
ENCODING 67
SWIDTH 722 0
DWIDTH 9 0
BBX 8 10 1 0
BITMAP
3C
42
81
80
80
80
80
81
42
3C
ENDCHAR
STARTCHAR D
ENCODING 68
SWIDTH 722 0
DWIDTH 10 0
BBX 8 10 1 0
BITMAP
FC
82
81
81
81
81
81
81
82
FC
ENDCHAR
STARTCHAR E
ENCODING 69
SWIDTH 666 0
DWIDTH 9 0
BBX 7 10 1 0
BITMAP
FE
80
80
80
FC
80
80
80
80
FE
ENDCHAR
STARTCHAR F
ENCODING 70
SWIDTH 610 0
DWIDTH 8 0
BBX 7 10 1 0
BITMAP
FE
80
80
80
FC
80
80
80
80
80
ENDCHAR
STARTCHAR G
ENCODING 71
SWIDTH 777 0
DWIDTH 11 0
BBX 9 10 1 0
BITMAP
3E00
4100
8080
8000
8000
8780
8080
8080
4180
3E80
ENDCHAR
STARTCHAR H
ENCODING 72
SWIDTH 722 0
DWIDTH 10 0
BBX 8 10 1 0
BITMAP
81
81
81
81
FF
81
81
81
81
81
ENDCHAR
STARTCHAR I
ENCODING 73
SWIDTH 277 0
DWIDTH 3 0
BBX 1 10 1 0
BITMAP
80
80
80
80
80
80
80
80
80
80
ENDCHAR
STARTCHAR J
ENCODING 74
SWIDTH 500 0
DWIDTH 7 0
BBX 5 10 1 0
BITMAP
08
08
08
08
08
08
08
88
88
70
ENDCHAR
STARTCHAR K
ENCODING 75
SWIDTH 666 0
DWIDTH 9 0
BBX 8 10 1 0
BITMAP
82
84
88
90
A0
D0
88
84
82
81
ENDCHAR
STARTCHAR L
ENCODING 76
SWIDTH 556 0
DWIDTH 8 0
BBX 7 10 1 0
BITMAP
80
80
80
80
80
80
80
80
80
FE
ENDCHAR
STARTCHAR M
ENCODING 77
SWIDTH 833 0
DWIDTH 11 0
BBX 9 10 1 0
BITMAP
8080
8080
C180
C180
A280
A280
9480
9480
8880
8880
ENDCHAR
STARTCHAR N
ENCODING 78
SWIDTH 722 0
DWIDTH 10 0
BBX 8 10 1 0
BITMAP
81
C1
A1
A1
91
89
85
85
83
81
ENDCHAR
STARTCHAR O
ENCODING 79
SWIDTH 777 0
DWIDTH 11 0
BBX 9 10 1 0
BITMAP
3E00
4100
8080
8080
8080
8080
8080
8080
4100
3E00
ENDCHAR
STARTCHAR P
ENCODING 80
SWIDTH 666 0
DWIDTH 9 0
BBX 8 10 1 0
BITMAP
FC
82
81
81
82
FC
80
80
80
80
ENDCHAR
STARTCHAR Q
ENCODING 81
SWIDTH 777 0
DWIDTH 11 0
BBX 9 10 1 0
BITMAP
3E00
4100
8080
8080
8080
8080
8080
8280
4100
3E80
ENDCHAR
STARTCHAR R
ENCODING 82
SWIDTH 722 0
DWIDTH 10 0
BBX 9 10 1 0
BITMAP
FC00
8200
8100
8100
8200
FE00
8100
8100
8100
8080
ENDCHAR
STARTCHAR S
ENCODING 83
SWIDTH 666 0
DWIDTH 9 0
BBX 7 10 1 0
BITMAP
7C
82
82
80
70
0C
02
82
82
7C
ENDCHAR
STARTCHAR T
ENCODING 84
SWIDTH 610 0
DWIDTH 9 0
BBX 9 10 0 0
BITMAP
FF80
0800
0800
0800
0800
0800
0800
0800
0800
0800
ENDCHAR
STARTCHAR U
ENCODING 85
SWIDTH 722 0
DWIDTH 10 0
BBX 8 10 1 0
BITMAP
81
81
81
81
81
81
81
81
42
3C
ENDCHAR
STARTCHAR V
ENCODING 86
SWIDTH 666 0
DWIDTH 9 0
BBX 9 10 0 0
BITMAP
8080
8080
4100
4100
2200
2200
1400
1400
0800
0800
ENDCHAR
STARTCHAR W
ENCODING 87
SWIDTH 943 0
DWIDTH 13 0
BBX 13 10 0 0
BITMAP
8208
8208
8508
4510
4510
28A0
28A0
28A0
1040
1040
ENDCHAR
STARTCHAR X
ENCODING 88
SWIDTH 666 0
DWIDTH 9 0
BBX 9 10 0 0
BITMAP
8080
4100
2200
1400
0800
0800
1400
2200
4100
8080
ENDCHAR
STARTCHAR Y
ENCODING 89
SWIDTH 666 0
DWIDTH 9 0
BBX 9 10 0 0
BITMAP
8080
8080
4100
2200
1400
0800
0800
0800
0800
0800
ENDCHAR
STARTCHAR Z
ENCODING 90
SWIDTH 610 0
DWIDTH 9 0
BBX 7 10 1 0
BITMAP
FE
02
04
08
10
10
20
40
80
FE
ENDCHAR
STARTCHAR bracketleft
ENCODING 91
SWIDTH 277 0
DWIDTH 4 0
BBX 3 13 1 -3
BITMAP
E0
80
80
80
80
80
80
80
80
80
80
80
E0
ENDCHAR
STARTCHAR backslash
ENCODING 92
SWIDTH 277 0
DWIDTH 4 0
BBX 4 10 0 0
BITMAP
80
80
40
40
40
20
20
20
10
10
ENDCHAR
STARTCHAR bracketright
ENCODING 93
SWIDTH 277 0
DWIDTH 4 0
BBX 3 13 0 -3
BITMAP
E0
20
20
20
20
20
20
20
20
20
20
20
E0
ENDCHAR
STARTCHAR asciicircum
ENCODING 94
SWIDTH 469 0
DWIDTH 7 0
BBX 5 3 1 7
BITMAP
20
50
88
ENDCHAR
STARTCHAR underscore
ENCODING 95
SWIDTH 551 0
DWIDTH 8 0
BBX 8 1 0 -3
BITMAP
FF
ENDCHAR
STARTCHAR grave
ENCODING 96
SWIDTH 333 0
DWIDTH 5 0
BBX 2 2 1 8
BITMAP
80
40
ENDCHAR
STARTCHAR a
ENCODING 97
SWIDTH 556 0
DWIDTH 8 0
BBX 7 7 1 0
BITMAP
78
84
7C
84
84
84
7A
ENDCHAR
STARTCHAR b
ENCODING 98
SWIDTH 556 0
DWIDTH 8 0
BBX 6 10 1 0
BITMAP
80
80
80
B8
C4
84
84
84
C4
B8
ENDCHAR
STARTCHAR c
ENCODING 99
SWIDTH 500 0
DWIDTH 7 0
BBX 6 7 1 0
BITMAP
78
84
80
80
80
84
78
ENDCHAR
STARTCHAR d
ENCODING 100
SWIDTH 556 0
DWIDTH 8 0
BBX 6 10 1 0
BITMAP
04
04
04
74
8C
84
84
84
8C
74
ENDCHAR
STARTCHAR e
ENCODING 101
SWIDTH 556 0
DWIDTH 8 0
BBX 6 7 1 0
BITMAP
78
84
84
FC
80
84
78
ENDCHAR
STARTCHAR f
ENCODING 102
SWIDTH 277 0
DWIDTH 4 0
BBX 4 10 0 0
BITMAP
30
40
40
E0
40
40
40
40
40
40
ENDCHAR
STARTCHAR g
ENCODING 103
SWIDTH 556 0
DWIDTH 8 0
BBX 6 10 1 -3
BITMAP
74
8C
84
84
84
8C
74
04
04
78
ENDCHAR
STARTCHAR h
ENCODING 104
SWIDTH 556 0
DWIDTH 8 0
BBX 6 10 1 0
BITMAP
80
80
80
B8
C4
84
84
84
84
84
ENDCHAR
STARTCHAR i
ENCODING 105
SWIDTH 228 0
DWIDTH 3 0
BBX 1 10 1 0
BITMAP
80
00
00
80
80
80
80
80
80
80
ENDCHAR
STARTCHAR j
ENCODING 106
SWIDTH 228 0
DWIDTH 3 0
BBX 2 13 0 -3
BITMAP
40
00
00
40
40
40
40
40
40
40
40
40
80
ENDCHAR
STARTCHAR k
ENCODING 107
SWIDTH 500 0
DWIDTH 7 0
BBX 6 10 1 0
BITMAP
80
80
80
88
90
A0
E0
90
88
84
ENDCHAR
STARTCHAR l
ENCODING 108
SWIDTH 228 0
DWIDTH 3 0
BBX 1 10 1 0
BITMAP
80
80
80
80
80
80
80
80
80
80
ENDCHAR
STARTCHAR m
ENCODING 109
SWIDTH 833 0
DWIDTH 11 0
BBX 9 7 1 0
BITMAP
B300
CC80
8880
8880
8880
8880
8880
ENDCHAR
STARTCHAR n
ENCODING 110
SWIDTH 556 0
DWIDTH 8 0
BBX 6 7 1 0
BITMAP
B8
C4
84
84
84
84
84
ENDCHAR
STARTCHAR o
ENCODING 111
SWIDTH 556 0
DWIDTH 8 0
BBX 6 7 1 0
BITMAP
78
84
84
84
84
84
78
ENDCHAR
STARTCHAR p
ENCODING 112
SWIDTH 556 0
DWIDTH 8 0
BBX 6 10 1 -3
BITMAP
B8
C4
84
84
84
C4
B8
80
80
80
ENDCHAR
STARTCHAR q
ENCODING 113
SWIDTH 556 0
DWIDTH 8 0
BBX 6 10 1 -3
BITMAP
74
8C
84
84
84
8C
74
04
04
04
ENDCHAR
STARTCHAR r
ENCODING 114
SWIDTH 333 0
DWIDTH 5 0
BBX 4 7 1 0
BITMAP
B0
C0
80
80
80
80
80
ENDCHAR
STARTCHAR s
ENCODING 115
SWIDTH 500 0
DWIDTH 7 0
BBX 5 7 1 0
BITMAP
70
88
80
70
08
88
70
ENDCHAR
STARTCHAR t
ENCODING 116
SWIDTH 277 0
DWIDTH 4 0
BBX 3 9 0 0
BITMAP
40
40
E0
40
40
40
40
40
20
ENDCHAR
STARTCHAR u
ENCODING 117
SWIDTH 556 0
DWIDTH 8 0
BBX 6 7 1 0
BITMAP
84
84
84
84
84
8C
74
ENDCHAR
STARTCHAR v
ENCODING 118
SWIDTH 500 0
DWIDTH 7 0
BBX 7 7 0 0
BITMAP
82
82
44
44
28
28
10
ENDCHAR
STARTCHAR w
ENCODING 119
SWIDTH 722 0
DWIDTH 9 0
BBX 9 7 0 0
BITMAP
8880
8880
5500
5500
5500
2200
2200
ENDCHAR
STARTCHAR x
ENCODING 120
SWIDTH 500 0
DWIDTH 6 0
BBX 6 7 0 0
BITMAP
84
48
30
30
30
48
84
ENDCHAR
STARTCHAR y
ENCODING 121
SWIDTH 500 0
DWIDTH 7 0
BBX 7 10 0 -3
BITMAP
82
82
44
44
28
28
10
10
20
C0
ENDCHAR
STARTCHAR z
ENCODING 122
SWIDTH 500 0
DWIDTH 7 0
BBX 5 7 1 0
BITMAP
F8
08
10
20
40
80
F8
ENDCHAR
STARTCHAR braceleft
ENCODING 123
SWIDTH 333 0
DWIDTH 5 0
BBX 5 13 0 -3
BITMAP
18
20
20
20
20
20
C0
20
20
20
20
20
18
ENDCHAR
STARTCHAR bar
ENCODING 124
SWIDTH 259 0
DWIDTH 3 0
BBX 1 13 1 -3
BITMAP
80
80
80
80
80
80
80
80
80
80
80
80
80
ENDCHAR
STARTCHAR braceright
ENCODING 125
SWIDTH 333 0
DWIDTH 5 0
BBX 5 13 0 -3
BITMAP
C0
20
20
20
20
20
18
20
20
20
20
20
C0
ENDCHAR
STARTCHAR asciitilde
ENCODING 126
SWIDTH 583 0
DWIDTH 8 0
BBX 7 3 0 7
BITMAP
62
92
8C
ENDCHAR
STARTCHAR space.dup1
ENCODING 160
SWIDTH 265 0
DWIDTH 4 0
BBX 1 1 0 0
BITMAP
00
ENDCHAR
STARTCHAR exclamdown
ENCODING 161
SWIDTH 277 0
DWIDTH 3 0
BBX 1 10 1 -3
BITMAP
80
00
80
80
80
80
80
80
80
80
ENDCHAR
STARTCHAR cent
ENCODING 162
SWIDTH 556 0
DWIDTH 8 0
BBX 6 11 1 -2
BITMAP
08
08
78
94
90
90
A0
A4
78
40
40
ENDCHAR
STARTCHAR sterling
ENCODING 163
SWIDTH 556 0
DWIDTH 8 0
BBX 7 10 0 0
BITMAP
3C
42
42
40
40
F8
20
20
40
FE
ENDCHAR
STARTCHAR currency
ENCODING 164
SWIDTH 556 0
DWIDTH 8 0
BBX 6 6 1 2
BITMAP
B4
48
84
84
48
B4
ENDCHAR
STARTCHAR yen
ENCODING 165
SWIDTH 556 0
DWIDTH 8 0
BBX 7 10 0 0
BITMAP
82
82
44
44
28
FE
10
FE
10
10
ENDCHAR
STARTCHAR brokenbar
ENCODING 166
SWIDTH 259 0
DWIDTH 3 0
BBX 1 13 1 -3
BITMAP
80
80
80
80
80
00
00
00
80
80
80
80
80
ENDCHAR
STARTCHAR section
ENCODING 167
SWIDTH 556 0
DWIDTH 8 0
BBX 6 13 1 -3
BITMAP
78
84
80
40
B0
88
84
44
34
08
04
84
78
ENDCHAR
STARTCHAR dieresis
ENCODING 168
SWIDTH 333 0
DWIDTH 5 0
BBX 4 1 0 9
BITMAP
90
ENDCHAR
STARTCHAR copyright
ENCODING 169
SWIDTH 736 0
DWIDTH 10 0
BBX 10 10 0 0
BITMAP
1E00
6180
4C80
9240
9040
9040
9240
4C80
6180
1E00
ENDCHAR
STARTCHAR ordfeminine
ENCODING 170
SWIDTH 370 0
DWIDTH 5 0
BBX 3 7 1 3
BITMAP
40
20
60
A0
60
00
E0
ENDCHAR
STARTCHAR guillemotleft
ENCODING 171
SWIDTH 556 0
DWIDTH 8 0
BBX 6 6 1 1
BITMAP
24
48
90
90
48
24
ENDCHAR
STARTCHAR logicalnot
ENCODING 172
SWIDTH 583 0
DWIDTH 8 0
BBX 6 3 1 3
BITMAP
FC
04
04
ENDCHAR
STARTCHAR hyphen.dup2
ENCODING 173
SWIDTH 333 0
DWIDTH 5 0
BBX 4 1 0 4
BITMAP
F0
ENDCHAR
STARTCHAR registered
ENCODING 174
SWIDTH 736 0
DWIDTH 10 0
BBX 10 10 0 0
BITMAP
1E00
6180
5C80
9240
9240
9C40
9240
5280
6180
1E00
ENDCHAR
STARTCHAR macron
ENCODING 175
SWIDTH 500 0
DWIDTH 7 0
BBX 7 1 0 11
BITMAP
FE
ENDCHAR
STARTCHAR degree
ENCODING 176
SWIDTH 399 0
DWIDTH 6 0
BBX 4 4 1 6
BITMAP
60
90
90
60
ENDCHAR
STARTCHAR plusminus
ENCODING 177
SWIDTH 583 0
DWIDTH 8 0
BBX 7 9 0 0
BITMAP
10
10
10
FE
10
10
10
00
FE
ENDCHAR
STARTCHAR uni00B2
ENCODING 178
SWIDTH 333 0
DWIDTH 5 0
BBX 4 5 0 5
BITMAP
60
90
20
40
F0
ENDCHAR
STARTCHAR uni00B3
ENCODING 179
SWIDTH 333 0
DWIDTH 5 0
BBX 4 5 0 5
BITMAP
60
90
20
90
60
ENDCHAR
STARTCHAR acute
ENCODING 180
SWIDTH 333 0
DWIDTH 5 0
BBX 2 2 2 8
BITMAP
40
80
ENDCHAR
STARTCHAR mu
ENCODING 181
SWIDTH 556 0
DWIDTH 8 0
BBX 7 10 1 -3
BITMAP
84
84
84
84
84
84
FA
80
80
80
ENDCHAR
STARTCHAR paragraph
ENCODING 182
SWIDTH 537 0
DWIDTH 8 0
BBX 8 13 0 -3
BITMAP
7F
F2
F2
F2
F2
72
12
12
12
12
12
12
12
ENDCHAR
STARTCHAR periodcentered
ENCODING 183
SWIDTH 277 0
DWIDTH 4 0
BBX 1 1 1 5
BITMAP
80
ENDCHAR
STARTCHAR cedilla
ENCODING 184
SWIDTH 333 0
DWIDTH 5 0
BBX 3 3 1 -3
BITMAP
40
20
C0
ENDCHAR
STARTCHAR uni00B9
ENCODING 185
SWIDTH 333 0
DWIDTH 5 0
BBX 2 5 1 5
BITMAP
40
C0
40
40
40
ENDCHAR
STARTCHAR ordmasculine
ENCODING 186
SWIDTH 365 0
DWIDTH 5 0
BBX 4 7 1 3
BITMAP
60
90
90
90
60
00
F0
ENDCHAR
STARTCHAR guillemotright
ENCODING 187
SWIDTH 556 0
DWIDTH 8 0
BBX 6 6 1 1
BITMAP
90
48
24
24
48
90
ENDCHAR
STARTCHAR onequarter
ENCODING 188
SWIDTH 833 0
DWIDTH 12 0
BBX 10 10 1 0
BITMAP
4080
C100
4200
4200
4400
0840
10C0
1140
23C0
4040
ENDCHAR
STARTCHAR onehalf
ENCODING 189
SWIDTH 833 0
DWIDTH 12 0
BBX 10 10 1 0
BITMAP
4080
C100
4200
4200
4400
0980
1240
1080
2100
43C0
ENDCHAR
STARTCHAR threequarters
ENCODING 190
SWIDTH 833 0
DWIDTH 12 0
BBX 11 10 0 0
BITMAP
6040
9080
2100
9100
6200
0420
0860
08A0
11E0
2020
ENDCHAR
STARTCHAR questiondown
ENCODING 191
SWIDTH 556 0
DWIDTH 8 0
BBX 6 10 1 -3
BITMAP
20
00
20
20
20
40
80
84
84
78
ENDCHAR
STARTCHAR Agrave
ENCODING 192
SWIDTH 666 0
DWIDTH 9 0
BBX 9 13 0 0
BITMAP
1000
0800
0000
0800
0800
1400
1400
2200
2200
7F00
4100
8080
8080
ENDCHAR
STARTCHAR Aacute
ENCODING 193
SWIDTH 666 0
DWIDTH 9 0
BBX 9 13 0 0
BITMAP
0400
0800
0000
0800
0800
1400
1400
2200
2200
7F00
4100
8080
8080
ENDCHAR
STARTCHAR Acircumflex
ENCODING 194
SWIDTH 666 0
DWIDTH 9 0
BBX 9 13 0 0
BITMAP
0800
1400
0000
0800
0800
1400
1400
2200
2200
7F00
4100
8080
8080
ENDCHAR
STARTCHAR Atilde
ENCODING 195
SWIDTH 666 0
DWIDTH 9 0
BBX 9 13 0 0
BITMAP
1A00
2C00
0000
0800
0800
1400
1400
2200
2200
7F00
4100
8080
8080
ENDCHAR
STARTCHAR Adieresis
ENCODING 196
SWIDTH 666 0
DWIDTH 9 0
BBX 9 12 0 0
BITMAP
2200
0000
0800
0800
1400
1400
2200
2200
7F00
4100
8080
8080
ENDCHAR
STARTCHAR Aring
ENCODING 197
SWIDTH 666 0
DWIDTH 9 0
BBX 9 13 0 0
BITMAP
0800
1400
0800
0800
0800
1400
1400
2200
2200
7F00
4100
8080
8080
ENDCHAR
STARTCHAR AE
ENCODING 198
SWIDTH 1000 0
DWIDTH 14 0
BBX 13 10 0 0
BITMAP
03F8
0500
0500
0900
11F0
1100
3F00
2100
4100
81F8
ENDCHAR
STARTCHAR Ccedilla
ENCODING 199
SWIDTH 722 0
DWIDTH 9 0
BBX 8 13 1 -3
BITMAP
3C
42
81
80
80
80
80
81
42
3C
08
04
18
ENDCHAR
STARTCHAR Egrave
ENCODING 200
SWIDTH 666 0
DWIDTH 9 0
BBX 7 13 1 0
BITMAP
20
10
00
FE
80
80
80
FC
80
80
80
80
FE
ENDCHAR
STARTCHAR Eacute
ENCODING 201
SWIDTH 666 0
DWIDTH 9 0
BBX 7 13 1 0
BITMAP
08
10
00
FE
80
80
80
FC
80
80
80
80
FE
ENDCHAR
STARTCHAR Ecircumflex
ENCODING 202
SWIDTH 666 0
DWIDTH 9 0
BBX 7 13 1 0
BITMAP
10
28
00
FE
80
80
80
FC
80
80
80
80
FE
ENDCHAR
STARTCHAR Edieresis
ENCODING 203
SWIDTH 666 0
DWIDTH 9 0
BBX 7 12 1 0
BITMAP
44
00
FE
80
80
80
FC
80
80
80
80
FE
ENDCHAR
STARTCHAR Igrave
ENCODING 204
SWIDTH 277 0
DWIDTH 3 0
BBX 2 13 0 0
BITMAP
80
40
00
40
40
40
40
40
40
40
40
40
40
ENDCHAR
STARTCHAR Iacute
ENCODING 205
SWIDTH 277 0
DWIDTH 3 0
BBX 2 13 1 0
BITMAP
40
80
00
80
80
80
80
80
80
80
80
80
80
ENDCHAR
STARTCHAR Icircumflex
ENCODING 206
SWIDTH 277 0
DWIDTH 3 0
BBX 3 13 0 0
BITMAP
40
A0
00
40
40
40
40
40
40
40
40
40
40
ENDCHAR
STARTCHAR Idieresis
ENCODING 207
SWIDTH 277 0
DWIDTH 3 0
BBX 3 12 0 0
BITMAP
A0
00
40
40
40
40
40
40
40
40
40
40
ENDCHAR
STARTCHAR Eth
ENCODING 208
SWIDTH 722 0
DWIDTH 10 0
BBX 9 10 0 0
BITMAP
7E00
4100
4080
4080
F880
4080
4080
4080
4100
7E00
ENDCHAR
STARTCHAR Ntilde
ENCODING 209
SWIDTH 722 0
DWIDTH 10 0
BBX 8 13 1 0
BITMAP
1A
2C
00
81
C1
A1
A1
91
89
85
85
83
81
ENDCHAR
STARTCHAR Ograve
ENCODING 210
SWIDTH 777 0
DWIDTH 11 0
BBX 9 13 1 0
BITMAP
1000
0800
0000
3E00
4100
8080
8080
8080
8080
8080
8080
4100
3E00
ENDCHAR
STARTCHAR Oacute
ENCODING 211
SWIDTH 777 0
DWIDTH 11 0
BBX 9 13 1 0
BITMAP
0400
0800
0000
3E00
4100
8080
8080
8080
8080
8080
8080
4100
3E00
ENDCHAR
STARTCHAR Ocircumflex
ENCODING 212
SWIDTH 777 0
DWIDTH 11 0
BBX 9 13 1 0
BITMAP
0800
1400
0000
3E00
4100
8080
8080
8080
8080
8080
8080
4100
3E00
ENDCHAR
STARTCHAR Otilde
ENCODING 213
SWIDTH 777 0
DWIDTH 11 0
BBX 9 13 1 0
BITMAP
1A00
2C00
0000
3E00
4100
8080
8080
8080
8080
8080
8080
4100
3E00
ENDCHAR
STARTCHAR Odieresis
ENCODING 214
SWIDTH 777 0
DWIDTH 11 0
BBX 9 12 1 0
BITMAP
2200
0000
3E00
4100
8080
8080
8080
8080
8080
8080
4100
3E00
ENDCHAR
STARTCHAR multiply
ENCODING 215
SWIDTH 583 0
DWIDTH 8 0
BBX 5 5 2 3
BITMAP
88
50
20
50
88
ENDCHAR
STARTCHAR Oslash
ENCODING 216
SWIDTH 777 0
DWIDTH 11 0
BBX 9 10 1 0
BITMAP
3E80
4100
8280
8480
8880
8880
9080
A080
4100
BE00
ENDCHAR
STARTCHAR Ugrave
ENCODING 217
SWIDTH 722 0
DWIDTH 10 0
BBX 8 13 1 0
BITMAP
10
08
00
81
81
81
81
81
81
81
81
42
3C
ENDCHAR
STARTCHAR Uacute
ENCODING 218
SWIDTH 722 0
DWIDTH 10 0
BBX 8 13 1 0
BITMAP
08
10
00
81
81
81
81
81
81
81
81
42
3C
ENDCHAR
STARTCHAR Ucircumflex
ENCODING 219
SWIDTH 722 0
DWIDTH 10 0
BBX 8 13 1 0
BITMAP
08
14
00
81
81
81
81
81
81
81
81
42
3C
ENDCHAR
STARTCHAR Udieresis
ENCODING 220
SWIDTH 722 0
DWIDTH 10 0
BBX 8 12 1 0
BITMAP
24
00
81
81
81
81
81
81
81
81
42
3C
ENDCHAR
STARTCHAR Yacute
ENCODING 221
SWIDTH 666 0
DWIDTH 9 0
BBX 9 13 0 0
BITMAP
0400
0800
0000
8080
8080
4100
2200
1400
0800
0800
0800
0800
0800
ENDCHAR
STARTCHAR Thorn
ENCODING 222
SWIDTH 666 0
DWIDTH 9 0
BBX 7 10 1 0
BITMAP
80
80
F8
84
82
82
84
F8
80
80
ENDCHAR
STARTCHAR germandbls
ENCODING 223
SWIDTH 610 0
DWIDTH 9 0
BBX 7 10 1 0
BITMAP
70
88
88
90
90
88
84
82
A2
9C
ENDCHAR
STARTCHAR agrave
ENCODING 224
SWIDTH 556 0
DWIDTH 8 0
BBX 7 10 1 0
BITMAP
20
10
00
78
84
7C
84
84
84
7A
ENDCHAR
STARTCHAR aacute
ENCODING 225
SWIDTH 556 0
DWIDTH 8 0
BBX 7 10 1 0
BITMAP
10
20
00
78
84
7C
84
84
84
7A
ENDCHAR
STARTCHAR acircumflex
ENCODING 226
SWIDTH 556 0
DWIDTH 8 0
BBX 7 10 1 0
BITMAP
10
28
00
78
84
7C
84
84
84
7A
ENDCHAR
STARTCHAR atilde
ENCODING 227
SWIDTH 556 0
DWIDTH 8 0
BBX 7 10 1 0
BITMAP
34
58
00
78
84
7C
84
84
84
7A
ENDCHAR
STARTCHAR adieresis
ENCODING 228
SWIDTH 556 0
DWIDTH 8 0
BBX 7 10 1 0
BITMAP
48
00
00
78
84
7C
84
84
84
7A
ENDCHAR
STARTCHAR aring
ENCODING 229
SWIDTH 556 0
DWIDTH 8 0
BBX 7 11 1 0
BITMAP
10
28
10
00
78
84
7C
84
84
84
7A
ENDCHAR
STARTCHAR ae
ENCODING 230
SWIDTH 889 0
DWIDTH 13 0
BBX 11 7 1 0
BITMAP
7BC0
8420
7C20
87E0
8400
8420
7BC0
ENDCHAR
STARTCHAR ccedilla
ENCODING 231
SWIDTH 500 0
DWIDTH 7 0
BBX 6 10 1 -3
BITMAP
78
84
80
80
80
84
78
10
08
30
ENDCHAR
STARTCHAR egrave
ENCODING 232
SWIDTH 556 0
DWIDTH 8 0
BBX 6 10 1 0
BITMAP
20
10
00
78
84
84
FC
80
84
78
ENDCHAR
STARTCHAR eacute
ENCODING 233
SWIDTH 556 0
DWIDTH 8 0
BBX 6 10 1 0
BITMAP
10
20
00
78
84
84
FC
80
84
78
ENDCHAR
STARTCHAR ecircumflex
ENCODING 234
SWIDTH 556 0
DWIDTH 8 0
BBX 6 10 1 0
BITMAP
10
28
00
78
84
84
FC
80
84
78
ENDCHAR
STARTCHAR edieresis
ENCODING 235
SWIDTH 556 0
DWIDTH 8 0
BBX 6 10 1 0
BITMAP
48
00
00
78
84
84
FC
80
84
78
ENDCHAR
STARTCHAR igrave
ENCODING 236
SWIDTH 228 0
DWIDTH 3 0
BBX 2 10 0 0
BITMAP
80
40
00
40
40
40
40
40
40
40
ENDCHAR
STARTCHAR iacute
ENCODING 237
SWIDTH 228 0
DWIDTH 3 0
BBX 2 10 1 0
BITMAP
40
80
00
80
80
80
80
80
80
80
ENDCHAR
STARTCHAR icircumflex
ENCODING 238
SWIDTH 228 0
DWIDTH 3 0
BBX 3 10 0 0
BITMAP
40
A0
00
40
40
40
40
40
40
40
ENDCHAR
STARTCHAR idieresis
ENCODING 239
SWIDTH 228 0
DWIDTH 3 0
BBX 3 10 0 0
BITMAP
A0
00
00
40
40
40
40
40
40
40
ENDCHAR
STARTCHAR eth
ENCODING 240
SWIDTH 556 0
DWIDTH 8 0
BBX 6 10 1 0
BITMAP
38
10
28
08
7C
84
84
84
84
78
ENDCHAR
STARTCHAR ntilde
ENCODING 241
SWIDTH 556 0
DWIDTH 8 0
BBX 6 10 1 0
BITMAP
34
58
00
B8
C4
84
84
84
84
84
ENDCHAR
STARTCHAR ograve
ENCODING 242
SWIDTH 556 0
DWIDTH 8 0
BBX 6 10 1 0
BITMAP
20
10
00
78
84
84
84
84
84
78
ENDCHAR
STARTCHAR oacute
ENCODING 243
SWIDTH 556 0
DWIDTH 8 0
BBX 6 10 1 0
BITMAP
10
20
00
78
84
84
84
84
84
78
ENDCHAR
STARTCHAR ocircumflex
ENCODING 244
SWIDTH 556 0
DWIDTH 8 0
BBX 6 10 1 0
BITMAP
10
28
00
78
84
84
84
84
84
78
ENDCHAR
STARTCHAR otilde
ENCODING 245
SWIDTH 556 0
DWIDTH 8 0
BBX 6 10 1 0
BITMAP
34
58
00
78
84
84
84
84
84
78
ENDCHAR
STARTCHAR odieresis
ENCODING 246
SWIDTH 556 0
DWIDTH 8 0
BBX 6 10 1 0
BITMAP
48
00
00
78
84
84
84
84
84
78
ENDCHAR
STARTCHAR divide
ENCODING 247
SWIDTH 583 0
DWIDTH 8 0
BBX 7 5 0 3
BITMAP
10
00
FE
00
10
ENDCHAR
STARTCHAR oslash
ENCODING 248
SWIDTH 556 0
DWIDTH 8 0
BBX 6 9 1 -1
BITMAP
04
78
8C
94
94
A4
C4
78
80
ENDCHAR
STARTCHAR ugrave
ENCODING 249
SWIDTH 556 0
DWIDTH 8 0
BBX 6 10 1 0
BITMAP
20
10
00
84
84
84
84
84
8C
74
ENDCHAR
STARTCHAR uacute
ENCODING 250
SWIDTH 556 0
DWIDTH 8 0
BBX 6 10 1 0
BITMAP
10
20
00
84
84
84
84
84
8C
74
ENDCHAR
STARTCHAR ucircumflex
ENCODING 251
SWIDTH 556 0
DWIDTH 8 0
BBX 6 10 1 0
BITMAP
10
28
00
84
84
84
84
84
8C
74
ENDCHAR
STARTCHAR udieresis
ENCODING 252
SWIDTH 556 0
DWIDTH 8 0
BBX 6 10 1 0
BITMAP
48
00
00
84
84
84
84
84
8C
74
ENDCHAR
STARTCHAR yacute
ENCODING 253
SWIDTH 500 0
DWIDTH 7 0
BBX 7 13 0 -3
BITMAP
08
10
00
82
82
44
44
28
28
10
10
20
C0
ENDCHAR
STARTCHAR thorn
ENCODING 254
SWIDTH 556 0
DWIDTH 8 0
BBX 6 13 1 -3
BITMAP
80
80
80
B8
C4
84
84
84
C4
B8
80
80
80
ENDCHAR
STARTCHAR ydieresis
ENCODING 255
SWIDTH 500 0
DWIDTH 7 0
BBX 7 13 0 -3
BITMAP
24
00
00
82
82
44
44
28
28
10
10
20
C0
ENDCHAR
STARTCHAR Amacron
ENCODING 256
SWIDTH 666 0
DWIDTH 9 0
BBX 9 12 0 0
BITMAP
3C00
0000
0800
0800
1400
1400
2200
2200
7F00
4100
8080
8080
ENDCHAR
STARTCHAR amacron
ENCODING 257
SWIDTH 556 0
DWIDTH 8 0
BBX 7 10 1 0
BITMAP
78
00
00
78
84
7C
84
84
84
7A
ENDCHAR
STARTCHAR Abreve
ENCODING 258
SWIDTH 666 0
DWIDTH 9 0
BBX 9 13 0 0
BITMAP
1200
0C00
0000
0800
0800
1400
1400
2200
2200
7F00
4100
8080
8080
ENDCHAR
STARTCHAR abreve
ENCODING 259
SWIDTH 556 0
DWIDTH 8 0
BBX 7 10 1 0
BITMAP
48
30
00
78
84
7C
84
84
84
7A
ENDCHAR
STARTCHAR Aogonek
ENCODING 260
SWIDTH 666 0
DWIDTH 9 0
BBX 10 13 0 -3
BITMAP
0800
0800
1400
1400
2200
2200
7F00
4100
8080
8080
0080
0100
00C0
ENDCHAR
STARTCHAR aogonek
ENCODING 261
SWIDTH 556 0
DWIDTH 8 0
BBX 7 10 1 -3
BITMAP
78
84
7C
84
84
84
7A
04
08
06
ENDCHAR
STARTCHAR Cacute
ENCODING 262
SWIDTH 722 0
DWIDTH 9 0
BBX 8 13 1 0
BITMAP
04
08
00
3C
42
81
80
80
80
80
81
42
3C
ENDCHAR
STARTCHAR cacute
ENCODING 263
SWIDTH 500 0
DWIDTH 7 0
BBX 6 10 1 0
BITMAP
08
10
00
78
84
80
80
80
84
78
ENDCHAR
STARTCHAR Ccircumflex
ENCODING 264
SWIDTH 722 0
DWIDTH 9 0
BBX 8 13 1 0
BITMAP
08
14
00
3C
42
81
80
80
80
80
81
42
3C
ENDCHAR
STARTCHAR ccircumflex
ENCODING 265
SWIDTH 500 0
DWIDTH 7 0
BBX 6 10 1 0
BITMAP
10
28
00
78
84
80
80
80
84
78
ENDCHAR
STARTCHAR Cdotaccent
ENCODING 266
SWIDTH 722 0
DWIDTH 9 0
BBX 8 12 1 0
BITMAP
08
00
3C
42
81
80
80
80
80
81
42
3C
ENDCHAR
STARTCHAR cdotaccent
ENCODING 267
SWIDTH 500 0
DWIDTH 7 0
BBX 6 10 1 0
BITMAP
10
00
00
78
84
80
80
80
84
78
ENDCHAR
STARTCHAR Ccaron
ENCODING 268
SWIDTH 722 0
DWIDTH 9 0
BBX 8 13 1 0
BITMAP
14
08
00
3C
42
81
80
80
80
80
81
42
3C
ENDCHAR
STARTCHAR ccaron
ENCODING 269
SWIDTH 500 0
DWIDTH 7 0
BBX 6 10 1 0
BITMAP
28
10
00
78
84
80
80
80
84
78
ENDCHAR
STARTCHAR Dcaron
ENCODING 270
SWIDTH 722 0
DWIDTH 10 0
BBX 8 13 1 0
BITMAP
28
10
00
FC
82
81
81
81
81
81
81
82
FC
ENDCHAR
STARTCHAR dcaron
ENCODING 271
SWIDTH 634 0
DWIDTH 9 0
BBX 8 10 1 0
BITMAP
05
05
06
74
8C
84
84
84
8C
74
ENDCHAR
STARTCHAR Dcroat
ENCODING 272
SWIDTH 722 0
DWIDTH 10 0
BBX 9 10 0 0
BITMAP
7E00
4100
4080
4080
F880
4080
4080
4080
4100
7E00
ENDCHAR
STARTCHAR dcroat
ENCODING 273
SWIDTH 556 0
DWIDTH 8 0
BBX 7 10 1 0
BITMAP
04
1E
04
74
8C
84
84
84
8C
74
ENDCHAR
STARTCHAR Emacron
ENCODING 274
SWIDTH 666 0
DWIDTH 9 0
BBX 7 12 1 0
BITMAP
78
00
FE
80
80
80
FC
80
80
80
80
FE
ENDCHAR
STARTCHAR emacron
ENCODING 275
SWIDTH 556 0
DWIDTH 8 0
BBX 6 9 1 0
BITMAP
78
00
78
84
84
FC
80
84
78
ENDCHAR
STARTCHAR Ebreve
ENCODING 276
SWIDTH 666 0
DWIDTH 9 0
BBX 7 13 1 0
BITMAP
24
18
00
FE
80
80
80
FC
80
80
80
80
FE
ENDCHAR
STARTCHAR ebreve
ENCODING 277
SWIDTH 556 0
DWIDTH 8 0
BBX 6 10 1 0
BITMAP
48
30
00
78
84
84
FC
80
84
78
ENDCHAR
STARTCHAR Edotaccent
ENCODING 278
SWIDTH 666 0
DWIDTH 9 0
BBX 7 12 1 0
BITMAP
10
00
FE
80
80
80
FC
80
80
80
80
FE
ENDCHAR
STARTCHAR edotaccent
ENCODING 279
SWIDTH 556 0
DWIDTH 8 0
BBX 6 10 1 0
BITMAP
10
00
00
78
84
84
FC
80
84
78
ENDCHAR
STARTCHAR Eogonek
ENCODING 280
SWIDTH 666 0
DWIDTH 9 0
BBX 7 13 1 -3
BITMAP
FE
80
80
80
FC
80
80
80
80
FE
04
08
06
ENDCHAR
STARTCHAR eogonek
ENCODING 281
SWIDTH 556 0
DWIDTH 8 0
BBX 6 10 1 -3
BITMAP
78
84
84
FC
80
84
78
10
10
0C
ENDCHAR
STARTCHAR Ecaron
ENCODING 282
SWIDTH 666 0
DWIDTH 9 0
BBX 7 13 1 0
BITMAP
28
10
00
FE
80
80
80
FC
80
80
80
80
FE
ENDCHAR
STARTCHAR ecaron
ENCODING 283
SWIDTH 556 0
DWIDTH 8 0
BBX 6 10 1 0
BITMAP
28
10
00
78
84
84
FC
80
84
78
ENDCHAR
STARTCHAR Gcircumflex
ENCODING 284
SWIDTH 777 0
DWIDTH 11 0
BBX 9 13 1 0
BITMAP
0800
1400
0000
3E00
4100
8080
8000
8000
8780
8080
8080
4180
3E80
ENDCHAR
STARTCHAR gcircumflex
ENCODING 285
SWIDTH 556 0
DWIDTH 8 0
BBX 6 13 1 -3
BITMAP
20
50
00
74
8C
84
84
84
8C
74
04
04
78
ENDCHAR
STARTCHAR Gbreve
ENCODING 286
SWIDTH 777 0
DWIDTH 11 0
BBX 9 13 1 0
BITMAP
2400
1800
0000
3E00
4100
8080
8000
8000
8780
8080
8080
4180
3E80
ENDCHAR
STARTCHAR gbreve
ENCODING 287
SWIDTH 556 0
DWIDTH 8 0
BBX 6 13 1 -3
BITMAP
48
30
00
74
8C
84
84
84
8C
74
04
04
78
ENDCHAR
STARTCHAR Gdotaccent
ENCODING 288
SWIDTH 777 0
DWIDTH 11 0
BBX 9 12 1 0
BITMAP
0800
0000
3E00
4100
8080
8000
8000
8780
8080
8080
4180
3E80
ENDCHAR
STARTCHAR gdotaccent
ENCODING 289
SWIDTH 556 0
DWIDTH 8 0
BBX 6 13 1 -3
BITMAP
10
00
00
74
8C
84
84
84
8C
74
04
04
78
ENDCHAR
STARTCHAR uni0122
ENCODING 290
SWIDTH 777 0
DWIDTH 11 0
BBX 9 13 1 -3
BITMAP
3E00
4100
8080
8000
8000
8780
8080
8080
4180
3E80
0000
0800
1800
ENDCHAR
STARTCHAR uni0123
ENCODING 291
SWIDTH 556 0
DWIDTH 8 0
BBX 6 14 1 -3
BITMAP
10
20
30
00
74
8C
84
84
84
8C
74
04
04
78
ENDCHAR
STARTCHAR Hcircumflex
ENCODING 292
SWIDTH 722 0
DWIDTH 10 0
BBX 8 13 1 0
BITMAP
08
14
00
81
81
81
81
FF
81
81
81
81
81
ENDCHAR
STARTCHAR hcircumflex
ENCODING 293
SWIDTH 556 0
DWIDTH 8 0
BBX 6 13 1 0
BITMAP
10
28
00
80
80
80
B8
C4
84
84
84
84
84
ENDCHAR
STARTCHAR Hbar
ENCODING 294
SWIDTH 722 0
DWIDTH 10 0
BBX 10 10 0 0
BITMAP
4080
FFC0
4080
4080
7F80
4080
4080
4080
4080
4080
ENDCHAR
STARTCHAR hbar
ENCODING 295
SWIDTH 556 0
DWIDTH 8 0
BBX 7 10 0 0
BITMAP
40
F0
40
5C
62
42
42
42
42
42
ENDCHAR
STARTCHAR Itilde
ENCODING 296
SWIDTH 277 0
DWIDTH 3 0
BBX 5 13 -1 0
BITMAP
68
B0
00
20
20
20
20
20
20
20
20
20
20
ENDCHAR
STARTCHAR itilde
ENCODING 297
SWIDTH 228 0
DWIDTH 3 0
BBX 5 10 -1 0
BITMAP
68
B0
00
20
20
20
20
20
20
20
ENDCHAR
STARTCHAR Imacron
ENCODING 298
SWIDTH 277 0
DWIDTH 3 0
BBX 3 12 0 0
BITMAP
E0
00
40
40
40
40
40
40
40
40
40
40
ENDCHAR
STARTCHAR imacron
ENCODING 299
SWIDTH 228 0
DWIDTH 3 0
BBX 3 10 0 0
BITMAP
E0
00
00
40
40
40
40
40
40
40
ENDCHAR
STARTCHAR Ibreve
ENCODING 300
SWIDTH 277 0
DWIDTH 3 0
BBX 4 13 0 0
BITMAP
90
60
00
40
40
40
40
40
40
40
40
40
40
ENDCHAR
STARTCHAR ibreve
ENCODING 301
SWIDTH 228 0
DWIDTH 3 0
BBX 4 10 0 0
BITMAP
90
60
00
40
40
40
40
40
40
40
ENDCHAR
STARTCHAR Iogonek
ENCODING 302
SWIDTH 277 0
DWIDTH 3 0
BBX 3 13 0 -3
BITMAP
40
40
40
40
40
40
40
40
40
40
40
80
60
ENDCHAR
STARTCHAR iogonek
ENCODING 303
SWIDTH 228 0
DWIDTH 3 0
BBX 3 13 0 -3
BITMAP
40
00
00
40
40
40
40
40
40
40
40
80
60
ENDCHAR
STARTCHAR Idotaccent
ENCODING 304
SWIDTH 277 0
DWIDTH 3 0
BBX 1 12 1 0
BITMAP
80
00
80
80
80
80
80
80
80
80
80
80
ENDCHAR
STARTCHAR dotlessi
ENCODING 305
SWIDTH 228 0
DWIDTH 3 0
BBX 1 7 1 0
BITMAP
80
80
80
80
80
80
80
ENDCHAR
STARTCHAR IJ
ENCODING 306
SWIDTH 777 0
DWIDTH 10 0
BBX 8 10 1 0
BITMAP
81
81
81
81
81
81
81
91
91
8E
ENDCHAR
STARTCHAR ij
ENCODING 307
SWIDTH 456 0
DWIDTH 6 0
BBX 4 13 1 -3
BITMAP
90
00
00
90
90
90
90
90
90
90
10
10
20
ENDCHAR
STARTCHAR Jcircumflex
ENCODING 308
SWIDTH 500 0
DWIDTH 7 0
BBX 6 13 1 0
BITMAP
08
14
00
08
08
08
08
08
08
08
88
88
70
ENDCHAR
STARTCHAR jcircumflex
ENCODING 309
SWIDTH 228 0
DWIDTH 3 0
BBX 3 13 0 -3
BITMAP
40
A0
00
40
40
40
40
40
40
40
40
40
80
ENDCHAR
STARTCHAR uni0136
ENCODING 310
SWIDTH 666 0
DWIDTH 9 0
BBX 8 13 1 -3
BITMAP
82
84
88
90
A0
D0
88
84
82
81
00
08
18
ENDCHAR
STARTCHAR uni0137
ENCODING 311
SWIDTH 500 0
DWIDTH 7 0
BBX 6 13 1 -3
BITMAP
80
80
80
88
90
A0
E0
90
88
84
00
10
30
ENDCHAR
STARTCHAR kgreenlandic
ENCODING 312
SWIDTH 500 0
DWIDTH 7 0
BBX 6 7 1 0
BITMAP
88
90
A0
E0
90
88
84
ENDCHAR
STARTCHAR Lacute
ENCODING 313
SWIDTH 556 0
DWIDTH 8 0
BBX 7 13 1 0
BITMAP
20
40
00
80
80
80
80
80
80
80
80
80
FE
ENDCHAR
STARTCHAR lacute
ENCODING 314
SWIDTH 228 0
DWIDTH 3 0
BBX 2 13 1 0
BITMAP
40
80
00
80
80
80
80
80
80
80
80
80
80
ENDCHAR
STARTCHAR uni013B
ENCODING 315
SWIDTH 556 0
DWIDTH 8 0
BBX 7 13 1 -3
BITMAP
80
80
80
80
80
80
80
80
80
FE
00
10
30
ENDCHAR
STARTCHAR uni013C
ENCODING 316
SWIDTH 228 0
DWIDTH 3 0
BBX 2 13 0 -3
BITMAP
40
40
40
40
40
40
40
40
40
40
00
40
C0
ENDCHAR
STARTCHAR Lcaron
ENCODING 317
SWIDTH 556 0
DWIDTH 8 0
BBX 7 10 1 0
BITMAP
84
84
88
80
80
80
80
80
80
FE
ENDCHAR
STARTCHAR lcaron
ENCODING 318
SWIDTH 291 0
DWIDTH 4 0
BBX 3 10 1 0
BITMAP
A0
A0
C0
80
80
80
80
80
80
80
ENDCHAR
STARTCHAR Ldot
ENCODING 319
SWIDTH 556 0
DWIDTH 8 0
BBX 7 10 1 0
BITMAP
80
80
80
80
88
80
80
80
80
FE
ENDCHAR
STARTCHAR ldot
ENCODING 320
SWIDTH 368 0
DWIDTH 5 0
BBX 3 10 1 0
BITMAP
80
80
80
80
A0
80
80
80
80
80
ENDCHAR
STARTCHAR Lslash
ENCODING 321
SWIDTH 556 0
DWIDTH 8 0
BBX 8 10 0 0
BITMAP
40
40
40
50
60
40
C0
40
40
7F
ENDCHAR
STARTCHAR lslash
ENCODING 322
SWIDTH 228 0
DWIDTH 3 0
BBX 3 10 0 0
BITMAP
40
40
40
40
60
40
C0
40
40
40
ENDCHAR
STARTCHAR Nacute
ENCODING 323
SWIDTH 722 0
DWIDTH 10 0
BBX 8 13 1 0
BITMAP
08
10
00
81
C1
A1
A1
91
89
85
85
83
81
ENDCHAR
STARTCHAR nacute
ENCODING 324
SWIDTH 556 0
DWIDTH 8 0
BBX 6 10 1 0
BITMAP
08
10
00
B8
C4
84
84
84
84
84
ENDCHAR
STARTCHAR uni0145
ENCODING 325
SWIDTH 722 0
DWIDTH 10 0
BBX 8 13 1 -3
BITMAP
81
C1
A1
A1
91
89
85
85
83
81
00
08
18
ENDCHAR
STARTCHAR uni0146
ENCODING 326
SWIDTH 556 0
DWIDTH 8 0
BBX 6 10 1 -3
BITMAP
B8
C4
84
84
84
84
84
00
10
30
ENDCHAR
STARTCHAR Ncaron
ENCODING 327
SWIDTH 722 0
DWIDTH 10 0
BBX 8 13 1 0
BITMAP
14
08
00
81
C1
A1
A1
91
89
85
85
83
81
ENDCHAR
STARTCHAR ncaron
ENCODING 328
SWIDTH 556 0
DWIDTH 8 0
BBX 6 10 1 0
BITMAP
28
10
00
B8
C4
84
84
84
84
84
ENDCHAR
STARTCHAR napostrophe
ENCODING 329
SWIDTH 675 0
DWIDTH 10 0
BBX 9 10 0 0
BITMAP
4000
4000
8000
1700
1880
1080
1080
1080
1080
1080
ENDCHAR
STARTCHAR Eng
ENCODING 330
SWIDTH 722 0
DWIDTH 10 0
BBX 8 13 1 -3
BITMAP
81
C1
A1
A1
91
89
89
85
83
81
01
01
06
ENDCHAR
STARTCHAR eng
ENCODING 331
SWIDTH 556 0
DWIDTH 8 0
BBX 6 10 1 -3
BITMAP
B8
C4
84
84
84
84
84
04
04
18
ENDCHAR
STARTCHAR Omacron
ENCODING 332
SWIDTH 777 0
DWIDTH 11 0
BBX 9 12 1 0
BITMAP
3E00
0000
3E00
4100
8080
8080
8080
8080
8080
8080
4100
3E00
ENDCHAR
STARTCHAR omacron
ENCODING 333
SWIDTH 556 0
DWIDTH 8 0
BBX 6 10 1 0
BITMAP
78
00
00
78
84
84
84
84
84
78
ENDCHAR
STARTCHAR Obreve
ENCODING 334
SWIDTH 777 0
DWIDTH 11 0
BBX 9 13 1 0
BITMAP
1200
0C00
0000
3E00
4100
8080
8080
8080
8080
8080
8080
4100
3E00
ENDCHAR
STARTCHAR obreve
ENCODING 335
SWIDTH 556 0
DWIDTH 8 0
BBX 6 10 1 0
BITMAP
48
30
00
78
84
84
84
84
84
78
ENDCHAR
STARTCHAR Ohungarumlaut
ENCODING 336
SWIDTH 777 0
DWIDTH 11 0
BBX 9 13 1 0
BITMAP
1200
2400
0000
3E00
4100
8080
8080
8080
8080
8080
8080
4100
3E00
ENDCHAR
STARTCHAR ohungarumlaut
ENCODING 337
SWIDTH 556 0
DWIDTH 8 0
BBX 6 10 1 0
BITMAP
24
48
00
78
84
84
84
84
84
78
ENDCHAR
STARTCHAR OE
ENCODING 338
SWIDTH 1000 0
DWIDTH 14 0
BBX 12 10 1 0
BITMAP
3DF0
4300
8100
8100
81E0
8100
8100
8100
4300
3DF0
ENDCHAR
STARTCHAR oe
ENCODING 339
SWIDTH 943 0
DWIDTH 13 0
BBX 11 7 1 0
BITMAP
7BC0
8420
8420
87E0
8400
8420
7BC0
ENDCHAR
STARTCHAR Racute
ENCODING 340
SWIDTH 722 0
DWIDTH 10 0
BBX 9 13 1 0
BITMAP
0800
1000
0000
FC00
8200
8100
8100
8200
FE00
8100
8100
8100
8080
ENDCHAR
STARTCHAR racute
ENCODING 341
SWIDTH 333 0
DWIDTH 5 0
BBX 4 10 1 0
BITMAP
20
40
00
B0
C0
80
80
80
80
80
ENDCHAR
STARTCHAR uni0156
ENCODING 342
SWIDTH 722 0
DWIDTH 10 0
BBX 9 13 1 -3
BITMAP
FC00
8200
8100
8100
8200
FE00
8100
8100
8100
8080
0000
0800
1800
ENDCHAR
STARTCHAR uni0157
ENCODING 343
SWIDTH 333 0
DWIDTH 5 0
BBX 5 10 0 -3
BITMAP
58
60
40
40
40
40
40
00
40
C0
ENDCHAR
STARTCHAR Rcaron
ENCODING 344
SWIDTH 722 0
DWIDTH 10 0
BBX 9 13 1 0
BITMAP
2800
1000
0000
FC00
8200
8100
8100
8200
FE00
8100
8100
8100
8080
ENDCHAR
STARTCHAR rcaron
ENCODING 345
SWIDTH 333 0
DWIDTH 5 0
BBX 4 10 1 0
BITMAP
A0
40
00
B0
C0
80
80
80
80
80
ENDCHAR
STARTCHAR Sacute
ENCODING 346
SWIDTH 666 0
DWIDTH 9 0
BBX 7 13 1 0
BITMAP
08
10
00
7C
82
82
80
70
0C
02
82
82
7C
ENDCHAR
STARTCHAR sacute
ENCODING 347
SWIDTH 500 0
DWIDTH 7 0
BBX 5 10 1 0
BITMAP
10
20
00
70
88
80
70
08
88
70
ENDCHAR
STARTCHAR Scircumflex
ENCODING 348
SWIDTH 666 0
DWIDTH 9 0
BBX 7 13 1 0
BITMAP
10
28
00
7C
82
82
80
70
0C
02
82
82
7C
ENDCHAR
STARTCHAR scircumflex
ENCODING 349
SWIDTH 500 0
DWIDTH 7 0
BBX 5 10 1 0
BITMAP
20
50
00
70
88
80
70
08
88
70
ENDCHAR
STARTCHAR Scedilla
ENCODING 350
SWIDTH 666 0
DWIDTH 9 0
BBX 7 13 1 -3
BITMAP
7C
82
82
80
70
0C
02
82
82
7C
10
08
30
ENDCHAR
STARTCHAR scedilla
ENCODING 351
SWIDTH 500 0
DWIDTH 7 0
BBX 5 10 1 -3
BITMAP
70
88
80
70
08
88
70
20
10
60
ENDCHAR
STARTCHAR Scaron
ENCODING 352
SWIDTH 666 0
DWIDTH 9 0
BBX 7 13 1 0
BITMAP
28
10
00
7C
82
82
80
70
0C
02
82
82
7C
ENDCHAR
STARTCHAR scaron
ENCODING 353
SWIDTH 500 0
DWIDTH 7 0
BBX 5 10 1 0
BITMAP
50
20
00
70
88
80
70
08
88
70
ENDCHAR
STARTCHAR uni0162
ENCODING 354
SWIDTH 610 0
DWIDTH 9 0
BBX 9 13 0 -3
BITMAP
FF80
0800
0800
0800
0800
0800
0800
0800
0800
0800
0800
0400
1800
ENDCHAR
STARTCHAR uni0163
ENCODING 355
SWIDTH 277 0
DWIDTH 4 0
BBX 4 12 0 -3
BITMAP
40
40
E0
40
40
40
40
40
20
20
10
60
ENDCHAR
STARTCHAR Tcaron
ENCODING 356
SWIDTH 610 0
DWIDTH 9 0
BBX 9 13 0 0
BITMAP
1400
0800
0000
FF80
0800
0800
0800
0800
0800
0800
0800
0800
0800
ENDCHAR
STARTCHAR tcaron
ENCODING 357
SWIDTH 351 0
DWIDTH 5 0
BBX 5 10 0 0
BITMAP
08
48
50
E0
40
40
40
40
40
20
ENDCHAR
STARTCHAR Tbar
ENCODING 358
SWIDTH 610 0
DWIDTH 9 0
BBX 9 10 0 0
BITMAP
FF80
0800
0800
0800
7F00
0800
0800
0800
0800
0800
ENDCHAR
STARTCHAR tbar
ENCODING 359
SWIDTH 277 0
DWIDTH 4 0
BBX 3 9 0 0
BITMAP
40
40
E0
40
E0
40
40
40
20
ENDCHAR
STARTCHAR Utilde
ENCODING 360
SWIDTH 722 0
DWIDTH 10 0
BBX 8 13 1 0
BITMAP
1A
2C
00
81
81
81
81
81
81
81
81
42
3C
ENDCHAR
STARTCHAR utilde
ENCODING 361
SWIDTH 556 0
DWIDTH 8 0
BBX 6 10 1 0
BITMAP
34
58
00
84
84
84
84
84
8C
74
ENDCHAR
STARTCHAR Umacron
ENCODING 362
SWIDTH 722 0
DWIDTH 10 0
BBX 8 12 1 0
BITMAP
3C
00
81
81
81
81
81
81
81
81
42
3C
ENDCHAR
STARTCHAR umacron
ENCODING 363
SWIDTH 556 0
DWIDTH 8 0
BBX 6 10 1 0
BITMAP
78
00
00
84
84
84
84
84
8C
74
ENDCHAR
STARTCHAR Ubreve
ENCODING 364
SWIDTH 722 0
DWIDTH 10 0
BBX 8 13 1 0
BITMAP
24
18
00
81
81
81
81
81
81
81
81
42
3C
ENDCHAR
STARTCHAR ubreve
ENCODING 365
SWIDTH 556 0
DWIDTH 8 0
BBX 6 10 1 0
BITMAP
48
30
00
84
84
84
84
84
8C
74
ENDCHAR
STARTCHAR Uring
ENCODING 366
SWIDTH 722 0
DWIDTH 10 0
BBX 8 13 1 0
BITMAP
08
14
08
81
81
81
81
81
81
81
81
42
3C
ENDCHAR
STARTCHAR uring
ENCODING 367
SWIDTH 556 0
DWIDTH 8 0
BBX 6 11 1 0
BITMAP
10
28
10
00
84
84
84
84
84
8C
74
ENDCHAR
STARTCHAR Uhungarumlaut
ENCODING 368
SWIDTH 722 0
DWIDTH 10 0
BBX 8 13 1 0
BITMAP
12
24
00
81
81
81
81
81
81
81
81
42
3C
ENDCHAR
STARTCHAR uhungarumlaut
ENCODING 369
SWIDTH 556 0
DWIDTH 8 0
BBX 6 10 1 0
BITMAP
24
48
00
84
84
84
84
84
8C
74
ENDCHAR
STARTCHAR Uogonek
ENCODING 370
SWIDTH 722 0
DWIDTH 10 0
BBX 8 13 1 -3
BITMAP
81
81
81
81
81
81
81
81
42
3C
08
10
0C
ENDCHAR
STARTCHAR uogonek
ENCODING 371
SWIDTH 556 0
DWIDTH 8 0
BBX 7 10 1 -3
BITMAP
84
84
84
84
84
8C
74
04
08
06
ENDCHAR
STARTCHAR Wcircumflex
ENCODING 372
SWIDTH 943 0
DWIDTH 13 0
BBX 13 13 0 0
BITMAP
0200
0500
0000
8208
8208
8508
4510
4510
28A0
28A0
28A0
1040
1040
ENDCHAR
STARTCHAR wcircumflex
ENCODING 373
SWIDTH 722 0
DWIDTH 9 0
BBX 9 10 0 0
BITMAP
0800
1400
0000
8880
8880
5500
5500
5500
2200
2200
ENDCHAR
STARTCHAR Ycircumflex
ENCODING 374
SWIDTH 666 0
DWIDTH 9 0
BBX 9 13 0 0
BITMAP
0800
1400
0000
8080
8080
4100
2200
1400
0800
0800
0800
0800
0800
ENDCHAR
STARTCHAR ycircumflex
ENCODING 375
SWIDTH 500 0
DWIDTH 7 0
BBX 7 13 0 -3
BITMAP
10
28
00
82
82
44
44
28
28
10
10
20
C0
ENDCHAR
STARTCHAR Ydieresis
ENCODING 376
SWIDTH 666 0
DWIDTH 9 0
BBX 9 12 0 0
BITMAP
2200
0000
8080
8080
4100
2200
1400
0800
0800
0800
0800
0800
ENDCHAR
STARTCHAR Zacute
ENCODING 377
SWIDTH 610 0
DWIDTH 9 0
BBX 7 13 1 0
BITMAP
08
10
00
FE
02
04
08
10
10
20
40
80
FE
ENDCHAR
STARTCHAR zacute
ENCODING 378
SWIDTH 500 0
DWIDTH 7 0
BBX 5 10 1 0
BITMAP
10
20
00
F8
08
10
20
40
80
F8
ENDCHAR
STARTCHAR Zdotaccent
ENCODING 379
SWIDTH 610 0
DWIDTH 9 0
BBX 7 12 1 0
BITMAP
10
00
FE
02
04
08
10
10
20
40
80
FE
ENDCHAR
STARTCHAR zdotaccent
ENCODING 380
SWIDTH 500 0
DWIDTH 7 0
BBX 5 10 1 0
BITMAP
20
00
00
F8
08
10
20
40
80
F8
ENDCHAR
STARTCHAR Zcaron
ENCODING 381
SWIDTH 610 0
DWIDTH 9 0
BBX 7 13 1 0
BITMAP
28
10
00
FE
02
04
08
10
10
20
40
80
FE
ENDCHAR
STARTCHAR zcaron
ENCODING 382
SWIDTH 500 0
DWIDTH 7 0
BBX 5 10 1 0
BITMAP
50
20
00
F8
08
10
20
40
80
F8
ENDCHAR
STARTCHAR longs
ENCODING 383
SWIDTH 250 0
DWIDTH 4 0
BBX 3 10 1 0
BITMAP
60
80
80
80
80
80
80
80
80
80
ENDCHAR
STARTCHAR uni0180
ENCODING 384
SWIDTH 556 0
DWIDTH 8 0
BBX 7 10 0 0
BITMAP
F0
40
40
5C
62
42
42
42
42
7C
ENDCHAR
STARTCHAR uni0181
ENCODING 385
SWIDTH 748 0
DWIDTH 10 0
BBX 9 10 0 0
BITMAP
FE00
A100
A100
2100
3E00
2180
2080
2080
2080
3F00
ENDCHAR
STARTCHAR uni0182
ENCODING 386
SWIDTH 654 0
DWIDTH 9 0
BBX 7 10 1 0
BITMAP
FC
80
80
80
FC
82
82
82
82
FC
ENDCHAR
STARTCHAR uni0183
ENCODING 387
SWIDTH 556 0
DWIDTH 8 0
BBX 6 10 1 0
BITMAP
F8
80
80
B8
C4
84
84
84
84
F8
ENDCHAR
STARTCHAR uni0184
ENCODING 388
SWIDTH 654 0
DWIDTH 9 0
BBX 8 10 0 0
BITMAP
40
C0
40
40
7E
41
41
41
41
7E
ENDCHAR
STARTCHAR uni0185
ENCODING 389
SWIDTH 556 0
DWIDTH 8 0
BBX 7 10 0 0
BITMAP
40
C0
40
5C
62
42
42
42
42
7C
ENDCHAR
STARTCHAR uni0186
ENCODING 390
SWIDTH 722 0
DWIDTH 10 0
BBX 8 10 1 0
BITMAP
3C
42
81
01
01
01
01
81
42
3C
ENDCHAR
STARTCHAR uni0187
ENCODING 391
SWIDTH 722 0
DWIDTH 10 0
BBX 10 10 1 0
BITMAP
3CC0
4300
8100
8000
8000
8000
8000
8100
4200
3C00
ENDCHAR
STARTCHAR uni0188
ENCODING 392
SWIDTH 500 0
DWIDTH 7 0
BBX 8 8 1 0
BITMAP
07
7C
84
80
80
80
84
78
ENDCHAR
STARTCHAR uni0189
ENCODING 393
SWIDTH 722 0
DWIDTH 10 0
BBX 9 10 0 0
BITMAP
7E00
4100
4080
4080
F880
4080
4080
4080
4100
7E00
ENDCHAR
STARTCHAR uni018A
ENCODING 394
SWIDTH 803 0
DWIDTH 11 0
BBX 10 10 0 0
BITMAP
7F00
A080
A040
2040
2040
2040
2040
2040
2080
3F00
ENDCHAR
STARTCHAR uni018B
ENCODING 395
SWIDTH 654 0
DWIDTH 9 0
BBX 7 10 1 0
BITMAP
7E
02
02
02
7E
82
82
82
82
7E
ENDCHAR
STARTCHAR uni018C
ENCODING 396
SWIDTH 556 0
DWIDTH 8 0
BBX 6 10 1 0
BITMAP
7C
04
04
7C
84
84
84
84
8C
74
ENDCHAR
STARTCHAR uni018D
ENCODING 397
SWIDTH 556 0
DWIDTH 8 0
BBX 6 10 1 -3
BITMAP
78
84
84
84
84
84
78
20
10
78
ENDCHAR
STARTCHAR uni018E
ENCODING 398
SWIDTH 666 0
DWIDTH 9 0
BBX 7 10 1 0
BITMAP
FE
02
02
02
7E
02
02
02
02
FE
ENDCHAR
STARTCHAR uni018F
ENCODING 399
SWIDTH 777 0
DWIDTH 11 0
BBX 9 10 1 0
BITMAP
3C00
4200
0100
0080
FF80
8080
8080
4100
2200
1C00
ENDCHAR
STARTCHAR uni0190
ENCODING 400
SWIDTH 634 0
DWIDTH 9 0
BBX 7 10 1 0
BITMAP
3C
42
40
40
38
40
80
82
44
38
ENDCHAR
STARTCHAR uni0191
ENCODING 401
SWIDTH 610 0
DWIDTH 9 0
BBX 8 13 0 -3
BITMAP
7F
40
40
40
7E
40
40
40
40
40
40
40
C0
ENDCHAR
STARTCHAR florin
ENCODING 402
SWIDTH 556 0
DWIDTH 8 0
BBX 7 13 0 -3
BITMAP
06
08
08
3E
08
10
10
10
10
20
20
20
C0
ENDCHAR
STARTCHAR uni0193
ENCODING 403
SWIDTH 777 0
DWIDTH 11 0
BBX 11 10 1 0
BITMAP
3EE0
4180
4080
8000
8000
8780
8080
4080
4180
3E80
ENDCHAR
STARTCHAR uni0194
ENCODING 404
SWIDTH 666 0
DWIDTH 9 0
BBX 9 13 0 -3
BITMAP
8080
4100
4100
2200
2200
1400
1400
1400
0800
0800
1400
1400
1C00
ENDCHAR
STARTCHAR uni0195
ENCODING 405
SWIDTH 892 0
DWIDTH 13 0
BBX 11 10 1 0
BITMAP
8000
8000
8000
B820
C420
8420
8420
8420
8420
83C0
ENDCHAR
STARTCHAR uni0196
ENCODING 406
SWIDTH 228 0
DWIDTH 3 0
BBX 1 10 1 0
BITMAP
80
80
80
80
80
80
80
80
80
80
ENDCHAR
STARTCHAR uni0197
ENCODING 407
SWIDTH 277 0
DWIDTH 4 0
BBX 3 10 0 0
BITMAP
40
40
40
40
E0
40
40
40
40
40
ENDCHAR
STARTCHAR uni0198
ENCODING 408
SWIDTH 666 0
DWIDTH 9 0
BBX 8 10 1 0
BITMAP
63
84
88
90
A0
D0
88
84
82
81
ENDCHAR
STARTCHAR uni0199
ENCODING 409
SWIDTH 500 0
DWIDTH 7 0
BBX 5 10 1 0
BITMAP
60
80
80
88
90
A0
E0
A0
90
88
ENDCHAR
STARTCHAR uni019A
ENCODING 410
SWIDTH 228 0
DWIDTH 3 0
BBX 3 10 0 0
BITMAP
40
40
40
40
E0
40
40
40
40
40
ENDCHAR
STARTCHAR uni019B
ENCODING 411
SWIDTH 500 0
DWIDTH 7 0
BBX 7 10 0 0
BITMAP
68
70
90
10
28
28
44
44
44
82
ENDCHAR
STARTCHAR uni019C
ENCODING 412
SWIDTH 833 0
DWIDTH 12 0
BBX 10 10 1 0
BITMAP
8840
8840
8840
8840
8840
8840
8840
8840
98C0
6740
ENDCHAR
STARTCHAR uni019D
ENCODING 413
SWIDTH 722 0
DWIDTH 10 0
BBX 9 13 0 -3
BITMAP
4080
6080
5080
5080
4880
4480
4280
4180
4180
4080
4000
4000
C000
ENDCHAR
STARTCHAR uni019E
ENCODING 414
SWIDTH 556 0
DWIDTH 8 0
BBX 6 10 1 -3
BITMAP
B8
C4
84
84
84
84
84
04
04
04
ENDCHAR
STARTCHAR uni019F
ENCODING 415
SWIDTH 777 0
DWIDTH 11 0
BBX 9 10 1 0
BITMAP
3E00
4100
8080
8080
FF80
8080
8080
8080
4100
3E00
ENDCHAR
STARTCHAR Ohorn
ENCODING 416
SWIDTH 777 0
DWIDTH 11 0
BBX 9 11 1 0
BITMAP
0180
0080
3E80
4100
8080
8080
8080
8080
8080
4100
3E00
ENDCHAR
STARTCHAR ohorn
ENCODING 417
SWIDTH 556 0
DWIDTH 8 0
BBX 6 9 1 0
BITMAP
0C
04
78
84
84
84
84
84
78
ENDCHAR
STARTCHAR uni01A2
ENCODING 418
SWIDTH 881 0
DWIDTH 12 0
BBX 10 13 1 -3
BITMAP
1E40
61C0
4140
8140
8140
8140
8140
4140
6140
1E40
0040
0040
0040
ENDCHAR
STARTCHAR uni01A3
ENCODING 419
SWIDTH 703 0
DWIDTH 10 0
BBX 8 10 1 -3
BITMAP
3F
45
85
85
85
45
3D
01
01
01
ENDCHAR
STARTCHAR uni01A4
ENCODING 420
SWIDTH 748 0
DWIDTH 10 0
BBX 9 10 0 0
BITMAP
FE00
A100
A080
2080
2100
3E00
2000
2000
2000
2000
ENDCHAR
STARTCHAR uni01A5
ENCODING 421
SWIDTH 556 0
DWIDTH 8 0
BBX 6 13 1 -3
BITMAP
60
80
80
B8
C4
84
84
84
84
F8
80
80
80
ENDCHAR
STARTCHAR uni01A6
ENCODING 422
SWIDTH 666 0
DWIDTH 9 0
BBX 8 11 1 -1
BITMAP
80
FC
82
82
82
82
FC
88
84
82
01
ENDCHAR
STARTCHAR uni01A7
ENCODING 423
SWIDTH 666 0
DWIDTH 9 0
BBX 7 10 1 0
BITMAP
7C
82
82
02
1C
60
80
82
82
7C
ENDCHAR
STARTCHAR uni01A8
ENCODING 424
SWIDTH 500 0
DWIDTH 7 0
BBX 5 7 1 0
BITMAP
70
88
08
70
80
88
70
ENDCHAR
STARTCHAR uni01A9
ENCODING 425
SWIDTH 611 0
DWIDTH 9 0
BBX 7 10 1 0
BITMAP
FE
80
40
20
10
10
20
40
80
FE
ENDCHAR
STARTCHAR uni01AA
ENCODING 426
SWIDTH 416 0
DWIDTH 6 0
BBX 6 13 1 -3
BITMAP
60
90
90
70
10
10
10
10
10
10
10
10
0C
ENDCHAR
STARTCHAR uni01AB
ENCODING 427
SWIDTH 277 0
DWIDTH 4 0
BBX 3 12 0 -3
BITMAP
40
40
E0
40
40
40
40
40
60
20
20
60
ENDCHAR
STARTCHAR uni01AC
ENCODING 428
SWIDTH 620 0
DWIDTH 9 0
BBX 8 10 0 0
BITMAP
7F
88
88
08
08
08
08
08
08
08
ENDCHAR
STARTCHAR uni01AD
ENCODING 429
SWIDTH 277 0
DWIDTH 4 0
BBX 3 10 0 0
BITMAP
60
40
40
E0
40
40
40
40
40
60
ENDCHAR
STARTCHAR uni01AE
ENCODING 430
SWIDTH 610 0
DWIDTH 9 0
BBX 9 13 0 -3
BITMAP
FF80
0800
0800
0800
0800
0800
0800
0800
0800
0800
0800
0800
0C00
ENDCHAR
STARTCHAR Uhorn
ENCODING 431
SWIDTH 722 0
DWIDTH 10 0
BBX 9 11 1 0
BITMAP
0180
0080
8100
8100
8100
8100
8100
8100
8100
4200
3C00
ENDCHAR
STARTCHAR uhorn
ENCODING 432
SWIDTH 556 0
DWIDTH 8 0
BBX 7 9 1 0
BITMAP
06
02
84
84
84
84
84
8C
74
ENDCHAR
STARTCHAR uni01B1
ENCODING 433
SWIDTH 768 0
DWIDTH 11 0
BBX 9 10 1 0
BITMAP
F780
2200
4100
8080
8080
8080
8080
8080
4100
3E00
ENDCHAR
STARTCHAR uni01B2
ENCODING 434
SWIDTH 722 0
DWIDTH 10 0
BBX 8 10 1 0
BITMAP
86
81
81
81
81
81
81
82
42
3C
ENDCHAR
STARTCHAR uni01B3
ENCODING 435
SWIDTH 771 0
DWIDTH 11 0
BBX 11 10 0 0
BITMAP
80C0
40A0
2120
2200
1400
0800
0800
0800
0800
0800
ENDCHAR
STARTCHAR uni01B4
ENCODING 436
SWIDTH 500 0
DWIDTH 7 0
BBX 10 13 0 -3
BITMAP
0180
0240
0200
8400
4400
4400
4800
2800
2800
1000
1000
2000
6000
ENDCHAR
STARTCHAR uni01B5
ENCODING 437
SWIDTH 610 0
DWIDTH 9 0
BBX 7 10 1 0
BITMAP
7E
02
04
08
7C
10
20
40
80
FE
ENDCHAR
STARTCHAR uni01B6
ENCODING 438
SWIDTH 500 0
DWIDTH 7 0
BBX 5 7 1 0
BITMAP
F8
08
10
F8
40
80
F8
ENDCHAR
STARTCHAR uni01B7
ENCODING 439
SWIDTH 552 0
DWIDTH 8 0
BBX 7 13 0 -3
BITMAP
FE
02
04
08
10
38
04
02
02
02
02
84
78
ENDCHAR
STARTCHAR uni01B8
ENCODING 440
SWIDTH 552 0
DWIDTH 8 0
BBX 7 13 1 -3
BITMAP
FE
80
40
20
10
38
40
80
80
80
80
42
3C
ENDCHAR
STARTCHAR uni01B9
ENCODING 441
SWIDTH 471 0
DWIDTH 7 0
BBX 6 10 1 -3
BITMAP
FC
40
20
30
40
80
80
80
44
38
ENDCHAR
STARTCHAR uni01BA
ENCODING 442
SWIDTH 471 0
DWIDTH 7 0
BBX 6 10 0 -3
BITMAP
7C
08
18
04
04
18
60
80
84
78
ENDCHAR
STARTCHAR uni01BB
ENCODING 443
SWIDTH 556 0
DWIDTH 8 0
BBX 6 10 1 0
BITMAP
78
84
84
04
04
FC
10
20
40
FC
ENDCHAR
STARTCHAR uni01BC
ENCODING 444
SWIDTH 556 0
DWIDTH 8 0
BBX 7 10 0 0
BITMAP
FE
40
40
78
44
02
02
42
44
38
ENDCHAR
STARTCHAR uni01BD
ENCODING 445
SWIDTH 457 0
DWIDTH 6 0
BBX 6 7 0 0
BITMAP
FC
40
40
78
04
84
78
ENDCHAR
STARTCHAR uni01BE
ENCODING 446
SWIDTH 538 0
DWIDTH 8 0
BBX 7 9 0 0
BITMAP
40
40
E0
40
60
1C
02
42
3C
ENDCHAR
STARTCHAR uni01BF
ENCODING 447
SWIDTH 552 0
DWIDTH 8 0
BBX 6 10 1 -3
BITMAP
B8
C4
84
84
84
88
90
A0
C0
80
ENDCHAR
STARTCHAR uni01C0
ENCODING 448
SWIDTH 259 0
DWIDTH 3 0
BBX 1 13 1 -3
BITMAP
80
80
80
80
80
80
80
80
80
80
80
80
80
ENDCHAR
STARTCHAR uni01C1
ENCODING 449
SWIDTH 259 0
DWIDTH 3 0
BBX 3 13 0 -3
BITMAP
A0
A0
A0
A0
A0
A0
A0
A0
A0
A0
A0
A0
A0
ENDCHAR
STARTCHAR uni01C2
ENCODING 450
SWIDTH 727 0
DWIDTH 10 0
BBX 7 13 2 -3
BITMAP
10
10
10
10
FE
10
10
FE
10
10
10
10
10
ENDCHAR
STARTCHAR uni01C3
ENCODING 451
SWIDTH 277 0
DWIDTH 3 0
BBX 1 10 1 0
BITMAP
80
80
80
80
80
80
80
80
00
80
ENDCHAR
STARTCHAR uni01C4
ENCODING 452
SWIDTH 1294 0
DWIDTH 18 0
BBX 16 13 1 0
BITMAP
0014
0008
0000
FC7F
8201
8102
8104
8108
8108
8110
8120
8240
FC7F
ENDCHAR
STARTCHAR uni01C5
ENCODING 453
SWIDTH 1183 0
DWIDTH 17 0
BBX 14 10 1 0
BITMAP
FC28
8210
8100
817C
8104
8108
8110
8120
8240
FC7C
ENDCHAR
STARTCHAR uni01C6
ENCODING 454
SWIDTH 1037 0
DWIDTH 15 0
BBX 12 10 1 0
BITMAP
04A0
0440
0400
75F0
8C10
8420
8440
8480
8D00
75F0
ENDCHAR
STARTCHAR uni01C7
ENCODING 455
SWIDTH 1046 0
DWIDTH 15 0
BBX 13 10 1 0
BITMAP
8008
8008
8008
8008
8008
8008
8008
8088
8088
FE70
ENDCHAR
STARTCHAR uni01C8
ENCODING 456
SWIDTH 786 0
DWIDTH 11 0
BBX 9 13 1 -3
BITMAP
8080
8000
8000
8080
8080
8080
8080
8080
8080
FE80
0080
0080
0100
ENDCHAR
STARTCHAR uni01C9
ENCODING 457
SWIDTH 423 0
DWIDTH 6 0
BBX 3 13 1 -3
BITMAP
A0
80
80
A0
A0
A0
A0
A0
A0
A0
20
20
40
ENDCHAR
STARTCHAR uni01CA
ENCODING 458
SWIDTH 1183 0
DWIDTH 17 0
BBX 14 10 1 0
BITMAP
8104
C104
A104
A104
9104
8904
8504
8544
8344
8138
ENDCHAR
STARTCHAR uni01CB
ENCODING 459
SWIDTH 905 0
DWIDTH 13 0
BBX 10 13 1 -3
BITMAP
8140
C100
A100
A140
9140
8940
8540
8540
8340
8140
0040
0040
0080
ENDCHAR
STARTCHAR uni01CC
ENCODING 460
SWIDTH 753 0
DWIDTH 11 0
BBX 8 13 1 -3
BITMAP
01
00
00
B9
C5
85
85
85
85
85
01
01
02
ENDCHAR
STARTCHAR uni01CD
ENCODING 461
SWIDTH 666 0
DWIDTH 9 0
BBX 9 13 0 0
BITMAP
1400
0800
0000
0800
0800
1400
1400
2200
2200
7F00
4100
8080
8080
ENDCHAR
STARTCHAR uni01CE
ENCODING 462
SWIDTH 556 0
DWIDTH 8 0
BBX 7 10 1 0
BITMAP
28
10
00
78
84
7C
84
84
84
7A
ENDCHAR
STARTCHAR uni01CF
ENCODING 463
SWIDTH 277 0
DWIDTH 3 0
BBX 3 13 0 0
BITMAP
A0
40
00
40
40
40
40
40
40
40
40
40
40
ENDCHAR
STARTCHAR uni01D0
ENCODING 464
SWIDTH 228 0
DWIDTH 3 0
BBX 3 10 0 0
BITMAP
A0
40
00
40
40
40
40
40
40
40
ENDCHAR
STARTCHAR uni01D1
ENCODING 465
SWIDTH 777 0
DWIDTH 11 0
BBX 9 13 1 0
BITMAP
1400
0800
0000
3E00
4100
8080
8080
8080
8080
8080
8080
4100
3E00
ENDCHAR
STARTCHAR uni01D2
ENCODING 466
SWIDTH 556 0
DWIDTH 8 0
BBX 6 10 1 0
BITMAP
28
10
00
78
84
84
84
84
84
78
ENDCHAR
STARTCHAR uni01D3
ENCODING 467
SWIDTH 722 0
DWIDTH 10 0
BBX 8 13 1 0
BITMAP
14
08
00
81
81
81
81
81
81
81
81
42
3C
ENDCHAR
STARTCHAR uni01D4
ENCODING 468
SWIDTH 556 0
DWIDTH 8 0
BBX 6 10 1 0
BITMAP
28
10
00
84
84
84
84
84
8C
74
ENDCHAR
STARTCHAR uni01D5
ENCODING 469
SWIDTH 722 0
DWIDTH 10 0
BBX 8 14 1 0
BITMAP
1C
00
14
00
81
81
81
81
81
81
81
81
42
3C
ENDCHAR
STARTCHAR uni01D6
ENCODING 470
SWIDTH 556 0
DWIDTH 8 0
BBX 6 12 1 0
BITMAP
38
00
28
00
00
84
84
84
84
84
8C
74
ENDCHAR
STARTCHAR uni01D7
ENCODING 471
SWIDTH 722 0
DWIDTH 10 0
BBX 8 14 1 0
BITMAP
08
10
24
00
81
81
81
81
81
81
81
81
42
3C
ENDCHAR
STARTCHAR uni01D8
ENCODING 472
SWIDTH 556 0
DWIDTH 8 0
BBX 6 12 1 0
BITMAP
10
20
00
48
00
84
84
84
84
84
8C
74
ENDCHAR
STARTCHAR uni01D9
ENCODING 473
SWIDTH 722 0
DWIDTH 10 0
BBX 8 15 1 0
BITMAP
22
1C
00
22
00
81
81
81
81
81
81
81
81
42
3C
ENDCHAR
STARTCHAR uni01DA
ENCODING 474
SWIDTH 556 0
DWIDTH 8 0
BBX 6 13 1 0
BITMAP
44
38
00
28
00
00
84
84
84
84
84
8C
74
ENDCHAR
STARTCHAR uni01DB
ENCODING 475
SWIDTH 722 0
DWIDTH 10 0
BBX 8 15 1 0
BITMAP
10
08
00
14
00
81
81
81
81
81
81
81
81
42
3C
ENDCHAR
STARTCHAR uni01DC
ENCODING 476
SWIDTH 556 0
DWIDTH 8 0
BBX 6 13 1 0
BITMAP
20
10
00
28
00
00
84
84
84
84
84
8C
74
ENDCHAR
STARTCHAR uni01DD
ENCODING 477
SWIDTH 556 0
DWIDTH 8 0
BBX 6 7 1 0
BITMAP
78
84
04
FC
84
84
78
ENDCHAR
STARTCHAR uni01DE
ENCODING 478
SWIDTH 666 0
DWIDTH 9 0
BBX 9 14 0 0
BITMAP
1C00
0000
1400
0000
0800
0800
1400
1400
2200
2200
7F00
4100
8080
8080
ENDCHAR
STARTCHAR uni01DF
ENCODING 479
SWIDTH 556 0
DWIDTH 8 0
BBX 7 12 1 0
BITMAP
38
00
28
00
00
78
84
7C
84
84
84
7A
ENDCHAR
STARTCHAR uni01E0
ENCODING 480
SWIDTH 666 0
DWIDTH 9 0
BBX 9 14 0 0
BITMAP
3C00
0000
0800
0000
0800
0800
1400
1400
2200
2200
7F00
4100
8080
8080
ENDCHAR
STARTCHAR uni01E1
ENCODING 481
SWIDTH 556 0
DWIDTH 8 0
BBX 7 12 1 0
BITMAP
78
00
10
00
00
78
84
7C
84
84
84
7A
ENDCHAR
STARTCHAR uni01E2
ENCODING 482
SWIDTH 1000 0
DWIDTH 14 0
BBX 13 12 0 0
BITMAP
00F0
0000
03F8
0500
0500
0900
11F0
1100
3F00
2100
4100
81F8
ENDCHAR
STARTCHAR uni01E3
ENCODING 483
SWIDTH 889 0
DWIDTH 13 0
BBX 11 10 1 0
BITMAP
0F00
0000
0000
7BC0
8420
7C20
87E0
8400
8420
7BC0
ENDCHAR
STARTCHAR uni01E4
ENCODING 484
SWIDTH 777 0
DWIDTH 11 0
BBX 10 10 1 0
BITMAP
1E00
6100
4080
8000
8000
8780
8080
47C0
6180
1E80
ENDCHAR
STARTCHAR uni01E5
ENCODING 485
SWIDTH 556 0
DWIDTH 8 0
BBX 7 10 1 -3
BITMAP
7C
84
84
84
8C
74
04
FE
04
78
ENDCHAR
STARTCHAR Gcaron
ENCODING 486
SWIDTH 777 0
DWIDTH 11 0
BBX 9 13 1 0
BITMAP
1400
0800
0000
3E00
4100
8080
8000
8000
8780
8080
8080
4180
3E80
ENDCHAR
STARTCHAR gcaron
ENCODING 487
SWIDTH 556 0
DWIDTH 8 0
BBX 6 13 1 -3
BITMAP
28
10
00
74
8C
84
84
84
8C
74
04
04
78
ENDCHAR
STARTCHAR uni01E8
ENCODING 488
SWIDTH 666 0
DWIDTH 9 0
BBX 8 13 1 0
BITMAP
28
10
00
82
84
88
90
A0
D0
88
84
82
81
ENDCHAR
STARTCHAR uni01E9
ENCODING 489
SWIDTH 500 0
DWIDTH 7 0
BBX 6 13 1 0
BITMAP
50
20
00
80
80
80
88
90
A0
E0
90
88
84
ENDCHAR
STARTCHAR uni01EA
ENCODING 490
SWIDTH 777 0
DWIDTH 11 0
BBX 9 13 1 -3
BITMAP
3E00
4100
8080
8080
8080
8080
8080
8080
4100
3E00
1000
1000
1C00
ENDCHAR
STARTCHAR uni01EB
ENCODING 491
SWIDTH 556 0
DWIDTH 8 0
BBX 6 10 1 -3
BITMAP
78
84
84
84
84
84
78
20
20
38
ENDCHAR
STARTCHAR uni01EC
ENCODING 492
SWIDTH 777 0
DWIDTH 11 0
BBX 9 15 1 -3
BITMAP
1E00
0000
3E00
4100
8080
8080
8080
8080
8080
8080
4100
3E00
1000
1000
1C00
ENDCHAR
STARTCHAR uni01ED
ENCODING 493
SWIDTH 556 0
DWIDTH 8 0
BBX 6 13 1 -3
BITMAP
78
00
00
78
84
84
84
84
84
78
20
20
38
ENDCHAR
STARTCHAR uni01EE
ENCODING 494
SWIDTH 552 0
DWIDTH 8 0
BBX 7 16 0 -3
BITMAP
28
10
00
FE
02
04
08
10
38
04
02
02
02
02
84
78
ENDCHAR
STARTCHAR uni01EF
ENCODING 495
SWIDTH 471 0
DWIDTH 7 0
BBX 4 13 1 -3
BITMAP
50
20
00
F0
30
20
60
30
10
10
10
A0
E0
ENDCHAR
STARTCHAR uni01F0
ENCODING 496
SWIDTH 228 0
DWIDTH 3 0
BBX 5 13 -1 -3
BITMAP
D8
20
00
20
20
20
20
20
20
20
20
20
60
ENDCHAR
STARTCHAR uni01F1
ENCODING 497
SWIDTH 1294 0
DWIDTH 18 0
BBX 16 10 1 0
BITMAP
FC7F
8201
8102
8104
8108
8108
8110
8120
8240
FC7F
ENDCHAR
STARTCHAR uni01F2
ENCODING 498
SWIDTH 1183 0
DWIDTH 17 0
BBX 14 10 1 0
BITMAP
FC00
8200
8100
817C
8104
8108
8110
8120
8240
FC7C
ENDCHAR
STARTCHAR uni01F3
ENCODING 499
SWIDTH 1037 0
DWIDTH 15 0
BBX 12 10 1 0
BITMAP
0400
0400
0400
75F0
8C10
8420
8440
8480
8D00
75F0
ENDCHAR
STARTCHAR uni01F4
ENCODING 500
SWIDTH 777 0
DWIDTH 11 0
BBX 9 13 1 0
BITMAP
0400
0800
0000
3E00
4100
8080
8000
8000
8780
8080
8080
4180
3E80
ENDCHAR
STARTCHAR uni01F5
ENCODING 501
SWIDTH 556 0
DWIDTH 8 0
BBX 6 13 1 -3
BITMAP
10
20
00
74
8C
84
84
84
8C
74
04
04
78
ENDCHAR
STARTCHAR uni01F6
ENCODING 502
SWIDTH 1044 0
DWIDTH 15 0
BBX 13 10 1 0
BITMAP
8100
8100
8100
8108
FF08
8108
8108
8108
8108
80F0
ENDCHAR
STARTCHAR uni01F7
ENCODING 503
SWIDTH 552 0
DWIDTH 8 0
BBX 6 13 1 -3
BITMAP
B8
C4
84
84
84
88
90
A0
C0
80
80
80
80
ENDCHAR
STARTCHAR uni01F8
ENCODING 504
SWIDTH 722 0
DWIDTH 10 0
BBX 8 13 1 0
BITMAP
10
08
00
81
C1
A1
A1
91
89
85
85
83
81
ENDCHAR
STARTCHAR uni01F9
ENCODING 505
SWIDTH 556 0
DWIDTH 8 0
BBX 6 10 1 0
BITMAP
20
10
00
B8
C4
84
84
84
84
84
ENDCHAR
STARTCHAR Aringacute
ENCODING 506
SWIDTH 666 0
DWIDTH 9 0
BBX 9 12 0 0
BITMAP
0400
1C00
1400
0800
0800
1400
1400
2200
7F00
4100
8080
8080
ENDCHAR
STARTCHAR aringacute
ENCODING 507
SWIDTH 556 0
DWIDTH 8 0
BBX 7 11 1 0
BITMAP
04
08
38
28
78
84
7C
84
84
84
7A
ENDCHAR
STARTCHAR AEacute
ENCODING 508
SWIDTH 1000 0
DWIDTH 14 0
BBX 13 13 0 0
BITMAP
0020
0040
0000
03F8
0500
0500
0900
11F0
1100
3F00
2100
4100
81F8
ENDCHAR
STARTCHAR aeacute
ENCODING 509
SWIDTH 889 0
DWIDTH 13 0
BBX 11 10 1 0
BITMAP
0200
0400
0000
7BC0
8420
7C20
87E0
8400
8420
7BC0
ENDCHAR
STARTCHAR Oslashacute
ENCODING 510
SWIDTH 777 0
DWIDTH 11 0
BBX 9 13 1 0
BITMAP
0400
0800
0000
3E80
4100
8280
8480
8880
8880
9080
A080
4100
BE00
ENDCHAR
STARTCHAR oslashacute
ENCODING 511
SWIDTH 556 0
DWIDTH 8 0
BBX 6 11 1 -1
BITMAP
10
20
04
78
8C
94
94
A4
C4
78
80
ENDCHAR
STARTCHAR uni0200
ENCODING 512
SWIDTH 666 0
DWIDTH 9 0
BBX 9 13 0 0
BITMAP
2400
1200
0000
0800
0800
1400
1400
2200
2200
7F00
4100
8080
8080
ENDCHAR
STARTCHAR uni0201
ENCODING 513
SWIDTH 556 0
DWIDTH 8 0
BBX 7 10 1 0
BITMAP
90
48
00
78
84
7C
84
84
84
7A
ENDCHAR
STARTCHAR uni0202
ENCODING 514
SWIDTH 666 0
DWIDTH 9 0
BBX 9 13 0 0
BITMAP
0C00
1200
0000
0800
0800
1400
1400
2200
2200
7F00
4100
8080
8080
ENDCHAR
STARTCHAR uni0203
ENCODING 515
SWIDTH 556 0
DWIDTH 8 0
BBX 7 10 1 0
BITMAP
30
48
00
78
84
7C
84
84
84
7A
ENDCHAR
STARTCHAR uni0204
ENCODING 516
SWIDTH 666 0
DWIDTH 9 0
BBX 7 13 1 0
BITMAP
48
24
00
FE
80
80
80
FC
80
80
80
80
FE
ENDCHAR
STARTCHAR uni0205
ENCODING 517
SWIDTH 556 0
DWIDTH 8 0
BBX 6 10 1 0
BITMAP
90
48
00
78
84
84
FC
80
84
78
ENDCHAR
STARTCHAR uni0206
ENCODING 518
SWIDTH 666 0
DWIDTH 9 0
BBX 7 13 1 0
BITMAP
18
24
00
FE
80
80
80
FC
80
80
80
80
FE
ENDCHAR
STARTCHAR uni0207
ENCODING 519
SWIDTH 556 0
DWIDTH 8 0
BBX 6 10 1 0
BITMAP
30
48
00
78
84
84
FC
80
84
78
ENDCHAR
STARTCHAR uni0208
ENCODING 520
SWIDTH 277 0
DWIDTH 3 0
BBX 5 13 -1 0
BITMAP
90
48
00
20
20
20
20
20
20
20
20
20
20
ENDCHAR
STARTCHAR uni0209
ENCODING 521
SWIDTH 228 0
DWIDTH 3 0
BBX 5 10 -1 0
BITMAP
90
48
00
20
20
20
20
20
20
20
ENDCHAR
STARTCHAR uni020A
ENCODING 522
SWIDTH 277 0
DWIDTH 3 0
BBX 4 13 0 0
BITMAP
60
90
00
40
40
40
40
40
40
40
40
40
40
ENDCHAR
STARTCHAR uni020B
ENCODING 523
SWIDTH 228 0
DWIDTH 3 0
BBX 4 10 0 0
BITMAP
60
90
00
40
40
40
40
40
40
40
ENDCHAR
STARTCHAR uni020C
ENCODING 524
SWIDTH 777 0
DWIDTH 11 0
BBX 9 13 1 0
BITMAP
2400
1200
0000
3E00
4100
8080
8080
8080
8080
8080
8080
4100
3E00
ENDCHAR
STARTCHAR uni020D
ENCODING 525
SWIDTH 556 0
DWIDTH 8 0
BBX 6 10 1 0
BITMAP
90
48
00
78
84
84
84
84
84
78
ENDCHAR
STARTCHAR uni020E
ENCODING 526
SWIDTH 777 0
DWIDTH 11 0
BBX 9 13 1 0
BITMAP
0C00
1200
0000
3E00
4100
8080
8080
8080
8080
8080
8080
4100
3E00
ENDCHAR
STARTCHAR uni020F
ENCODING 527
SWIDTH 556 0
DWIDTH 8 0
BBX 6 10 1 0
BITMAP
30
48
00
78
84
84
84
84
84
78
ENDCHAR
STARTCHAR uni0210
ENCODING 528
SWIDTH 722 0
DWIDTH 10 0
BBX 9 13 1 0
BITMAP
4800
2400
0000
FC00
8200
8100
8100
8200
FE00
8100
8100
8100
8080
ENDCHAR
STARTCHAR uni0211
ENCODING 529
SWIDTH 333 0
DWIDTH 5 0
BBX 5 10 0 0
BITMAP
90
48
00
58
60
40
40
40
40
40
ENDCHAR
STARTCHAR uni0212
ENCODING 530
SWIDTH 722 0
DWIDTH 10 0
BBX 9 13 1 0
BITMAP
1800
2400
0000
FC00
8200
8100
8100
8200
FE00
8100
8100
8100
8080
ENDCHAR
STARTCHAR uni0213
ENCODING 531
SWIDTH 333 0
DWIDTH 5 0
BBX 4 10 1 0
BITMAP
60
90
00
B0
C0
80
80
80
80
80
ENDCHAR
STARTCHAR uni0214
ENCODING 532
SWIDTH 722 0
DWIDTH 10 0
BBX 8 13 1 0
BITMAP
48
24
00
81
81
81
81
81
81
81
81
42
3C
ENDCHAR
STARTCHAR uni0215
ENCODING 533
SWIDTH 556 0
DWIDTH 8 0
BBX 6 10 1 0
BITMAP
90
48
00
84
84
84
84
84
8C
74
ENDCHAR
STARTCHAR uni0216
ENCODING 534
SWIDTH 722 0
DWIDTH 10 0
BBX 8 13 1 0
BITMAP
18
24
00
81
81
81
81
81
81
81
81
42
3C
ENDCHAR
STARTCHAR uni0217
ENCODING 535
SWIDTH 556 0
DWIDTH 8 0
BBX 6 10 1 0
BITMAP
30
48
00
84
84
84
84
84
8C
74
ENDCHAR
STARTCHAR uni0218
ENCODING 536
SWIDTH 666 0
DWIDTH 9 0
BBX 7 13 1 -3
BITMAP
7C
82
82
80
70
0C
02
82
82
7C
00
10
30
ENDCHAR
STARTCHAR uni0219
ENCODING 537
SWIDTH 500 0
DWIDTH 7 0
BBX 5 10 1 -3
BITMAP
70
88
80
70
08
88
70
00
20
60
ENDCHAR
STARTCHAR uni021A
ENCODING 538
SWIDTH 610 0
DWIDTH 9 0
BBX 9 13 0 -3
BITMAP
FF80
0800
0800
0800
0800
0800
0800
0800
0800
0800
0000
0800
1800
ENDCHAR
STARTCHAR uni021B
ENCODING 539
SWIDTH 277 0
DWIDTH 4 0
BBX 3 12 0 -3
BITMAP
40
40
E0
40
40
40
40
40
20
00
20
60
ENDCHAR
STARTCHAR uni021C
ENCODING 540
SWIDTH 500 0
DWIDTH 7 0
BBX 5 13 1 -3
BITMAP
70
88
08
08
08
10
68
88
08
08
10
60
80
ENDCHAR
STARTCHAR uni021D
ENCODING 541
SWIDTH 431 0
DWIDTH 6 0
BBX 4 10 1 -3
BITMAP
60
90
10
10
70
90
10
10
60
80
ENDCHAR
STARTCHAR uni021E
ENCODING 542
SWIDTH 722 0
DWIDTH 10 0
BBX 8 13 1 0
BITMAP
14
08
00
81
81
81
81
FF
81
81
81
81
81
ENDCHAR
STARTCHAR uni021F
ENCODING 543
SWIDTH 556 0
DWIDTH 8 0
BBX 6 13 1 0
BITMAP
28
10
00
80
80
80
B8
C4
84
84
84
84
84
ENDCHAR
STARTCHAR uni0220
ENCODING 544
SWIDTH 684 0
DWIDTH 10 0
BBX 8 13 1 -3
BITMAP
BC
C2
81
81
81
81
81
81
81
81
01
01
01
ENDCHAR
STARTCHAR uni0221
ENCODING 545
SWIDTH 752 0
DWIDTH 11 0
BBX 10 13 1 -3
BITMAP
0400
0400
0400
3C00
4400
8400
8400
8400
4C00
3400
05C0
0240
05C0
ENDCHAR
STARTCHAR uni0222
ENCODING 546
SWIDTH 582 0
DWIDTH 8 0
BBX 6 10 1 0
BITMAP
08
64
84
84
78
CC
84
84
84
78
ENDCHAR
STARTCHAR uni0223
ENCODING 547
SWIDTH 534 0
DWIDTH 7 0
BBX 5 10 1 0
BITMAP
50
88
88
88
70
88
88
88
88
70
ENDCHAR
STARTCHAR uni0224
ENCODING 548
SWIDTH 610 0
DWIDTH 9 0
BBX 7 12 1 -2
BITMAP
7E
02
04
08
10
10
20
40
80
FC
02
02
ENDCHAR
STARTCHAR uni0225
ENCODING 549
SWIDTH 500 0
DWIDTH 7 0
BBX 5 9 1 -2
BITMAP
F8
08
10
20
40
80
F8
08
08
ENDCHAR
STARTCHAR uni0226
ENCODING 550
SWIDTH 666 0
DWIDTH 9 0
BBX 9 12 0 0
BITMAP
0800
0000
0800
0800
1400
1400
2200
2200
7F00
4100
8080
8080
ENDCHAR
STARTCHAR uni0227
ENCODING 551
SWIDTH 556 0
DWIDTH 8 0
BBX 7 10 1 0
BITMAP
10
00
00
78
84
7C
84
84
84
7A
ENDCHAR
STARTCHAR uni0228
ENCODING 552
SWIDTH 666 0
DWIDTH 9 0
BBX 7 13 1 -3
BITMAP
FE
80
80
80
FC
80
80
80
80
FE
10
08
30
ENDCHAR
STARTCHAR uni0229
ENCODING 553
SWIDTH 556 0
DWIDTH 8 0
BBX 6 10 1 -3
BITMAP
78
84
84
FC
80
84
78
20
10
60
ENDCHAR
STARTCHAR uni022A
ENCODING 554
SWIDTH 777 0
DWIDTH 11 0
BBX 9 14 1 0
BITMAP
1C00
0000
1400
0000
3E00
4100
8080
8080
8080
8080
8080
8080
4100
3E00
ENDCHAR
STARTCHAR uni022B
ENCODING 555
SWIDTH 556 0
DWIDTH 8 0
BBX 6 12 1 0
BITMAP
38
00
28
00
00
78
84
84
84
84
84
78
ENDCHAR
STARTCHAR uni022C
ENCODING 556
SWIDTH 777 0
DWIDTH 11 0
BBX 9 15 1 0
BITMAP
3E00
0000
3A00
2E00
0000
3E00
4100
8080
8080
8080
8080
8080
8080
4100
3E00
ENDCHAR
STARTCHAR uni022D
ENCODING 557
SWIDTH 556 0
DWIDTH 8 0
BBX 6 12 1 0
BITMAP
7C
00
74
4C
00
78
84
84
84
84
84
78
ENDCHAR
STARTCHAR uni022E
ENCODING 558
SWIDTH 777 0
DWIDTH 11 0
BBX 9 12 1 0
BITMAP
0800
0000
3E00
4100
8080
8080
8080
8080
8080
8080
4100
3E00
ENDCHAR
STARTCHAR uni022F
ENCODING 559
SWIDTH 556 0
DWIDTH 8 0
BBX 6 10 1 0
BITMAP
10
00
00
78
84
84
84
84
84
78
ENDCHAR
STARTCHAR uni0230
ENCODING 560
SWIDTH 777 0
DWIDTH 11 0
BBX 9 14 1 0
BITMAP
1E00
0000
0400
0000
3E00
4100
8080
8080
8080
8080
8080
8080
4100
3E00
ENDCHAR
STARTCHAR uni0231
ENCODING 561
SWIDTH 556 0
DWIDTH 8 0
BBX 6 12 1 0
BITMAP
78
00
10
00
00
78
84
84
84
84
84
78
ENDCHAR
STARTCHAR uni0232
ENCODING 562
SWIDTH 666 0
DWIDTH 9 0
BBX 9 12 0 0
BITMAP
1E00
0000
8080
8080
4100
2200
1400
0800
0800
0800
0800
0800
ENDCHAR
STARTCHAR uni0233
ENCODING 563
SWIDTH 500 0
DWIDTH 7 0
BBX 7 13 0 -3
BITMAP
3C
00
00
82
82
44
44
28
28
10
10
20
C0
ENDCHAR
STARTCHAR uni0234
ENCODING 564
SWIDTH 424 0
DWIDTH 6 0
BBX 5 13 1 -3
BITMAP
80
80
80
80
80
80
80
80
80
80
B8
48
B8
ENDCHAR
STARTCHAR uni0235
ENCODING 565
SWIDTH 754 0
DWIDTH 11 0
BBX 10 10 1 -3
BITMAP
B800
C400
8400
8400
8400
8400
8400
05C0
0240
05C0
ENDCHAR
STARTCHAR uni0236
ENCODING 566
SWIDTH 437 0
DWIDTH 6 0
BBX 6 9 0 0
BITMAP
40
40
E0
40
40
40
5C
24
5C
ENDCHAR
STARTCHAR uni0237
ENCODING 567
SWIDTH 228 0
DWIDTH 3 0
BBX 2 10 0 -3
BITMAP
40
40
40
40
40
40
40
40
40
C0
ENDCHAR
STARTCHAR uni0238
ENCODING 568
SWIDTH 883 0
DWIDTH 13 0
BBX 11 10 1 0
BITMAP
0400
0400
0400
75C0
8E20
8420
8420
8420
8E20
75C0
ENDCHAR
STARTCHAR uni0239
ENCODING 569
SWIDTH 883 0
DWIDTH 13 0
BBX 11 10 1 -3
BITMAP
75C0
8E20
8420
8420
8420
8E20
75C0
0400
0400
0400
ENDCHAR
STARTCHAR uni023A
ENCODING 570
SWIDTH 666 0
DWIDTH 9 0
BBX 9 12 0 -1
BITMAP
0080
0900
0A00
1600
1400
2A00
2A00
7F00
6100
A080
C080
8000
ENDCHAR
STARTCHAR uni023B
ENCODING 571
SWIDTH 722 0
DWIDTH 9 0
BBX 9 12 1 -1
BITMAP
0080
3D00
4200
8300
8400
8800
8800
9000
A100
6200
7C00
8000
ENDCHAR
STARTCHAR uni023C
ENCODING 572
SWIDTH 500 0
DWIDTH 7 0
BBX 8 10 0 -1
BITMAP
01
02
3C
46
48
50
60
62
7C
80
ENDCHAR
STARTCHAR uni023D
ENCODING 573
SWIDTH 556 0
DWIDTH 8 0
BBX 8 10 0 0
BITMAP
40
40
40
40
F0
40
40
40
40
7F
ENDCHAR
STARTCHAR uni023E
ENCODING 574
SWIDTH 610 0
DWIDTH 9 0
BBX 9 12 0 -1
BITMAP
0080
FF80
0A00
0A00
0C00
0800
0800
1800
2800
2800
4800
8000
ENDCHAR
STARTCHAR uni023F
ENCODING 575
SWIDTH 500 0
DWIDTH 7 0
BBX 5 10 1 -3
BITMAP
70
88
80
70
08
88
70
20
20
18
ENDCHAR
STARTCHAR uni0240
ENCODING 576
SWIDTH 500 0
DWIDTH 7 0
BBX 5 10 1 -3
BITMAP
F8
08
10
20
40
80
80
40
20
18
ENDCHAR
STARTCHAR uni0241
ENCODING 577
SWIDTH 589 0
DWIDTH 8 0
BBX 6 10 1 0
BITMAP
78
84
04
04
04
04
38
20
20
20
ENDCHAR
STARTCHAR uni0242
ENCODING 578
SWIDTH 500 0
DWIDTH 7 0
BBX 7 7 0 0
BITMAP
7C
86
02
02
1C
10
38
ENDCHAR
STARTCHAR uni0243
ENCODING 579
SWIDTH 666 0
DWIDTH 9 0
BBX 8 10 0 0
BITMAP
7E
41
41
41
7E
41
41
F1
41
7E
ENDCHAR
STARTCHAR uni0244
ENCODING 580
SWIDTH 722 0
DWIDTH 10 0
BBX 10 10 0 0
BITMAP
4080
4080
4080
4080
4080
FFC0
4080
4080
6180
3F00
ENDCHAR
STARTCHAR uni0245
ENCODING 581
SWIDTH 666 0
DWIDTH 9 0
BBX 9 10 0 0
BITMAP
0800
0800
1400
1400
2200
2200
4100
4100
8080
8080
ENDCHAR
STARTCHAR uni0246
ENCODING 582
SWIDTH 666 0
DWIDTH 9 0
BBX 7 13 1 -2
BITMAP
04
FE
84
88
88
FC
90
90
90
90
FE
20
20
ENDCHAR
STARTCHAR uni0247
ENCODING 583
SWIDTH 556 0
DWIDTH 8 0
BBX 6 11 1 -2
BITMAP
08
08
78
94
94
FC
A0
A4
78
40
40
ENDCHAR
STARTCHAR uni0248
ENCODING 584
SWIDTH 500 0
DWIDTH 7 0
BBX 6 10 1 0
BITMAP
08
08
08
08
3C
08
08
88
88
70
ENDCHAR
STARTCHAR uni0249
ENCODING 585
SWIDTH 228 0
DWIDTH 3 0
BBX 3 13 0 -3
BITMAP
40
00
00
40
40
40
40
E0
40
40
40
40
80
ENDCHAR
STARTCHAR uni024A
ENCODING 586
SWIDTH 750 0
DWIDTH 11 0
BBX 11 13 1 -3
BITMAP
1E80
6180
4080
8080
8080
8080
8080
4080
6180
1E80
0080
0080
0060
ENDCHAR
STARTCHAR uni024B
ENCODING 587
SWIDTH 556 0
DWIDTH 8 0
BBX 8 10 1 -3
BITMAP
7C
84
84
84
84
8C
74
04
04
03
ENDCHAR
STARTCHAR uni024C
ENCODING 588
SWIDTH 722 0
DWIDTH 10 0
BBX 10 10 0 0
BITMAP
7E00
4100
4080
4080
4100
FF00
4080
4080
4080
4040
ENDCHAR
STARTCHAR uni024D
ENCODING 589
SWIDTH 333 0
DWIDTH 5 0
BBX 5 7 0 0
BITMAP
58
60
40
40
E0
40
40
ENDCHAR
STARTCHAR uni024E
ENCODING 590
SWIDTH 666 0
DWIDTH 9 0
BBX 9 10 0 0
BITMAP
8080
8080
FF80
2200
1400
0800
0800
0800
0800
0800
ENDCHAR
STARTCHAR uni024F
ENCODING 591
SWIDTH 500 0
DWIDTH 7 0
BBX 7 10 0 -3
BITMAP
82
44
FE
44
28
28
10
10
20
C0
ENDCHAR
STARTCHAR uni0250
ENCODING 592
SWIDTH 556 0
DWIDTH 8 0
BBX 6 7 1 0
BITMAP
B8
C4
84
F8
80
84
78
ENDCHAR
STARTCHAR uni0251
ENCODING 593
SWIDTH 576 0
DWIDTH 8 0
BBX 7 7 1 0
BITMAP
7A
84
84
84
84
84
7A
ENDCHAR
STARTCHAR uni0252
ENCODING 594
SWIDTH 576 0
DWIDTH 8 0
BBX 6 7 1 0
BITMAP
B8
44
44
44
44
44
B8
ENDCHAR
STARTCHAR uni0253
ENCODING 595
SWIDTH 556 0
DWIDTH 8 0
BBX 6 10 1 0
BITMAP
60
80
80
B8
C4
84
84
84
84
F8
ENDCHAR
STARTCHAR uni0254
ENCODING 596
SWIDTH 500 0
DWIDTH 7 0
BBX 5 7 0 0
BITMAP
70
88
08
08
08
88
70
ENDCHAR
STARTCHAR uni0255
ENCODING 597
SWIDTH 500 0
DWIDTH 7 0
BBX 7 7 0 0
BITMAP
1C
22
40
5C
62
62
9C
ENDCHAR
STARTCHAR uni0256
ENCODING 598
SWIDTH 556 0
DWIDTH 8 0
BBX 7 13 1 -3
BITMAP
04
04
04
7C
84
84
84
84
8C
74
04
04
06
ENDCHAR
STARTCHAR uni0257
ENCODING 599
SWIDTH 556 0
DWIDTH 8 0
BBX 8 10 1 0
BITMAP
03
04
04
7C
84
84
84
84
8C
74
ENDCHAR
STARTCHAR uni0258
ENCODING 600
SWIDTH 556 0
DWIDTH 8 0
BBX 6 7 1 0
BITMAP
78
84
84
FC
04
84
78
ENDCHAR
STARTCHAR uni0259
ENCODING 601
SWIDTH 556 0
DWIDTH 8 0
BBX 6 7 1 0
BITMAP
78
84
04
FC
84
84
78
ENDCHAR
STARTCHAR uni025A
ENCODING 602
SWIDTH 731 0
DWIDTH 10 0
BBX 9 7 1 0
BITMAP
7000
8800
0E00
F600
8580
8400
7800
ENDCHAR
STARTCHAR uni025B
ENCODING 603
SWIDTH 500 0
DWIDTH 7 0
BBX 6 7 1 0
BITMAP
78
84
80
70
80
84
78
ENDCHAR
STARTCHAR uni025C
ENCODING 604
SWIDTH 500 0
DWIDTH 7 0
BBX 6 7 0 0
BITMAP
78
84
04
38
04
84
78
ENDCHAR
STARTCHAR uni025D
ENCODING 605
SWIDTH 665 0
DWIDTH 9 0
BBX 9 7 0 0
BITMAP
7800
8600
0580
3800
0400
8400
7800
ENDCHAR
STARTCHAR uni025E
ENCODING 606
SWIDTH 534 0
DWIDTH 7 0
BBX 5 7 1 0
BITMAP
70
88
88
B0
88
88
70
ENDCHAR
STARTCHAR uni025F
ENCODING 607
SWIDTH 297 0
DWIDTH 4 0
BBX 3 10 1 -3
BITMAP
40
40
40
40
40
E0
40
40
40
C0
ENDCHAR
STARTCHAR uni0260
ENCODING 608
SWIDTH 556 0
DWIDTH 8 0
BBX 8 13 1 -3
BITMAP
03
04
04
7C
84
84
84
84
8C
74
04
84
78
ENDCHAR
STARTCHAR uni0261
ENCODING 609
SWIDTH 556 0
DWIDTH 8 0
BBX 6 10 1 -3
BITMAP
74
8C
84
84
84
8C
74
04
04
78
ENDCHAR
STARTCHAR uni0262
ENCODING 610
SWIDTH 584 0
DWIDTH 8 0
BBX 6 7 1 0
BITMAP
38
44
80
9C
84
44
3C
ENDCHAR
STARTCHAR uni0263
ENCODING 611
SWIDTH 500 0
DWIDTH 7 0
BBX 7 10 0 -3
BITMAP
82
44
44
28
28
10
10
28
28
38
ENDCHAR
STARTCHAR uni0264
ENCODING 612
SWIDTH 609 0
DWIDTH 9 0
BBX 9 7 0 0
BITMAP
6300
9480
0800
0800
1800
1400
1C00
ENDCHAR
STARTCHAR uni0265
ENCODING 613
SWIDTH 556 0
DWIDTH 8 0
BBX 6 10 1 -3
BITMAP
84
84
84
84
84
8C
74
04
04
04
ENDCHAR
STARTCHAR uni0266
ENCODING 614
SWIDTH 556 0
DWIDTH 8 0
BBX 6 10 1 0
BITMAP
60
80
80
B8
C4
84
84
84
84
84
ENDCHAR
STARTCHAR uni0267
ENCODING 615
SWIDTH 556 0
DWIDTH 8 0
BBX 6 13 1 -3
BITMAP
60
80
80
B8
C4
84
84
84
84
84
04
04
0C
ENDCHAR
STARTCHAR uni0268
ENCODING 616
SWIDTH 228 0
DWIDTH 3 0
BBX 3 9 0 0
BITMAP
40
00
40
40
E0
40
40
40
40
ENDCHAR
STARTCHAR uni0269
ENCODING 617
SWIDTH 240 0
DWIDTH 3 0
BBX 2 7 1 0
BITMAP
80
80
80
80
80
80
40
ENDCHAR
STARTCHAR uni026A
ENCODING 618
SWIDTH 228 0
DWIDTH 3 0
BBX 1 7 1 0
BITMAP
80
80
80
80
80
80
80
ENDCHAR
STARTCHAR uni026B
ENCODING 619
SWIDTH 327 0
DWIDTH 5 0
BBX 5 10 0 0
BITMAP
20
20
20
20
68
B0
20
20
20
20
ENDCHAR
STARTCHAR uni026C
ENCODING 620
SWIDTH 288 0
DWIDTH 4 0
BBX 4 10 0 0
BITMAP
20
20
20
60
A0
70
20
20
20
20
ENDCHAR
STARTCHAR uni026D
ENCODING 621
SWIDTH 228 0
DWIDTH 3 0
BBX 2 13 1 -3
BITMAP
80
80
80
80
80
80
80
80
80
80
80
80
C0
ENDCHAR
STARTCHAR uni026E
ENCODING 622
SWIDTH 565 0
DWIDTH 8 0
BBX 6 13 1 -3
BITMAP
80
80
80
FC
88
90
B0
88
84
84
04
44
38
ENDCHAR
STARTCHAR uni026F
ENCODING 623
SWIDTH 833 0
DWIDTH 12 0
BBX 10 7 1 0
BITMAP
8440
8440
8440
8440
8440
8CC0
7340
ENDCHAR
STARTCHAR uni0270
ENCODING 624
SWIDTH 833 0
DWIDTH 12 0
BBX 10 10 1 -3
BITMAP
8440
8440
8440
8440
8440
8CC0
7340
0040
0040
0040
ENDCHAR
STARTCHAR uni0271
ENCODING 625
SWIDTH 833 0
DWIDTH 12 0
BBX 10 10 1 -3
BITMAP
B980
C640
8440
8440
8440
8440
8440
0040
0040
00C0
ENDCHAR
STARTCHAR uni0272
ENCODING 626
SWIDTH 556 0
DWIDTH 8 0
BBX 7 10 0 -3
BITMAP
5C
62
42
42
42
42
42
40
40
C0
ENDCHAR
STARTCHAR uni0273
ENCODING 627
SWIDTH 556 0
DWIDTH 8 0
BBX 7 10 1 -3
BITMAP
B8
C4
84
84
84
84
84
04
04
06
ENDCHAR
STARTCHAR uni0274
ENCODING 628
SWIDTH 541 0
DWIDTH 8 0
BBX 6 7 1 0
BITMAP
84
C4
A4
94
94
8C
84
ENDCHAR
STARTCHAR uni0275
ENCODING 629
SWIDTH 556 0
DWIDTH 8 0
BBX 6 7 1 0
BITMAP
78
84
84
FC
84
84
78
ENDCHAR
STARTCHAR uni0276
ENCODING 630
SWIDTH 721 0
DWIDTH 10 0
BBX 8 7 1 0
BITMAP
37
4C
84
87
84
4C
37
ENDCHAR
STARTCHAR uni0277
ENCODING 631
SWIDTH 689 0
DWIDTH 10 0
BBX 8 7 1 0
BITMAP
3C
42
81
89
89
89
76
ENDCHAR
STARTCHAR uni0278
ENCODING 632
SWIDTH 556 0
DWIDTH 8 0
BBX 5 13 1 -3
BITMAP
20
20
20
70
A8
A8
A8
A8
A8
70
20
20
20
ENDCHAR
STARTCHAR uni0279
ENCODING 633
SWIDTH 333 0
DWIDTH 5 0
BBX 3 7 1 0
BITMAP
20
20
20
20
20
20
E0
ENDCHAR
STARTCHAR uni027A
ENCODING 634
SWIDTH 333 0
DWIDTH 5 0
BBX 3 10 1 0
BITMAP
20
20
20
20
20
20
20
20
20
E0
ENDCHAR
STARTCHAR uni027B
ENCODING 635
SWIDTH 333 0
DWIDTH 5 0
BBX 4 10 1 -3
BITMAP
20
20
20
20
20
20
E0
20
20
30
ENDCHAR
STARTCHAR uni027C
ENCODING 636
SWIDTH 333 0
DWIDTH 5 0
BBX 4 10 1 -3
BITMAP
B0
C0
80
80
80
80
80
80
80
80
ENDCHAR
STARTCHAR uni027D
ENCODING 637
SWIDTH 333 0
DWIDTH 5 0
BBX 4 10 1 -3
BITMAP
B0
C0
80
80
80
80
80
80
80
C0
ENDCHAR
STARTCHAR uni027E
ENCODING 638
SWIDTH 277 0
DWIDTH 4 0
BBX 3 7 1 0
BITMAP
60
80
80
80
80
80
80
ENDCHAR
STARTCHAR uni027F
ENCODING 639
SWIDTH 277 0
DWIDTH 4 0
BBX 3 10 0 -3
BITMAP
C0
20
20
20
20
20
20
20
20
20
ENDCHAR
STARTCHAR uni0280
ENCODING 640
SWIDTH 534 0
DWIDTH 7 0
BBX 5 7 1 0
BITMAP
F0
88
88
F0
90
90
88
ENDCHAR
STARTCHAR uni0281
ENCODING 641
SWIDTH 534 0
DWIDTH 7 0
BBX 5 7 1 0
BITMAP
88
90
90
F0
88
88
F0
ENDCHAR
STARTCHAR uni0282
ENCODING 642
SWIDTH 500 0
DWIDTH 7 0
BBX 5 10 1 -3
BITMAP
70
88
80
70
08
88
F0
80
80
C0
ENDCHAR
STARTCHAR uni0283
ENCODING 643
SWIDTH 273 0
DWIDTH 5 0
BBX 5 13 0 -3
BITMAP
18
20
20
20
20
20
20
20
20
20
20
20
C0
ENDCHAR
STARTCHAR uni0284
ENCODING 644
SWIDTH 297 0
DWIDTH 4 0
BBX 4 13 1 -3
BITMAP
30
40
40
40
40
40
40
40
E0
40
40
40
C0
ENDCHAR
STARTCHAR uni0285
ENCODING 645
SWIDTH 273 0
DWIDTH 4 0
BBX 5 10 0 -3
BITMAP
C0
20
20
20
20
20
20
20
20
18
ENDCHAR
STARTCHAR uni0286
ENCODING 646
SWIDTH 449 0
DWIDTH 6 0
BBX 7 13 0 -3
BITMAP
06
08
08
08
08
08
08
08
08
08
E8
90
E8
ENDCHAR
STARTCHAR uni0287
ENCODING 647
SWIDTH 277 0
DWIDTH 4 0
BBX 3 9 1 0
BITMAP
C0
40
40
40
40
40
E0
40
40
ENDCHAR
STARTCHAR uni0288
ENCODING 648
SWIDTH 277 0
DWIDTH 4 0
BBX 3 12 0 -3
BITMAP
40
40
E0
40
40
40
40
40
40
40
40
60
ENDCHAR
STARTCHAR uni0289
ENCODING 649
SWIDTH 556 0
DWIDTH 8 0
BBX 8 7 0 0
BITMAP
42
42
FF
42
42
46
3A
ENDCHAR
STARTCHAR uni028A
ENCODING 650
SWIDTH 596 0
DWIDTH 8 0
BBX 6 7 1 0
BITMAP
CC
48
84
84
84
48
30
ENDCHAR
STARTCHAR uni028B
ENCODING 651
SWIDTH 528 0
DWIDTH 7 0
BBX 5 7 1 0
BITMAP
B0
88
88
88
88
90
60
ENDCHAR
STARTCHAR uni028C
ENCODING 652
SWIDTH 500 0
DWIDTH 7 0
BBX 7 7 0 0
BITMAP
10
10
28
28
44
44
82
ENDCHAR
STARTCHAR uni028D
ENCODING 653
SWIDTH 722 0
DWIDTH 10 0
BBX 9 7 1 0
BITMAP
2200
2200
5500
5500
5500
8880
8880
ENDCHAR
STARTCHAR uni028E
ENCODING 654
SWIDTH 500 0
DWIDTH 7 0
BBX 7 10 0 0
BITMAP
04
08
10
10
28
28
28
44
44
82
ENDCHAR
STARTCHAR uni028F
ENCODING 655
SWIDTH 475 0
DWIDTH 7 0
BBX 7 7 0 0
BITMAP
82
44
28
10
10
10
10
ENDCHAR
STARTCHAR uni0290
ENCODING 656
SWIDTH 500 0
DWIDTH 7 0
BBX 6 10 1 -3
BITMAP
F8
08
10
20
40
80
F8
08
08
0C
ENDCHAR
STARTCHAR uni0291
ENCODING 657
SWIDTH 553 0
DWIDTH 8 0
BBX 7 8 1 -1
BITMAP
FC
08
10
20
4E
92
FE
20
ENDCHAR
STARTCHAR uni0292
ENCODING 658
SWIDTH 471 0
DWIDTH 7 0
BBX 4 10 1 -3
BITMAP
F0
30
20
60
30
10
10
10
A0
E0
ENDCHAR
STARTCHAR uni0293
ENCODING 659
SWIDTH 471 0
DWIDTH 7 0
BBX 5 10 0 -3
BITMAP
F8
10
30
20
10
08
08
E8
90
78
ENDCHAR
STARTCHAR uni0294
ENCODING 660
SWIDTH 500 0
DWIDTH 7 0
BBX 5 10 1 0
BITMAP
70
88
08
08
08
08
30
20
20
20
ENDCHAR
STARTCHAR uni0295
ENCODING 661
SWIDTH 500 0
DWIDTH 7 0
BBX 6 10 1 0
BITMAP
38
44
80
80
80
40
30
10
10
10
ENDCHAR
STARTCHAR uni0296
ENCODING 662
SWIDTH 500 0
DWIDTH 7 0
BBX 5 10 1 0
BITMAP
20
20
20
30
08
08
08
08
88
70
ENDCHAR
STARTCHAR uni0297
ENCODING 663
SWIDTH 500 0
DWIDTH 7 0
BBX 6 10 1 -3
BITMAP
38
44
80
80
80
80
80
80
44
38
ENDCHAR
STARTCHAR uni0298
ENCODING 664
SWIDTH 777 0
DWIDTH 11 0
BBX 9 10 1 0
BITMAP
3E00
4100
4100
8080
8C80
8C80
8080
4100
4100
3E00
ENDCHAR
STARTCHAR uni0299
ENCODING 665
SWIDTH 530 0
DWIDTH 7 0
BBX 5 7 1 0
BITMAP
F0
88
88
F0
88
88
F0
ENDCHAR
STARTCHAR uni029A
ENCODING 666
SWIDTH 534 0
DWIDTH 7 0
BBX 5 7 1 0
BITMAP
70
88
88
68
88
88
70
ENDCHAR
STARTCHAR uni029B
ENCODING 667
SWIDTH 584 0
DWIDTH 8 0
BBX 8 8 1 0
BITMAP
07
7C
84
80
9C
84
84
7C
ENDCHAR
STARTCHAR uni029C
ENCODING 668
SWIDTH 556 0
DWIDTH 8 0
BBX 6 7 1 0
BITMAP
84
84
84
FC
84
84
84
ENDCHAR
STARTCHAR uni029D
ENCODING 669
SWIDTH 374 0
DWIDTH 5 0
BBX 5 13 0 -3
BITMAP
10
00
00
10
10
10
10
10
10
10
F8
90
F0
ENDCHAR
STARTCHAR uni029E
ENCODING 670
SWIDTH 500 0
DWIDTH 7 0
BBX 6 10 0 -3
BITMAP
84
44
24
1C
14
24
C4
04
04
04
ENDCHAR
STARTCHAR uni029F
ENCODING 671
SWIDTH 423 0
DWIDTH 6 0
BBX 4 7 1 0
BITMAP
80
80
80
80
80
80
F0
ENDCHAR
STARTCHAR uni02A0
ENCODING 672
SWIDTH 556 0
DWIDTH 8 0
BBX 8 13 1 -3
BITMAP
03
04
04
7C
84
84
84
84
8C
74
04
04
04
ENDCHAR
STARTCHAR uni02A1
ENCODING 673
SWIDTH 500 0
DWIDTH 7 0
BBX 5 10 1 0
BITMAP
70
88
08
08
08
08
30
20
70
20
ENDCHAR
STARTCHAR uni02A2
ENCODING 674
SWIDTH 500 0
DWIDTH 7 0
BBX 6 10 1 0
BITMAP
38
44
80
80
80
40
30
10
38
10
ENDCHAR
STARTCHAR uni02A3
ENCODING 675
SWIDTH 944 0
DWIDTH 13 0
BBX 11 10 1 0
BITMAP
0800
0800
0800
7FE0
8840
8880
8900
8A00
9C00
6FE0
ENDCHAR
STARTCHAR uni02A4
ENCODING 676
SWIDTH 886 0
DWIDTH 12 0
BBX 10 13 1 -3
BITMAP
0800
0800
0800
7FC0
8880
8900
8B00
8880
9840
7840
0040
0880
0700
ENDCHAR
STARTCHAR uni02A5
ENCODING 677
SWIDTH 998 0
DWIDTH 14 0
BBX 12 11 1 -1
BITMAP
0400
0400
0400
7FE0
8420
8440
8480
8530
8E50
77F0
0080
ENDCHAR
STARTCHAR uni02A6
ENCODING 678
SWIDTH 713 0
DWIDTH 10 0
BBX 9 9 0 0
BITMAP
4000
4000
FF00
5080
5800
4700
4080
4080
7F00
ENDCHAR
STARTCHAR uni02A7
ENCODING 679
SWIDTH 446 0
DWIDTH 6 0
BBX 6 13 0 -3
BITMAP
0C
50
50
F0
50
50
50
50
50
70
10
10
60
ENDCHAR
STARTCHAR uni02A8
ENCODING 680
SWIDTH 755 0
DWIDTH 11 0
BBX 11 9 0 0
BITMAP
4000
4000
E7C0
4820
5000
53C0
5420
4820
77C0
ENDCHAR
STARTCHAR uni02A9
ENCODING 681
SWIDTH 762 0
DWIDTH 11 0
BBX 10 13 0 -3
BITMAP
3000
4000
4000
FB80
4C40
4840
4840
4840
4840
4840
0040
0040
00C0
ENDCHAR
STARTCHAR uni02AA
ENCODING 682
SWIDTH 675 0
DWIDTH 9 0
BBX 7 10 1 0
BITMAP
80
80
80
9C
A2
A0
9C
82
C2
BC
ENDCHAR
STARTCHAR uni02AB
ENCODING 683
SWIDTH 617 0
DWIDTH 9 0
BBX 7 10 1 0
BITMAP
80
80
80
FE
84
88
90
A0
C0
FE
ENDCHAR
STARTCHAR uni02AC
ENCODING 684
SWIDTH 485 0
DWIDTH 7 0
BBX 5 10 1 0
BITMAP
A8
A8
A8
D8
50
A8
A8
A8
D8
50
ENDCHAR
STARTCHAR uni02AD
ENCODING 685
SWIDTH 563 0
DWIDTH 8 0
BBX 6 10 1 0
BITMAP
FC
84
84
00
00
00
00
FC
84
84
ENDCHAR
STARTCHAR uni02AE
ENCODING 686
SWIDTH 616 0
DWIDTH 9 0
BBX 8 10 0 -3
BITMAP
C1
21
21
21
21
23
1D
01
01
01
ENDCHAR
STARTCHAR uni02AF
ENCODING 687
SWIDTH 656 0
DWIDTH 9 0
BBX 8 10 0 -3
BITMAP
C2
22
22
22
22
26
1A
02
02
03
ENDCHAR
STARTCHAR uni02B0
ENCODING 688
SWIDTH 370 0
DWIDTH 5 0
BBX 3 7 1 3
BITMAP
80
80
E0
A0
A0
A0
A0
ENDCHAR
STARTCHAR uni02B1
ENCODING 689
SWIDTH 370 0
DWIDTH 5 0
BBX 3 7 1 3
BITMAP
C0
80
E0
A0
A0
A0
A0
ENDCHAR
STARTCHAR uni02B2
ENCODING 690
SWIDTH 179 0
DWIDTH 3 0
BBX 2 9 0 1
BITMAP
40
00
40
40
40
40
40
40
C0
ENDCHAR
STARTCHAR uni02B3
ENCODING 691
SWIDTH 229 0
DWIDTH 3 0
BBX 3 5 0 3
BITMAP
E0
80
80
80
80
ENDCHAR
STARTCHAR uni02B4
ENCODING 692
SWIDTH 229 0
DWIDTH 3 0
BBX 3 5 0 3
BITMAP
20
20
20
20
E0
ENDCHAR
STARTCHAR uni02B5
ENCODING 693
SWIDTH 229 0
DWIDTH 3 0
BBX 4 7 0 1
BITMAP
20
20
20
20
E0
20
30
ENDCHAR
STARTCHAR uni02B6
ENCODING 694
SWIDTH 357 0
DWIDTH 5 0
BBX 3 5 1 3
BITMAP
A0
A0
C0
A0
E0
ENDCHAR
STARTCHAR uni02B7
ENCODING 695
SWIDTH 486 0
DWIDTH 7 0
BBX 7 5 0 3
BITMAP
92
AA
AA
44
44
ENDCHAR
STARTCHAR uni02B8
ENCODING 696
SWIDTH 327 0
DWIDTH 5 0
BBX 5 7 0 1
BITMAP
88
50
50
50
20
20
C0
ENDCHAR
STARTCHAR uni02B9
ENCODING 697
SWIDTH 333 0
DWIDTH 5 0
BBX 2 3 2 7
BITMAP
40
80
80
ENDCHAR
STARTCHAR uni02BA
ENCODING 698
SWIDTH 333 0
DWIDTH 5 0
BBX 4 3 1 7
BITMAP
50
A0
A0
ENDCHAR
STARTCHAR uni02BB
ENCODING 699
SWIDTH 222 0
DWIDTH 3 0
BBX 2 3 1 7
BITMAP
40
80
80
ENDCHAR
STARTCHAR uni02BC
ENCODING 700
SWIDTH 222 0
DWIDTH 3 0
BBX 2 3 0 7
BITMAP
40
40
80
ENDCHAR
STARTCHAR uni02BD
ENCODING 701
SWIDTH 222 0
DWIDTH 3 0
BBX 2 3 1 7
BITMAP
80
80
40
ENDCHAR
STARTCHAR uni02BE
ENCODING 702
SWIDTH 333 0
DWIDTH 5 0
BBX 2 3 1 8
BITMAP
80
40
80
ENDCHAR
STARTCHAR uni02BF
ENCODING 703
SWIDTH 333 0
DWIDTH 5 0
BBX 2 3 2 8
BITMAP
40
80
40
ENDCHAR
STARTCHAR uni02C0
ENCODING 704
SWIDTH 390 0
DWIDTH 5 0
BBX 3 7 1 3
BITMAP
C0
A0
20
20
40
40
40
ENDCHAR
STARTCHAR uni02C1
ENCODING 705
SWIDTH 390 0
DWIDTH 5 0
BBX 3 7 1 3
BITMAP
60
A0
80
80
40
40
40
ENDCHAR
STARTCHAR uni02C2
ENCODING 706
SWIDTH 583 0
DWIDTH 8 0
BBX 7 7 1 2
BITMAP
02
1C
60
80
60
1C
02
ENDCHAR
STARTCHAR uni02C3
ENCODING 707
SWIDTH 583 0
DWIDTH 8 0
BBX 7 7 0 2
BITMAP
80
70
0C
02
0C
70
80
ENDCHAR
STARTCHAR uni02C4
ENCODING 708
SWIDTH 583 0
DWIDTH 8 0
BBX 7 7 1 2
BITMAP
10
28
28
44
44
44
82
ENDCHAR
STARTCHAR uni02C5
ENCODING 709
SWIDTH 583 0
DWIDTH 8 0
BBX 7 7 1 2
BITMAP
82
44
44
44
28
28
10
ENDCHAR
STARTCHAR circumflex
ENCODING 710
SWIDTH 333 0
DWIDTH 5 0
BBX 3 2 1 8
BITMAP
40
A0
ENDCHAR
STARTCHAR caron
ENCODING 711
SWIDTH 333 0
DWIDTH 5 0
BBX 3 2 1 8
BITMAP
A0
40
ENDCHAR
STARTCHAR uni02C8
ENCODING 712
SWIDTH 333 0
DWIDTH 5 0
BBX 1 3 2 8
BITMAP
80
80
80
ENDCHAR
STARTCHAR uni02C9
ENCODING 713
SWIDTH 333 0
DWIDTH 5 0
BBX 4 1 0 9
BITMAP
F0
ENDCHAR
STARTCHAR uni02CA
ENCODING 714
SWIDTH 333 0
DWIDTH 5 0
BBX 2 2 2 8
BITMAP
40
80
ENDCHAR
STARTCHAR uni02CB
ENCODING 715
SWIDTH 333 0
DWIDTH 5 0
BBX 2 2 1 8
BITMAP
80
40
ENDCHAR
STARTCHAR uni02CC
ENCODING 716
SWIDTH 333 0
DWIDTH 5 0
BBX 1 3 2 -3
BITMAP
80
80
80
ENDCHAR
STARTCHAR uni02CD
ENCODING 717
SWIDTH 333 0
DWIDTH 5 0
BBX 4 1 0 -3
BITMAP
F0
ENDCHAR
STARTCHAR uni02CE
ENCODING 718
SWIDTH 333 0
DWIDTH 5 0
BBX 2 2 1 -3
BITMAP
80
40
ENDCHAR
STARTCHAR uni02CF
ENCODING 719
SWIDTH 333 0
DWIDTH 5 0
BBX 2 2 2 -3
BITMAP
40
80
ENDCHAR
STARTCHAR uni02D0
ENCODING 720
SWIDTH 277 0
DWIDTH 4 0
BBX 1 7 1 0
BITMAP
80
00
00
00
00
00
80
ENDCHAR
STARTCHAR uni02D1
ENCODING 721
SWIDTH 277 0
DWIDTH 4 0
BBX 1 1 1 4
BITMAP
80
ENDCHAR
STARTCHAR uni02D2
ENCODING 722
SWIDTH 333 0
DWIDTH 5 0
BBX 2 3 1 2
BITMAP
80
40
80
ENDCHAR
STARTCHAR uni02D3
ENCODING 723
SWIDTH 333 0
DWIDTH 5 0
BBX 2 3 2 2
BITMAP
40
80
40
ENDCHAR
STARTCHAR uni02D4
ENCODING 724
SWIDTH 333 0
DWIDTH 5 0
BBX 3 3 1 1
BITMAP
40
40
E0
ENDCHAR
STARTCHAR uni02D5
ENCODING 725
SWIDTH 333 0
DWIDTH 5 0
BBX 3 3 1 1
BITMAP
E0
40
40
ENDCHAR
STARTCHAR uni02D6
ENCODING 726
SWIDTH 333 0
DWIDTH 5 0
BBX 3 3 1 1
BITMAP
40
E0
40
ENDCHAR
STARTCHAR uni02D7
ENCODING 727
SWIDTH 333 0
DWIDTH 5 0
BBX 4 1 0 2
BITMAP
F0
ENDCHAR
STARTCHAR breve
ENCODING 728
SWIDTH 333 0
DWIDTH 5 0
BBX 4 2 0 8
BITMAP
90
60
ENDCHAR
STARTCHAR dotaccent
ENCODING 729
SWIDTH 333 0
DWIDTH 5 0
BBX 1 1 2 9
BITMAP
80
ENDCHAR
STARTCHAR ring
ENCODING 730
SWIDTH 333 0
DWIDTH 5 0
BBX 3 3 1 8
BITMAP
40
A0
40
ENDCHAR
STARTCHAR ogonek
ENCODING 731
SWIDTH 333 0
DWIDTH 5 0
BBX 3 3 1 -3
BITMAP
40
80
60
ENDCHAR
STARTCHAR tilde
ENCODING 732
SWIDTH 333 0
DWIDTH 5 0
BBX 5 2 0 8
BITMAP
68
B0
ENDCHAR
STARTCHAR hungarumlaut
ENCODING 733
SWIDTH 434 0
DWIDTH 6 0
BBX 5 2 1 8
BITMAP
48
90
ENDCHAR
STARTCHAR uni02DE
ENCODING 734
SWIDTH 333 0
DWIDTH 5 0
BBX 4 3 0 3
BITMAP
40
C0
30
ENDCHAR
STARTCHAR uni02DF
ENCODING 735
SWIDTH 381 0
DWIDTH 5 0
BBX 5 5 0 5
BITMAP
88
50
20
50
88
ENDCHAR
STARTCHAR uni02E0
ENCODING 736
SWIDTH 327 0
DWIDTH 5 0
BBX 5 7 0 1
BITMAP
88
50
50
20
20
50
70
ENDCHAR
STARTCHAR uni02E1
ENCODING 737
SWIDTH 149 0
DWIDTH 2 0
BBX 1 7 1 3
BITMAP
80
80
80
80
80
80
80
ENDCHAR
STARTCHAR uni02E2
ENCODING 738
SWIDTH 376 0
DWIDTH 5 0
BBX 3 5 1 3
BITMAP
E0
80
60
20
E0
ENDCHAR
STARTCHAR uni02E3
ENCODING 739
SWIDTH 335 0
DWIDTH 5 0
BBX 5 5 0 3
BITMAP
88
50
20
50
88
ENDCHAR
STARTCHAR uni02E4
ENCODING 740
SWIDTH 390 0
DWIDTH 5 0
BBX 3 7 1 3
BITMAP
60
A0
80
80
40
40
40
ENDCHAR
STARTCHAR uni02E5
ENCODING 741
SWIDTH 382 0
DWIDTH 5 0
BBX 3 10 1 0
BITMAP
E0
20
20
20
20
20
20
20
20
20
ENDCHAR
STARTCHAR uni02E6
ENCODING 742
SWIDTH 382 0
DWIDTH 5 0
BBX 3 10 1 0
BITMAP
20
20
E0
20
20
20
20
20
20
20
ENDCHAR
STARTCHAR uni02E7
ENCODING 743
SWIDTH 382 0
DWIDTH 5 0
BBX 3 10 1 0
BITMAP
20
20
20
20
20
E0
20
20
20
20
ENDCHAR
STARTCHAR uni02E8
ENCODING 744
SWIDTH 382 0
DWIDTH 5 0
BBX 3 10 1 0
BITMAP
20
20
20
20
20
20
20
E0
20
20
ENDCHAR
STARTCHAR uni02E9
ENCODING 745
SWIDTH 382 0
DWIDTH 5 0
BBX 3 10 1 0
BITMAP
20
20
20
20
20
20
20
20
20
E0
ENDCHAR
STARTCHAR uni02EA
ENCODING 746
SWIDTH 333 0
DWIDTH 5 0
BBX 3 6 1 0
BITMAP
80
80
80
80
80
E0
ENDCHAR
STARTCHAR uni02EB
ENCODING 747
SWIDTH 333 0
DWIDTH 5 0
BBX 3 6 1 0
BITMAP
80
80
E0
80
80
80
ENDCHAR
STARTCHAR uni02EC
ENCODING 748
SWIDTH 333 0
DWIDTH 5 0
BBX 3 2 1 -3
BITMAP
A0
40
ENDCHAR
STARTCHAR uni02ED
ENCODING 749
SWIDTH 333 0
DWIDTH 5 0
BBX 4 3 0 7
BITMAP
F0
00
F0
ENDCHAR
STARTCHAR uni02EE
ENCODING 750
SWIDTH 333 0
DWIDTH 5 0
BBX 4 3 0 7
BITMAP
50
50
A0
ENDCHAR
STARTCHAR uni02EF
ENCODING 751
SWIDTH 333 0
DWIDTH 5 0
BBX 3 2 1 -2
BITMAP
A0
40
ENDCHAR
STARTCHAR uni02F0
ENCODING 752
SWIDTH 333 0
DWIDTH 5 0
BBX 3 2 1 -2
BITMAP
40
A0
ENDCHAR
STARTCHAR uni02F1
ENCODING 753
SWIDTH 333 0
DWIDTH 5 0
BBX 2 3 1 -3
BITMAP
40
80
40
ENDCHAR
STARTCHAR uni02F2
ENCODING 754
SWIDTH 333 0
DWIDTH 5 0
BBX 2 3 2 -3
BITMAP
80
40
80
ENDCHAR
STARTCHAR uni02F3
ENCODING 755
SWIDTH 333 0
DWIDTH 5 0
BBX 3 3 1 -3
BITMAP
E0
A0
E0
ENDCHAR
STARTCHAR uni02F4
ENCODING 756
SWIDTH 333 0
DWIDTH 5 0
BBX 2 2 1 2
BITMAP
80
40
ENDCHAR
STARTCHAR uni02F5
ENCODING 757
SWIDTH 434 0
DWIDTH 6 0
BBX 4 2 1 2
BITMAP
A0
50
ENDCHAR
STARTCHAR uni02F6
ENCODING 758
SWIDTH 434 0
DWIDTH 6 0
BBX 4 2 2 2
BITMAP
50
A0
ENDCHAR
STARTCHAR uni02F7
ENCODING 759
SWIDTH 333 0
DWIDTH 5 0
BBX 5 2 0 -3
BITMAP
48
B0
ENDCHAR
STARTCHAR uni02F8
ENCODING 760
SWIDTH 277 0
DWIDTH 4 0
BBX 1 6 1 4
BITMAP
80
00
00
00
00
80
ENDCHAR
STARTCHAR uni02F9
ENCODING 761
SWIDTH 333 0
DWIDTH 5 0
BBX 3 3 1 7
BITMAP
E0
80
80
ENDCHAR
STARTCHAR uni02FA
ENCODING 762
SWIDTH 333 0
DWIDTH 5 0
BBX 3 3 1 7
BITMAP
E0
20
20
ENDCHAR
STARTCHAR uni02FB
ENCODING 763
SWIDTH 333 0
DWIDTH 5 0
BBX 3 3 1 0
BITMAP
80
80
E0
ENDCHAR
STARTCHAR uni02FC
ENCODING 764
SWIDTH 333 0
DWIDTH 5 0
BBX 3 3 1 0
BITMAP
20
20
E0
ENDCHAR
STARTCHAR uni02FD
ENCODING 765
SWIDTH 397 0
DWIDTH 6 0
BBX 5 3 0 -3
BITMAP
88
88
F8
ENDCHAR
STARTCHAR uni02FE
ENCODING 766
SWIDTH 397 0
DWIDTH 6 0
BBX 5 3 0 -3
BITMAP
80
80
F8
ENDCHAR
STARTCHAR uni02FF
ENCODING 767
SWIDTH 333 0
DWIDTH 5 0
BBX 4 5 0 -3
BITMAP
40
80
F0
80
40
ENDCHAR
STARTCHAR gravecomb
ENCODING 768
SWIDTH 0 0
DWIDTH 0 0
BBX 2 2 1 8
BITMAP
80
40
ENDCHAR
STARTCHAR acutecomb
ENCODING 769
SWIDTH 0 0
DWIDTH 0 0
BBX 2 2 2 8
BITMAP
40
80
ENDCHAR
STARTCHAR uni0302
ENCODING 770
SWIDTH 0 0
DWIDTH 0 0
BBX 3 2 -1 8
BITMAP
40
A0
ENDCHAR
STARTCHAR tildecomb
ENCODING 771
SWIDTH 0 0
DWIDTH 0 0
BBX 5 2 -2 8
BITMAP
68
B0
ENDCHAR
STARTCHAR uni0304
ENCODING 772
SWIDTH 0 0
DWIDTH 0 0
BBX 4 1 -2 9
BITMAP
F0
ENDCHAR
STARTCHAR uni0305
ENCODING 773
SWIDTH 0 0
DWIDTH 0 0
BBX 7 1 -4 11
BITMAP
FE
ENDCHAR
STARTCHAR uni0306
ENCODING 774
SWIDTH 0 0
DWIDTH 0 0
BBX 4 2 -2 8
BITMAP
90
60
ENDCHAR
STARTCHAR uni0307
ENCODING 775
SWIDTH 0 0
DWIDTH 0 0
BBX 1 1 -1 9
BITMAP
80
ENDCHAR
STARTCHAR uni0308
ENCODING 776
SWIDTH 0 0
DWIDTH 0 0
BBX 3 1 -2 9
BITMAP
A0
ENDCHAR
STARTCHAR hookabovecomb
ENCODING 777
SWIDTH 0 0
DWIDTH 0 0
BBX 2 2 1 8
BITMAP
C0
40
ENDCHAR
STARTCHAR uni030A
ENCODING 778
SWIDTH 0 0
DWIDTH 0 0
BBX 3 3 -1 8
BITMAP
E0
A0
E0
ENDCHAR
STARTCHAR uni030B
ENCODING 779
SWIDTH 0 0
DWIDTH 0 0
BBX 5 2 -2 8
BITMAP
48
90
ENDCHAR
STARTCHAR uni030C
ENCODING 780
SWIDTH 0 0
DWIDTH 0 0
BBX 3 2 -1 8
BITMAP
A0
40
ENDCHAR
STARTCHAR uni030D
ENCODING 781
SWIDTH 0 0
DWIDTH 0 0
BBX 1 3 0 8
BITMAP
80
80
80
ENDCHAR
STARTCHAR uni030E
ENCODING 782
SWIDTH 0 0
DWIDTH 0 0
BBX 3 3 -1 8
BITMAP
A0
A0
A0
ENDCHAR
STARTCHAR uni030F
ENCODING 783
SWIDTH 0 0
DWIDTH 0 0
BBX 5 2 -3 8
BITMAP
90
48
ENDCHAR
STARTCHAR uni0310
ENCODING 784
SWIDTH 0 0
DWIDTH 0 0
BBX 4 4 -2 8
BITMAP
40
00
90
60
ENDCHAR
STARTCHAR uni0311
ENCODING 785
SWIDTH 0 0
DWIDTH 0 0
BBX 4 2 -2 8
BITMAP
60
90
ENDCHAR
STARTCHAR uni0312
ENCODING 786
SWIDTH 0 0
DWIDTH 0 0
BBX 1 2 0 8
BITMAP
80
80
ENDCHAR
STARTCHAR uni0313
ENCODING 787
SWIDTH 0 0
DWIDTH 0 0
BBX 1 2 -1 8
BITMAP
80
80
ENDCHAR
STARTCHAR uni0314
ENCODING 788
SWIDTH 0 0
DWIDTH 0 0
BBX 1 2 0 8
BITMAP
80
80
ENDCHAR
STARTCHAR uni0315
ENCODING 789
SWIDTH 0 0
DWIDTH 0 0
BBX 1 2 1 8
BITMAP
80
80
ENDCHAR
STARTCHAR uni0316
ENCODING 790
SWIDTH 0 0
DWIDTH 0 0
BBX 2 2 -1 -3
BITMAP
80
40
ENDCHAR
STARTCHAR uni0317
ENCODING 791
SWIDTH 0 0
DWIDTH 0 0
BBX 2 2 -1 -3
BITMAP
40
80
ENDCHAR
STARTCHAR uni0318
ENCODING 792
SWIDTH 0 0
DWIDTH 0 0
BBX 3 3 -1 -3
BITMAP
20
E0
20
ENDCHAR
STARTCHAR uni0319
ENCODING 793
SWIDTH 0 0
DWIDTH 0 0
BBX 3 3 -1 -3
BITMAP
80
E0
80
ENDCHAR
STARTCHAR uni031A
ENCODING 794
SWIDTH 0 0
DWIDTH 0 0
BBX 5 3 -2 8
BITMAP
F8
08
08
ENDCHAR
STARTCHAR uni031B
ENCODING 795
SWIDTH 0 0
DWIDTH 0 0
BBX 2 3 -1 9
BITMAP
40
40
80
ENDCHAR
STARTCHAR uni031C
ENCODING 796
SWIDTH 0 0
DWIDTH 0 0
BBX 2 3 -1 -3
BITMAP
40
80
40
ENDCHAR
STARTCHAR uni031D
ENCODING 797
SWIDTH 0 0
DWIDTH 0 0
BBX 3 3 -1 -3
BITMAP
40
40
E0
ENDCHAR
STARTCHAR uni031E
ENCODING 798
SWIDTH 0 0
DWIDTH 0 0
BBX 3 3 -1 -3
BITMAP
E0
40
40
ENDCHAR
STARTCHAR uni031F
ENCODING 799
SWIDTH 0 0
DWIDTH 0 0
BBX 3 3 -1 -3
BITMAP
40
E0
40
ENDCHAR
STARTCHAR uni0320
ENCODING 800
SWIDTH 0 0
DWIDTH 0 0
BBX 4 1 -2 -3
BITMAP
F0
ENDCHAR
STARTCHAR uni0321
ENCODING 801
SWIDTH 0 0
DWIDTH 0 0
BBX 2 4 -1 -3
BITMAP
40
40
40
80
ENDCHAR
STARTCHAR uni0322
ENCODING 802
SWIDTH 0 0
DWIDTH 0 0
BBX 2 4 0 -3
BITMAP
80
80
80
40
ENDCHAR
STARTCHAR dotbelowcomb
ENCODING 803
SWIDTH 0 0
DWIDTH 0 0
BBX 1 1 2 -2
BITMAP
80
ENDCHAR
STARTCHAR uni0324
ENCODING 804
SWIDTH 0 0
DWIDTH 0 0
BBX 3 1 -2 -3
BITMAP
A0
ENDCHAR
STARTCHAR uni0325
ENCODING 805
SWIDTH 0 0
DWIDTH 0 0
BBX 3 3 -1 -3
BITMAP
E0
A0
E0
ENDCHAR
STARTCHAR uni0326
ENCODING 806
SWIDTH 0 0
DWIDTH 0 0
BBX 1 2 -1 -3
BITMAP
80
80
ENDCHAR
STARTCHAR uni0327
ENCODING 807
SWIDTH 0 0
DWIDTH 0 0
BBX 3 3 -2 -3
BITMAP
40
20
E0
ENDCHAR
STARTCHAR uni0328
ENCODING 808
SWIDTH 0 0
DWIDTH 0 0
BBX 3 3 -1 -3
BITMAP
40
80
60
ENDCHAR
STARTCHAR uni0329
ENCODING 809
SWIDTH 0 0
DWIDTH 0 0
BBX 1 3 0 -3
BITMAP
80
80
80
ENDCHAR
STARTCHAR uni032A
ENCODING 810
SWIDTH 0 0
DWIDTH 0 0
BBX 5 3 -3 -3
BITMAP
F8
88
88
ENDCHAR
STARTCHAR uni032B
ENCODING 811
SWIDTH 0 0
DWIDTH 0 0
BBX 5 2 -2 -2
BITMAP
A8
F8
ENDCHAR
STARTCHAR uni032C
ENCODING 812
SWIDTH 0 0
DWIDTH 0 0
BBX 3 2 -1 -3
BITMAP
A0
40
ENDCHAR
STARTCHAR uni032D
ENCODING 813
SWIDTH 0 0
DWIDTH 0 0
BBX 3 2 -1 -3
BITMAP
40
A0
ENDCHAR
STARTCHAR uni032E
ENCODING 814
SWIDTH 0 0
DWIDTH 0 0
BBX 4 2 -2 -3
BITMAP
90
60
ENDCHAR
STARTCHAR uni032F
ENCODING 815
SWIDTH 0 0
DWIDTH 0 0
BBX 4 2 -2 -3
BITMAP
60
90
ENDCHAR
STARTCHAR uni0330
ENCODING 816
SWIDTH 0 0
DWIDTH 0 0
BBX 5 2 -2 -3
BITMAP
68
B0
ENDCHAR
STARTCHAR uni0331
ENCODING 817
SWIDTH 0 0
DWIDTH 0 0
BBX 4 1 -2 -3
BITMAP
F0
ENDCHAR
STARTCHAR uni0332
ENCODING 818
SWIDTH 0 0
DWIDTH 0 0
BBX 8 1 -4 -2
BITMAP
FF
ENDCHAR
STARTCHAR uni0333
ENCODING 819
SWIDTH 0 0
DWIDTH 0 0
BBX 6 3 -3 -3
BITMAP
FC
00
FC
ENDCHAR
STARTCHAR uni0334
ENCODING 820
SWIDTH 0 0
DWIDTH 0 0
BBX 5 2 -2 4
BITMAP
68
B0
ENDCHAR
STARTCHAR uni0335
ENCODING 821
SWIDTH 0 0
DWIDTH 0 0
BBX 4 1 -2 4
BITMAP
F0
ENDCHAR
STARTCHAR uni0336
ENCODING 822
SWIDTH 0 0
DWIDTH 0 0
BBX 8 1 -4 4
BITMAP
FF
ENDCHAR
STARTCHAR uni0337
ENCODING 823
SWIDTH 0 0
DWIDTH 0 0
BBX 5 5 -3 2
BITMAP
08
10
20
40
80
ENDCHAR
STARTCHAR uni0338
ENCODING 824
SWIDTH 0 0
DWIDTH 0 0
BBX 4 10 -2 0
BITMAP
10
10
20
20
20
40
40
40
80
80
ENDCHAR
STARTCHAR uni0339
ENCODING 825
SWIDTH 0 0
DWIDTH 0 0
BBX 2 3 -1 -3
BITMAP
80
40
80
ENDCHAR
STARTCHAR uni033A
ENCODING 826
SWIDTH 0 0
DWIDTH 0 0
BBX 5 3 -3 -3
BITMAP
88
88
F8
ENDCHAR
STARTCHAR uni033B
ENCODING 827
SWIDTH 0 0
DWIDTH 0 0
BBX 3 3 -2 -3
BITMAP
E0
A0
E0
ENDCHAR
STARTCHAR uni033C
ENCODING 828
SWIDTH 0 0
DWIDTH 0 0
BBX 5 2 -2 -2
BITMAP
D8
A8
ENDCHAR
STARTCHAR uni033D
ENCODING 829
SWIDTH 0 0
DWIDTH 0 0
BBX 3 3 -2 9
BITMAP
A0
40
A0
ENDCHAR
STARTCHAR uni033E
ENCODING 830
SWIDTH 0 0
DWIDTH 0 0
BBX 2 4 -1 8
BITMAP
C0
80
40
C0
ENDCHAR
STARTCHAR uni033F
ENCODING 831
SWIDTH 0 0
DWIDTH 0 0
BBX 7 3 -4 10
BITMAP
FE
00
FE
ENDCHAR
STARTCHAR gravecomb.dup3
ENCODING 832
SWIDTH 0 0
DWIDTH 0 0
BBX 2 2 1 8
BITMAP
80
40
ENDCHAR
STARTCHAR acutecomb.dup4
ENCODING 833
SWIDTH 0 0
DWIDTH 0 0
BBX 2 2 2 8
BITMAP
40
80
ENDCHAR
STARTCHAR tildecomb.dup5
ENCODING 834
SWIDTH 0 0
DWIDTH 0 0
BBX 5 2 -2 8
BITMAP
68
B0
ENDCHAR
STARTCHAR uni0343
ENCODING 835
SWIDTH 0 0
DWIDTH 0 0
BBX 1 2 -1 8
BITMAP
80
80
ENDCHAR
STARTCHAR uni0344
ENCODING 836
SWIDTH 0 0
DWIDTH 0 0
BBX 6 2 -3 9
BITMAP
10
A4
ENDCHAR
STARTCHAR uni0345
ENCODING 837
SWIDTH 0 0
DWIDTH 0 0
BBX 1 2 -1 -3
BITMAP
80
80
ENDCHAR
STARTCHAR uni0346
ENCODING 838
SWIDTH 0 0
DWIDTH 0 0
BBX 5 3 -3 9
BITMAP
F8
88
88
ENDCHAR
STARTCHAR uni0347
ENCODING 839
SWIDTH 0 0
DWIDTH 0 0
BBX 7 3 -4 -3
BITMAP
FE
00
FE
ENDCHAR
STARTCHAR uni0348
ENCODING 840
SWIDTH 0 0
DWIDTH 0 0
BBX 3 3 -1 -3
BITMAP
A0
A0
A0
ENDCHAR
STARTCHAR uni0349
ENCODING 841
SWIDTH 0 0
DWIDTH 0 0
BBX 3 3 -2 -3
BITMAP
E0
20
20
ENDCHAR
STARTCHAR uni034A
ENCODING 842
SWIDTH 0 0
DWIDTH 0 0
BBX 6 2 -2 8
BITMAP
74
B8
ENDCHAR
STARTCHAR uni034B
ENCODING 843
SWIDTH 0 0
DWIDTH 0 0
BBX 5 6 -2 7
BITMAP
20
00
E8
B8
00
20
ENDCHAR
STARTCHAR uni034C
ENCODING 844
SWIDTH 0 0
DWIDTH 0 0
BBX 5 4 -2 8
BITMAP
E8
B8
E8
B8
ENDCHAR
STARTCHAR uni034D
ENCODING 845
SWIDTH 0 0
DWIDTH 0 0
BBX 6 3 -3 -3
BITMAP
48
FC
48
ENDCHAR
STARTCHAR uni034E
ENCODING 846
SWIDTH 0 0
DWIDTH 0 0
BBX 3 3 -1 -3
BITMAP
40
E0
40
ENDCHAR
STARTCHAR uni034F
ENCODING 847
SWIDTH 0 0
DWIDTH 0 0
BBX 12 12 -5 0
BITMAP
E670
8010
8B10
1080
2040
A050
8010
2040
1080
8B10
8010
E670
ENDCHAR
STARTCHAR uni0350
ENCODING 848
SWIDTH 0 0
DWIDTH 0 0
BBX 2 3 -2 8
BITMAP
80
40
80
ENDCHAR
STARTCHAR uni0351
ENCODING 849
SWIDTH 0 0
DWIDTH 0 0
BBX 2 3 -1 8
BITMAP
40
80
40
ENDCHAR
STARTCHAR uni0352
ENCODING 850
SWIDTH 0 0
DWIDTH 0 0
BBX 4 4 -2 9
BITMAP
60
90
00
40
ENDCHAR
STARTCHAR uni0353
ENCODING 851
SWIDTH 0 0
DWIDTH 0 0
BBX 3 3 -2 -3
BITMAP
A0
40
A0
ENDCHAR
STARTCHAR uni0354
ENCODING 852
SWIDTH 0 0
DWIDTH 0 0
BBX 2 3 -1 -3
BITMAP
40
80
40
ENDCHAR
STARTCHAR uni0355
ENCODING 853
SWIDTH 0 0
DWIDTH 0 0
BBX 2 3 -1 -3
BITMAP
80
40
80
ENDCHAR
STARTCHAR uni0356
ENCODING 854
SWIDTH 0 0
DWIDTH 0 0
BBX 5 3 -2 -3
BITMAP
90
68
80
ENDCHAR
STARTCHAR uni0357
ENCODING 855
SWIDTH 0 0
DWIDTH 0 0
BBX 2 3 -1 8
BITMAP
80
40
80
ENDCHAR
STARTCHAR uni0358
ENCODING 856
SWIDTH 0 0
DWIDTH 0 0
BBX 1 1 2 9
BITMAP
80
ENDCHAR
STARTCHAR uni0359
ENCODING 857
SWIDTH 0 0
DWIDTH 0 0
BBX 3 3 -1 -3
BITMAP
40
E0
A0
ENDCHAR
STARTCHAR uni035A
ENCODING 858
SWIDTH 0 0
DWIDTH 0 0
BBX 5 3 -2 -3
BITMAP
F8
A8
F8
ENDCHAR
STARTCHAR uni035B
ENCODING 859
SWIDTH 0 0
DWIDTH 0 0
BBX 2 3 -1 8
BITMAP
80
C0
40
ENDCHAR
STARTCHAR uni035C
ENCODING 860
SWIDTH 0 0
DWIDTH 0 0
BBX 11 3 -5 -3
BITMAP
8020
60C0
1F00
ENDCHAR
STARTCHAR uni035D
ENCODING 861
SWIDTH 0 0
DWIDTH 0 0
BBX 11 3 -1 10
BITMAP
8020
60C0
1F00
ENDCHAR
STARTCHAR uni035E
ENCODING 862
SWIDTH 0 0
DWIDTH 0 0
BBX 11 1 -1 10
BITMAP
FFE0
ENDCHAR
STARTCHAR uni035F
ENCODING 863
SWIDTH 0 0
DWIDTH 0 0
BBX 11 1 -1 -3
BITMAP
FFE0
ENDCHAR
STARTCHAR uni0360
ENCODING 864
SWIDTH 0 0
DWIDTH 0 0
BBX 11 2 -1 10
BITMAP
7C20
83C0
ENDCHAR
STARTCHAR uni0361
ENCODING 865
SWIDTH 0 0
DWIDTH 0 0
BBX 11 3 -1 10
BITMAP
1F00
60C0
8020
ENDCHAR
STARTCHAR uni0362
ENCODING 866
SWIDTH 0 0
DWIDTH 0 0
BBX 9 3 -1 -3
BITMAP
0100
FF80
0100
ENDCHAR
STARTCHAR uni0363
ENCODING 867
SWIDTH 0 0
DWIDTH 0 0
BBX 3 3 -2 8
BITMAP
E0
60
E0
ENDCHAR
STARTCHAR uni0364
ENCODING 868
SWIDTH 0 0
DWIDTH 0 0
BBX 3 3 -2 8
BITMAP
60
C0
E0
ENDCHAR
STARTCHAR uni0365
ENCODING 869
SWIDTH 0 0
DWIDTH 0 0
BBX 1 5 0 8
BITMAP
80
00
80
80
80
ENDCHAR
STARTCHAR uni0366
ENCODING 870
SWIDTH 0 0
DWIDTH 0 0
BBX 3 3 -2 8
BITMAP
E0
A0
E0
ENDCHAR
STARTCHAR uni0367
ENCODING 871
SWIDTH 0 0
DWIDTH 0 0
BBX 3 3 -1 8
BITMAP
A0
A0
E0
ENDCHAR
STARTCHAR uni0368
ENCODING 872
SWIDTH 0 0
DWIDTH 0 0
BBX 3 3 -2 8
BITMAP
E0
80
E0
ENDCHAR
STARTCHAR uni0369
ENCODING 873
SWIDTH 0 0
DWIDTH 0 0
BBX 3 5 -2 8
BITMAP
20
20
E0
A0
E0
ENDCHAR
STARTCHAR uni036A
ENCODING 874
SWIDTH 0 0
DWIDTH 0 0
BBX 3 5 -1 8
BITMAP
80
80
E0
A0
A0
ENDCHAR
STARTCHAR uni036B
ENCODING 875
SWIDTH 0 0
DWIDTH 0 0
BBX 5 3 -2 8
BITMAP
F8
A8
A8
ENDCHAR
STARTCHAR uni036C
ENCODING 876
SWIDTH 0 0
DWIDTH 0 0
BBX 2 3 -1 8
BITMAP
C0
80
80
ENDCHAR
STARTCHAR uni036D
ENCODING 877
SWIDTH 0 0
DWIDTH 0 0
BBX 2 4 -1 8
BITMAP
80
C0
80
C0
ENDCHAR
STARTCHAR uni036E
ENCODING 878
SWIDTH 0 0
DWIDTH 0 0
BBX 3 3 -2 8
BITMAP
A0
40
40
ENDCHAR
STARTCHAR uni036F
ENCODING 879
SWIDTH 0 0
DWIDTH 0 0
BBX 3 3 -2 8
BITMAP
A0
40
A0
ENDCHAR
STARTCHAR uni0370
ENCODING 880
SWIDTH 568 0
DWIDTH 8 0
BBX 7 10 1 0
BITMAP
80
80
80
80
FE
80
80
80
80
80
ENDCHAR
STARTCHAR uni0371
ENCODING 881
SWIDTH 438 0
DWIDTH 6 0
BBX 6 7 0 0
BITMAP
C0
60
60
7C
60
60
60
ENDCHAR
STARTCHAR uni0372
ENCODING 882
SWIDTH 610 0
DWIDTH 9 0
BBX 8 10 0 0
BITMAP
FF
C9
C9
08
08
08
08
08
08
08
ENDCHAR
STARTCHAR uni0373
ENCODING 883
SWIDTH 512 0
DWIDTH 7 0
BBX 7 10 0 0
BITMAP
7E
D2
D2
10
10
10
10
10
10
10
ENDCHAR
STARTCHAR uni0374
ENCODING 884
SWIDTH 333 0
DWIDTH 5 0
BBX 2 2 1 8
BITMAP
40
80
ENDCHAR
STARTCHAR uni0375
ENCODING 885
SWIDTH 333 0
DWIDTH 5 0
BBX 2 2 1 -3
BITMAP
40
80
ENDCHAR
STARTCHAR uni0376
ENCODING 886
SWIDTH 722 0
DWIDTH 10 0
BBX 8 10 1 0
BITMAP
83
83
85
8D
89
91
B1
A1
C1
C1
ENDCHAR
STARTCHAR uni0377
ENCODING 887
SWIDTH 608 0
DWIDTH 9 0
BBX 7 7 1 0
BITMAP
8C
8C
94
A4
A4
C4
C6
ENDCHAR
STARTCHAR uni037A
ENCODING 890
SWIDTH 333 0
DWIDTH 5 0
BBX 1 2 2 -3
BITMAP
80
80
ENDCHAR
STARTCHAR uni037B
ENCODING 891
SWIDTH 492 0
DWIDTH 7 0
BBX 6 7 0 0
BITMAP
78
CC
04
04
04
CC
78
ENDCHAR
STARTCHAR uni037C
ENCODING 892
SWIDTH 492 0
DWIDTH 7 0
BBX 6 7 1 0
BITMAP
78
CC
80
90
80
CC
78
ENDCHAR
STARTCHAR uni037D
ENCODING 893
SWIDTH 492 0
DWIDTH 7 0
BBX 6 7 0 0
BITMAP
78
CC
04
24
04
CC
78
ENDCHAR
STARTCHAR semicolon.dup6
ENCODING 894
SWIDTH 277 0
DWIDTH 4 0
BBX 2 9 1 -2
BITMAP
40
00
00
00
00
00
40
40
80
ENDCHAR
STARTCHAR uni037F
ENCODING 895
SWIDTH 500 0
DWIDTH 7 0
BBX 5 10 1 0
BITMAP
08
08
08
08
08
08
08
88
88
70
ENDCHAR
STARTCHAR tonos
ENCODING 900
SWIDTH 333 0
DWIDTH 5 0
BBX 1 4 2 6
BITMAP
80
80
80
80
ENDCHAR
STARTCHAR dieresistonos
ENCODING 901
SWIDTH 410 0
DWIDTH 6 0
BBX 6 2 0 9
BITMAP
10
A4
ENDCHAR
STARTCHAR Alphatonos
ENCODING 902
SWIDTH 666 0
DWIDTH 9 0
BBX 9 10 0 0
BITMAP
8800
8800
9400
9400
2200
2200
7F00
4100
8080
8080
ENDCHAR
STARTCHAR anoteleia
ENCODING 903
SWIDTH 277 0
DWIDTH 4 0
BBX 1 1 1 5
BITMAP
80
ENDCHAR
STARTCHAR Epsilontonos
ENCODING 904
SWIDTH 784 0
DWIDTH 11 0
BBX 9 10 1 0
BITMAP
BF80
A000
A000
A000
3F00
2000
2000
2000
2000
3F80
ENDCHAR
STARTCHAR Etatonos
ENCODING 905
SWIDTH 839 0
DWIDTH 12 0
BBX 10 10 1 0
BITMAP
A040
A040
A040
A040
3FC0
2040
2040
2040
2040
2040
ENDCHAR
STARTCHAR Iotatonos
ENCODING 906
SWIDTH 395 0
DWIDTH 6 0
BBX 3 10 1 0
BITMAP
A0
A0
A0
A0
20
20
20
20
20
20
ENDCHAR
STARTCHAR Omicrontonos
ENCODING 908
SWIDTH 825 0
DWIDTH 12 0
BBX 11 10 0 0
BITMAP
8F80
9040
A020
A020
2020
2020
2020
2020
1040
0F80
ENDCHAR
STARTCHAR Upsilontonos
ENCODING 910
SWIDTH 773 0
DWIDTH 11 0
BBX 11 10 0 0
BITMAP
A020
A020
9040
8880
0500
0200
0200
0200
0200
0200
ENDCHAR
STARTCHAR Omegatonos
ENCODING 911
SWIDTH 825 0
DWIDTH 12 0
BBX 11 10 0 0
BITMAP
8F80
9040
A020
A020
2020
2020
2020
1040
0880
3DE0
ENDCHAR
STARTCHAR iotadieresistonos
ENCODING 912
SWIDTH 399 0
DWIDTH 6 0
BBX 6 11 0 0
BITMAP
10
A4
00
00
20
20
20
20
20
20
10
ENDCHAR
STARTCHAR Alpha
ENCODING 913
SWIDTH 666 0
DWIDTH 9 0
BBX 9 10 0 0
BITMAP
0800
0800
1400
1400
2200
2200
7F00
4100
8080
8080
ENDCHAR
STARTCHAR Beta
ENCODING 914
SWIDTH 666 0
DWIDTH 9 0
BBX 7 10 1 0
BITMAP
FC
82
82
82
FC
82
82
82
82
FC
ENDCHAR
STARTCHAR Gamma
ENCODING 915
SWIDTH 584 0
DWIDTH 8 0
BBX 7 10 1 0
BITMAP
FE
80
80
80
80
80
80
80
80
80
ENDCHAR
STARTCHAR uni0394
ENCODING 916
SWIDTH 682 0
DWIDTH 9 0
BBX 9 10 0 0
BITMAP
0800
0800
1400
1400
2200
2200
4100
4100
8080
FF80
ENDCHAR
STARTCHAR Epsilon
ENCODING 917
SWIDTH 666 0
DWIDTH 9 0
BBX 7 10 1 0
BITMAP
FE
80
80
80
FC
80
80
80
80
FE
ENDCHAR
STARTCHAR Zeta
ENCODING 918
SWIDTH 610 0
DWIDTH 9 0
BBX 7 10 1 0
BITMAP
FE
02
04
08
10
10
20
40
80
FE
ENDCHAR
STARTCHAR Eta
ENCODING 919
SWIDTH 722 0
DWIDTH 10 0
BBX 8 10 1 0
BITMAP
81
81
81
81
FF
81
81
81
81
81
ENDCHAR
STARTCHAR Theta
ENCODING 920
SWIDTH 777 0
DWIDTH 11 0
BBX 9 10 1 0
BITMAP
3E00
4100
8080
8080
BE80
8080
8080
8080
4100
3E00
ENDCHAR
STARTCHAR Iota
ENCODING 921
SWIDTH 277 0
DWIDTH 3 0
BBX 1 10 1 0
BITMAP
80
80
80
80
80
80
80
80
80
80
ENDCHAR
STARTCHAR Kappa
ENCODING 922
SWIDTH 666 0
DWIDTH 9 0
BBX 8 10 1 0
BITMAP
82
84
88
90
A0
D0
88
84
82
81
ENDCHAR
STARTCHAR Lambda
ENCODING 923
SWIDTH 666 0
DWIDTH 9 0
BBX 9 10 0 0
BITMAP
0800
0800
1400
1400
2200
2200
4100
4100
8080
8080
ENDCHAR
STARTCHAR Mu
ENCODING 924
SWIDTH 833 0
DWIDTH 11 0
BBX 9 10 1 0
BITMAP
8080
8080
C180
C180
A280
A280
9480
9480
8880
8880
ENDCHAR
STARTCHAR Nu
ENCODING 925
SWIDTH 722 0
DWIDTH 10 0
BBX 8 10 1 0
BITMAP
81
C1
A1
A1
91
89
85
85
83
81
ENDCHAR
STARTCHAR Xi
ENCODING 926
SWIDTH 655 0
DWIDTH 9 0
BBX 7 10 1 0
BITMAP
FE
00
00
00
7C
00
00
00
00
FE
ENDCHAR
STARTCHAR Omicron
ENCODING 927
SWIDTH 777 0
DWIDTH 11 0
BBX 9 10 1 0
BITMAP
3E00
4100
8080
8080
8080
8080
8080
8080
4100
3E00
ENDCHAR
STARTCHAR Pi
ENCODING 928
SWIDTH 722 0
DWIDTH 10 0
BBX 8 10 1 0
BITMAP
FF
81
81
81
81
81
81
81
81
81
ENDCHAR
STARTCHAR Rho
ENCODING 929
SWIDTH 666 0
DWIDTH 9 0
BBX 8 10 1 0
BITMAP
FC
82
81
81
82
FC
80
80
80
80
ENDCHAR
STARTCHAR Sigma
ENCODING 931
SWIDTH 611 0
DWIDTH 9 0
BBX 7 10 1 0
BITMAP
FE
80
40
20
10
10
20
40
80
FE
ENDCHAR
STARTCHAR Tau
ENCODING 932
SWIDTH 610 0
DWIDTH 9 0
BBX 9 10 0 0
BITMAP
FF80
0800
0800
0800
0800
0800
0800
0800
0800
0800
ENDCHAR
STARTCHAR Upsilon
ENCODING 933
SWIDTH 666 0
DWIDTH 9 0
BBX 9 10 0 0
BITMAP
8080
8080
4100
2200
1400
0800
0800
0800
0800
0800
ENDCHAR
STARTCHAR Phi
ENCODING 934
SWIDTH 809 0
DWIDTH 11 0
BBX 9 10 1 0
BITMAP
0800
3E00
4900
8880
8880
8880
4900
3E00
0800
0800
ENDCHAR
STARTCHAR Chi
ENCODING 935
SWIDTH 666 0
DWIDTH 9 0
BBX 9 10 0 0
BITMAP
8080
4100
2200
1400
0800
0800
1400
2200
4100
8080
ENDCHAR
STARTCHAR Psi
ENCODING 936
SWIDTH 809 0
DWIDTH 11 0
BBX 9 10 1 0
BITMAP
8880
8880
8880
8880
8880
4900
3E00
0800
0800
0800
ENDCHAR
STARTCHAR uni03A9
ENCODING 937
SWIDTH 777 0
DWIDTH 11 0
BBX 9 10 1 0
BITMAP
3E00
4100
8080
8080
8080
8080
8080
4100
2200
F780
ENDCHAR
STARTCHAR Iotadieresis
ENCODING 938
SWIDTH 277 0
DWIDTH 3 0
BBX 3 12 0 0
BITMAP
A0
00
40
40
40
40
40
40
40
40
40
40
ENDCHAR
STARTCHAR Upsilondieresis
ENCODING 939
SWIDTH 666 0
DWIDTH 9 0
BBX 9 12 0 0
BITMAP
2200
0000
8080
8080
4100
2200
1400
0800
0800
0800
0800
0800
ENDCHAR
STARTCHAR alphatonos
ENCODING 940
SWIDTH 576 0
DWIDTH 8 0
BBX 7 10 1 0
BITMAP
08
10
00
7A
84
84
84
84
84
7A
ENDCHAR
STARTCHAR epsilontonos
ENCODING 941
SWIDTH 500 0
DWIDTH 7 0
BBX 6 10 1 0
BITMAP
10
20
00
78
84
80
70
80
84
78
ENDCHAR
STARTCHAR etatonos
ENCODING 942
SWIDTH 556 0
DWIDTH 8 0
BBX 6 13 1 -3
BITMAP
10
20
00
B8
C4
84
84
84
84
84
04
04
04
ENDCHAR
STARTCHAR iotatonos
ENCODING 943
SWIDTH 240 0
DWIDTH 3 0
BBX 2 10 1 0
BITMAP
40
80
00
80
80
80
80
80
80
40
ENDCHAR
STARTCHAR upsilondieresistonos
ENCODING 944
SWIDTH 556 0
DWIDTH 8 0
BBX 6 11 1 0
BITMAP
10
A4
00
00
84
84
84
84
84
84
78
ENDCHAR
STARTCHAR alpha
ENCODING 945
SWIDTH 576 0
DWIDTH 8 0
BBX 7 7 1 0
BITMAP
7A
84
84
84
84
84
7A
ENDCHAR
STARTCHAR beta
ENCODING 946
SWIDTH 562 0
DWIDTH 8 0
BBX 6 13 1 -3
BITMAP
70
88
88
88
B8
84
84
84
84
F8
80
80
80
ENDCHAR
STARTCHAR gamma
ENCODING 947
SWIDTH 540 0
DWIDTH 7 0
BBX 7 10 0 -3
BITMAP
82
44
44
44
28
28
10
10
10
10
ENDCHAR
STARTCHAR delta
ENCODING 948
SWIDTH 556 0
DWIDTH 8 0
BBX 6 10 1 0
BITMAP
78
20
10
78
84
84
84
84
84
78
ENDCHAR
STARTCHAR epsilon
ENCODING 949
SWIDTH 500 0
DWIDTH 7 0
BBX 6 7 1 0
BITMAP
78
84
80
70
80
84
78
ENDCHAR
STARTCHAR zeta
ENCODING 950
SWIDTH 484 0
DWIDTH 7 0
BBX 5 13 1 -3
BITMAP
78
10
20
40
40
80
80
80
80
70
08
08
30
ENDCHAR
STARTCHAR eta
ENCODING 951
SWIDTH 556 0
DWIDTH 8 0
BBX 6 10 1 -3
BITMAP
B8
C4
84
84
84
84
84
04
04
04
ENDCHAR
STARTCHAR theta
ENCODING 952
SWIDTH 556 0
DWIDTH 8 0
BBX 6 10 1 0
BITMAP
78
84
84
84
FC
84
84
84
84
78
ENDCHAR
STARTCHAR iota
ENCODING 953
SWIDTH 240 0
DWIDTH 3 0
BBX 2 7 1 0
BITMAP
80
80
80
80
80
80
40
ENDCHAR
STARTCHAR kappa
ENCODING 954
SWIDTH 500 0
DWIDTH 7 0
BBX 6 7 1 0
BITMAP
88
90
A0
E0
90
88
84
ENDCHAR
STARTCHAR lambda
ENCODING 955
SWIDTH 500 0
DWIDTH 7 0
BBX 7 10 0 0
BITMAP
60
10
10
10
28
28
44
44
82
82
ENDCHAR
STARTCHAR uni03BC
ENCODING 956
SWIDTH 556 0
DWIDTH 8 0
BBX 7 10 1 -3
BITMAP
84
84
84
84
84
8C
F6
80
80
80
ENDCHAR
STARTCHAR nu
ENCODING 957
SWIDTH 500 0
DWIDTH 7 0
BBX 7 7 0 0
BITMAP
82
82
44
44
28
28
10
ENDCHAR
STARTCHAR xi
ENCODING 958
SWIDTH 484 0
DWIDTH 7 0
BBX 5 13 1 -3
BITMAP
F0
40
80
80
70
40
80
80
80
70
08
08
30
ENDCHAR
STARTCHAR omicron
ENCODING 959
SWIDTH 556 0
DWIDTH 8 0
BBX 6 7 1 0
BITMAP
78
84
84
84
84
84
78
ENDCHAR
STARTCHAR pi
ENCODING 960
SWIDTH 556 0
DWIDTH 8 0
BBX 6 7 1 0
BITMAP
FC
84
84
84
84
84
84
ENDCHAR
STARTCHAR rho
ENCODING 961
SWIDTH 570 0
DWIDTH 8 0
BBX 6 10 1 -3
BITMAP
78
84
84
84
84
84
F8
80
80
80
ENDCHAR
STARTCHAR sigma1
ENCODING 962
SWIDTH 535 0
DWIDTH 8 0
BBX 6 10 1 -3
BITMAP
78
84
80
80
80
40
38
04
04
18
ENDCHAR
STARTCHAR sigma
ENCODING 963
SWIDTH 584 0
DWIDTH 8 0
BBX 7 7 1 0
BITMAP
7E
84
84
84
84
84
78
ENDCHAR
STARTCHAR tau
ENCODING 964
SWIDTH 500 0
DWIDTH 7 0
BBX 7 7 0 0
BITMAP
FE
10
10
10
10
10
08
ENDCHAR
STARTCHAR upsilon
ENCODING 965
SWIDTH 556 0
DWIDTH 8 0
BBX 6 7 1 0
BITMAP
84
84
84
84
84
84
78
ENDCHAR
STARTCHAR phi
ENCODING 966
SWIDTH 648 0
DWIDTH 9 0
BBX 7 10 1 -3
BITMAP
5C
92
92
92
92
54
38
10
10
10
ENDCHAR
STARTCHAR chi
ENCODING 967
SWIDTH 521 0
DWIDTH 6 0
BBX 6 10 0 -3
BITMAP
84
48
48
30
30
30
30
48
48
84
ENDCHAR
STARTCHAR psi
ENCODING 968
SWIDTH 689 0
DWIDTH 9 0
BBX 7 10 1 -3
BITMAP
92
92
92
92
92
92
7C
10
10
10
ENDCHAR
STARTCHAR omega
ENCODING 969
SWIDTH 689 0
DWIDTH 9 0
BBX 7 7 1 0
BITMAP
44
82
92
92
92
92
6C
ENDCHAR
STARTCHAR iotadieresis
ENCODING 970
SWIDTH 290 0
DWIDTH 4 0
BBX 4 10 0 0
BITMAP
90
00
00
40
40
40
40
40
40
20
ENDCHAR
STARTCHAR upsilondieresis
ENCODING 971
SWIDTH 556 0
DWIDTH 8 0
BBX 6 10 1 0
BITMAP
48
00
00
84
84
84
84
84
84
78
ENDCHAR
STARTCHAR omicrontonos
ENCODING 972
SWIDTH 556 0
DWIDTH 8 0
BBX 6 10 1 0
BITMAP
10
20
00
78
84
84
84
84
84
78
ENDCHAR
STARTCHAR upsilontonos
ENCODING 973
SWIDTH 556 0
DWIDTH 8 0
BBX 6 10 1 0
BITMAP
10
20
00
84
84
84
84
84
84
78
ENDCHAR
STARTCHAR omegatonos
ENCODING 974
SWIDTH 689 0
DWIDTH 9 0
BBX 7 10 1 0
BITMAP
08
10
00
44
82
92
92
92
92
6C
ENDCHAR
STARTCHAR uni03CF
ENCODING 975
SWIDTH 666 0
DWIDTH 9 0
BBX 8 13 1 -3
BITMAP
83
86
8C
98
B0
F8
8C
84
86
83
03
0E
08
ENDCHAR
STARTCHAR uni03D0
ENCODING 976
SWIDTH 562 0
DWIDTH 8 0
BBX 6 10 1 0
BITMAP
70
88
88
88
B0
88
84
84
84
78
ENDCHAR
STARTCHAR theta1
ENCODING 977
SWIDTH 556 0
DWIDTH 8 0
BBX 7 10 1 0
BITMAP
08
14
14
94
8E
84
84
84
84
78
ENDCHAR
STARTCHAR Upsilon1
ENCODING 978
SWIDTH 725 0
DWIDTH 10 0
BBX 10 10 0 0
BITMAP
81C0
4140
2200
2400
1400
0800
0800
0800
0800
0800
ENDCHAR
STARTCHAR uni03D3
ENCODING 979
SWIDTH 925 0
DWIDTH 13 0
BBX 12 10 1 0
BITMAP
6070
9050
0880
0900
0500
0200
0200
0200
0200
0200
ENDCHAR
STARTCHAR uni03D4
ENCODING 980
SWIDTH 725 0
DWIDTH 10 0
BBX 10 12 0 0
BITMAP
1200
0000
81C0
4140
2200
2400
1400
0800
0800
0800
0800
0800
ENDCHAR
STARTCHAR phi1
ENCODING 981
SWIDTH 556 0
DWIDTH 8 0
BBX 5 13 1 -3
BITMAP
20
20
20
70
A8
A8
A8
A8
A8
70
20
20
20
ENDCHAR
STARTCHAR omega1
ENCODING 982
SWIDTH 689 0
DWIDTH 10 0
BBX 8 7 1 0
BITMAP
FF
81
91
91
91
91
6E
ENDCHAR
STARTCHAR uni03D7
ENCODING 983
SWIDTH 573 0
DWIDTH 8 0
BBX 7 10 0 -3
BITMAP
C2
24
28
38
28
48
86
02
02
06
ENDCHAR
STARTCHAR uni03D8
ENCODING 984
SWIDTH 777 0
DWIDTH 11 0
BBX 9 13 1 -3
BITMAP
3E00
4100
4100
8080
8080
8080
8080
4100
4100
3E00
0800
0800
0800
ENDCHAR
STARTCHAR uni03D9
ENCODING 985
SWIDTH 556 0
DWIDTH 8 0
BBX 6 10 1 -3
BITMAP
78
84
84
84
84
84
78
20
20
20
ENDCHAR
STARTCHAR uni03DA
ENCODING 986
SWIDTH 722 0
DWIDTH 10 0
BBX 8 13 1 -3
BITMAP
3C
42
81
80
80
80
80
40
20
1C
02
02
3C
ENDCHAR
STARTCHAR uni03DB
ENCODING 987
SWIDTH 500 0
DWIDTH 7 0
BBX 6 10 1 -3
BITMAP
38
44
80
80
80
40
38
04
04
78
ENDCHAR
STARTCHAR uni03DC
ENCODING 988
SWIDTH 610 0
DWIDTH 9 0
BBX 7 10 1 0
BITMAP
FE
80
80
80
FC
84
80
80
80
80
ENDCHAR
STARTCHAR uni03DD
ENCODING 989
SWIDTH 498 0
DWIDTH 7 0
BBX 5 13 1 -3
BITMAP
F8
80
80
80
F0
90
80
80
80
80
80
80
80
ENDCHAR
STARTCHAR uni03DE
ENCODING 990
SWIDTH 624 0
DWIDTH 9 0
BBX 9 10 0 0
BITMAP
C000
2000
2100
2300
2500
5A00
6200
4200
0200
0180
ENDCHAR
STARTCHAR uni03DF
ENCODING 991
SWIDTH 529 0
DWIDTH 7 0
BBX 7 10 0 0
BITMAP
20
40
40
40
80
FE
04
04
04
08
ENDCHAR
STARTCHAR uni03E0
ENCODING 992
SWIDTH 756 0
DWIDTH 11 0
BBX 9 13 0 -3
BITMAP
3800
5400
9200
1100
1300
0480
0480
0480
0480
0480
0080
0100
0E00
ENDCHAR
STARTCHAR uni03E1
ENCODING 993
SWIDTH 576 0
DWIDTH 8 0
BBX 7 13 0 -3
BITMAP
C0
20
10
08
1C
24
02
0E
12
02
02
02
04
ENDCHAR
STARTCHAR uni03E2
ENCODING 994
SWIDTH 833 0
DWIDTH 12 0
BBX 10 13 1 -3
BITMAP
8440
8440
8440
8440
8440
8440
8440
8440
8CC0
7340
0040
0040
7F80
ENDCHAR
STARTCHAR uni03E3
ENCODING 995
SWIDTH 833 0
DWIDTH 12 0
BBX 10 10 1 -3
BITMAP
8440
8440
8440
8440
8440
8CC0
7340
0040
0040
7F80
ENDCHAR
STARTCHAR uni03E4
ENCODING 996
SWIDTH 684 0
DWIDTH 10 0
BBX 8 10 1 0
BITMAP
61
81
81
81
81
43
3D
01
01
01
ENDCHAR
STARTCHAR uni03E5
ENCODING 997
SWIDTH 556 0
DWIDTH 8 0
BBX 6 10 1 0
BITMAP
64
84
84
84
84
8C
74
04
04
04
ENDCHAR
STARTCHAR uni03E6
ENCODING 998
SWIDTH 684 0
DWIDTH 10 0
BBX 8 13 1 -3
BITMAP
80
80
80
80
BC
C2
81
81
81
81
01
01
FE
ENDCHAR
STARTCHAR uni03E7
ENCODING 999
SWIDTH 538 0
DWIDTH 8 0
BBX 7 7 0 0
BITMAP
3A
44
3A
02
02
64
98
ENDCHAR
STARTCHAR uni03E8
ENCODING 1000
SWIDTH 666 0
DWIDTH 9 0
BBX 7 10 1 0
BITMAP
7C
82
82
02
1C
60
80
82
82
7C
ENDCHAR
STARTCHAR uni03E9
ENCODING 1001
SWIDTH 666 0
DWIDTH 9 0
BBX 7 10 1 0
BITMAP
3C
42
82
02
1C
60
80
80
82
7C
ENDCHAR
STARTCHAR uni03EA
ENCODING 1002
SWIDTH 609 0
DWIDTH 9 0
BBX 9 10 0 0
BITMAP
6300
9480
1400
0800
0800
1400
1400
1400
2200
3E00
ENDCHAR
STARTCHAR uni03EB
ENCODING 1003
SWIDTH 609 0
DWIDTH 9 0
BBX 10 7 -1 0
BITMAP
6180
9240
0C00
0C00
0C00
1200
1E00
ENDCHAR
STARTCHAR uni03EC
ENCODING 1004
SWIDTH 736 0
DWIDTH 10 0
BBX 8 10 1 0
BITMAP
3E
40
BC
C2
81
81
81
81
42
3C
ENDCHAR
STARTCHAR uni03ED
ENCODING 1005
SWIDTH 557 0
DWIDTH 8 0
BBX 6 7 1 0
BITMAP
3C
40
B8
84
84
84
78
ENDCHAR
STARTCHAR uni03EE
ENCODING 1006
SWIDTH 472 0
DWIDTH 7 0
BBX 5 10 1 0
BITMAP
20
20
F8
A8
A8
20
20
20
20
20
ENDCHAR
STARTCHAR uni03EF
ENCODING 1007
SWIDTH 413 0
DWIDTH 6 0
BBX 5 10 0 0
BITMAP
30
20
20
F8
A0
20
20
20
20
60
ENDCHAR
STARTCHAR uni03F0
ENCODING 1008
SWIDTH 573 0
DWIDTH 8 0
BBX 8 7 0 0
BITMAP
C1
22
24
3C
24
44
83
ENDCHAR
STARTCHAR uni03F1
ENCODING 1009
SWIDTH 573 0
DWIDTH 8 0
BBX 6 10 1 -3
BITMAP
78
84
84
84
84
C4
F8
80
40
3C
ENDCHAR
STARTCHAR uni03F2
ENCODING 1010
SWIDTH 500 0
DWIDTH 7 0
BBX 6 7 1 0
BITMAP
78
84
80
80
80
84
78
ENDCHAR
STARTCHAR uni03F3
ENCODING 1011
SWIDTH 228 0
DWIDTH 3 0
BBX 2 13 0 -3
BITMAP
40
00
00
40
40
40
40
40
40
40
40
40
80
ENDCHAR
STARTCHAR uni03F4
ENCODING 1012
SWIDTH 777 0
DWIDTH 11 0
BBX 9 10 1 0
BITMAP
3E00
4100
8080
8080
FF80
8080
8080
8080
4100
3E00
ENDCHAR
STARTCHAR uni03F5
ENCODING 1013
SWIDTH 463 0
DWIDTH 7 0
BBX 6 7 1 0
BITMAP
3C
40
80
F8
80
40
3C
ENDCHAR
STARTCHAR uni03F6
ENCODING 1014
SWIDTH 463 0
DWIDTH 7 0
BBX 6 7 0 0
BITMAP
F0
08
04
7C
04
08
F0
ENDCHAR
STARTCHAR uni03F7
ENCODING 1015
SWIDTH 666 0
DWIDTH 9 0
BBX 7 10 1 0
BITMAP
80
80
F8
84
82
82
84
F8
80
80
ENDCHAR
STARTCHAR uni03F8
ENCODING 1016
SWIDTH 556 0
DWIDTH 8 0
BBX 6 13 1 -3
BITMAP
80
80
80
B8
C4
84
84
84
C4
B8
80
80
80
ENDCHAR
STARTCHAR uni03F9
ENCODING 1017
SWIDTH 722 0
DWIDTH 9 0
BBX 8 10 1 0
BITMAP
3C
42
81
80
80
80
80
81
42
3C
ENDCHAR
STARTCHAR uni03FA
ENCODING 1018
SWIDTH 833 0
DWIDTH 11 0
BBX 9 10 1 0
BITMAP
8080
8080
C180
C180
A280
A280
9480
9480
8880
8880
ENDCHAR
STARTCHAR uni03FB
ENCODING 1019
SWIDTH 713 0
DWIDTH 10 0
BBX 8 10 1 -3
BITMAP
C3
C3
C3
A5
A5
99
99
80
80
80
ENDCHAR
STARTCHAR uni03FC
ENCODING 1020
SWIDTH 570 0
DWIDTH 8 0
BBX 7 10 0 -3
BITMAP
3C
42
42
42
42
42
7C
40
F0
40
ENDCHAR
STARTCHAR uni03FD
ENCODING 1021
SWIDTH 722 0
DWIDTH 9 0
BBX 8 10 0 0
BITMAP
3C
42
81
01
01
01
01
81
42
3C
ENDCHAR
STARTCHAR uni03FE
ENCODING 1022
SWIDTH 722 0
DWIDTH 9 0
BBX 8 10 1 0
BITMAP
3C
42
81
80
88
80
80
81
42
3C
ENDCHAR
STARTCHAR uni03FF
ENCODING 1023
SWIDTH 722 0
DWIDTH 9 0
BBX 8 10 0 0
BITMAP
3C
42
81
01
09
01
01
81
42
3C
ENDCHAR
STARTCHAR uni0400
ENCODING 1024
SWIDTH 666 0
DWIDTH 9 0
BBX 7 13 1 0
BITMAP
20
10
00
FE
80
80
80
FC
80
80
80
80
FE
ENDCHAR
STARTCHAR uni0401
ENCODING 1025
SWIDTH 666 0
DWIDTH 9 0
BBX 7 12 1 0
BITMAP
44
00
FE
80
80
80
FC
80
80
80
80
FE
ENDCHAR
STARTCHAR uni0402
ENCODING 1026
SWIDTH 799 0
DWIDTH 11 0
BBX 10 10 0 0
BITMAP
FF80
0800
0800
0800
0F80
0840
0840
0840
0840
0B80
ENDCHAR
STARTCHAR uni0403
ENCODING 1027
SWIDTH 566 0
DWIDTH 8 0
BBX 7 13 1 0
BITMAP
08
10
00
FE
80
80
80
80
80
80
80
80
80
ENDCHAR
STARTCHAR uni0404
ENCODING 1028
SWIDTH 716 0
DWIDTH 9 0
BBX 8 10 1 0
BITMAP
3C
42
81
80
F8
80
80
81
42
3C
ENDCHAR
STARTCHAR uni0405
ENCODING 1029
SWIDTH 666 0
DWIDTH 9 0
BBX 7 10 1 0
BITMAP
7C
82
82
80
70
0C
02
82
82
7C
ENDCHAR
STARTCHAR uni0406
ENCODING 1030
SWIDTH 277 0
DWIDTH 3 0
BBX 1 10 1 0
BITMAP
80
80
80
80
80
80
80
80
80
80
ENDCHAR
STARTCHAR uni0407
ENCODING 1031
SWIDTH 277 0
DWIDTH 3 0
BBX 3 12 0 0
BITMAP
A0
00
40
40
40
40
40
40
40
40
40
40
ENDCHAR
STARTCHAR uni0408
ENCODING 1032
SWIDTH 500 0
DWIDTH 7 0
BBX 5 10 1 0
BITMAP
08
08
08
08
08
08
08
88
88
70
ENDCHAR
STARTCHAR uni0409
ENCODING 1033
SWIDTH 959 0
DWIDTH 13 0
BBX 12 10 0 0
BITMAP
3E00
2200
2200
2200
23E0
2210
2210
2210
2210
C3E0
ENDCHAR
STARTCHAR uni040A
ENCODING 1034
SWIDTH 959 0
DWIDTH 13 0
BBX 11 10 1 0
BITMAP
8400
8400
8400
8400
FFC0
8420
8420
8420
8420
87C0
ENDCHAR
STARTCHAR uni040B
ENCODING 1035
SWIDTH 799 0
DWIDTH 11 0
BBX 10 10 0 0
BITMAP
FF80
0800
0800
0800
0F80
0840
0840
0840
0840
0840
ENDCHAR
STARTCHAR uni040C
ENCODING 1036
SWIDTH 666 0
DWIDTH 9 0
BBX 8 13 1 0
BITMAP
08
10
00
82
84
88
90
A0
D0
88
84
82
81
ENDCHAR
STARTCHAR uni040D
ENCODING 1037
SWIDTH 722 0
DWIDTH 10 0
BBX 8 13 1 0
BITMAP
10
08
00
81
83
85
89
89
91
A1
A1
C1
81
ENDCHAR
STARTCHAR uni040E
ENCODING 1038
SWIDTH 640 0
DWIDTH 9 0
BBX 9 13 0 0
BITMAP
1200
0C00
0000
8080
4100
4100
2200
2200
1400
1400
0800
1000
6000
ENDCHAR
STARTCHAR uni040F
ENCODING 1039
SWIDTH 722 0
DWIDTH 10 0
BBX 8 13 1 -3
BITMAP
81
81
81
81
81
81
81
81
81
FF
10
10
10
ENDCHAR
STARTCHAR uni0410
ENCODING 1040
SWIDTH 666 0
DWIDTH 9 0
BBX 9 10 0 0
BITMAP
0800
0800
1400
1400
2200
2200
7F00
4100
8080
8080
ENDCHAR
STARTCHAR uni0411
ENCODING 1041
SWIDTH 654 0
DWIDTH 9 0
BBX 7 10 1 0
BITMAP
FC
80
80
80
FC
82
82
82
82
FC
ENDCHAR
STARTCHAR uni0412
ENCODING 1042
SWIDTH 666 0
DWIDTH 9 0
BBX 7 10 1 0
BITMAP
FC
82
82
82
FC
82
82
82
82
FC
ENDCHAR
STARTCHAR uni0413
ENCODING 1043
SWIDTH 566 0
DWIDTH 8 0
BBX 7 10 1 0
BITMAP
FE
80
80
80
80
80
80
80
80
80
ENDCHAR
STARTCHAR uni0414
ENCODING 1044
SWIDTH 774 0
DWIDTH 11 0
BBX 10 12 0 -2
BITMAP
3F80
2080
2080
2080
2080
2080
2080
4080
4080
FFC0
8040
8040
ENDCHAR
STARTCHAR uni0415
ENCODING 1045
SWIDTH 666 0
DWIDTH 9 0
BBX 7 10 1 0
BITMAP
FE
80
80
80
FC
80
80
80
80
FE
ENDCHAR
STARTCHAR uni0416
ENCODING 1046
SWIDTH 900 0
DWIDTH 13 0
BBX 13 10 0 0
BITMAP
4210
2220
1240
0A80
0700
0A80
1240
2220
4210
8208
ENDCHAR
STARTCHAR uni0417
ENCODING 1047
SWIDTH 634 0
DWIDTH 9 0
BBX 7 10 1 0
BITMAP
7C
82
82
02
1C
02
02
82
82
7C
ENDCHAR
STARTCHAR uni0418
ENCODING 1048
SWIDTH 722 0
DWIDTH 10 0
BBX 8 10 1 0
BITMAP
81
83
85
89
89
91
A1
A1
C1
81
ENDCHAR
STARTCHAR uni0419
ENCODING 1049
SWIDTH 722 0
DWIDTH 10 0
BBX 8 13 1 0
BITMAP
24
18
00
81
83
85
89
89
91
A1
A1
C1
81
ENDCHAR
STARTCHAR uni041A
ENCODING 1050
SWIDTH 666 0
DWIDTH 9 0
BBX 8 10 1 0
BITMAP
82
84
88
90
A0
D0
88
84
82
81
ENDCHAR
STARTCHAR uni041B
ENCODING 1051
SWIDTH 705 0
DWIDTH 10 0
BBX 9 10 0 0
BITMAP
3F80
2080
2080
2080
2080
2080
2080
2080
2080
C080
ENDCHAR
STARTCHAR uni041C
ENCODING 1052
SWIDTH 833 0
DWIDTH 11 0
BBX 9 10 1 0
BITMAP
8080
8080
C180
C180
A280
A280
9480
9480
8880
8880
ENDCHAR
STARTCHAR uni041D
ENCODING 1053
SWIDTH 722 0
DWIDTH 10 0
BBX 8 10 1 0
BITMAP
81
81
81
81
FF
81
81
81
81
81
ENDCHAR
STARTCHAR uni041E
ENCODING 1054
SWIDTH 777 0
DWIDTH 11 0
BBX 9 10 1 0
BITMAP
3E00
4100
8080
8080
8080
8080
8080
8080
4100
3E00
ENDCHAR
STARTCHAR uni041F
ENCODING 1055
SWIDTH 722 0
DWIDTH 10 0
BBX 8 10 1 0
BITMAP
FF
81
81
81
81
81
81
81
81
81
ENDCHAR
STARTCHAR uni0420
ENCODING 1056
SWIDTH 666 0
DWIDTH 9 0
BBX 8 10 1 0
BITMAP
FC
82
81
81
82
FC
80
80
80
80
ENDCHAR
STARTCHAR uni0421
ENCODING 1057
SWIDTH 722 0
DWIDTH 9 0
BBX 8 10 1 0
BITMAP
3C
42
81
80
80
80
80
81
42
3C
ENDCHAR
STARTCHAR uni0422
ENCODING 1058
SWIDTH 610 0
DWIDTH 9 0
BBX 9 10 0 0
BITMAP
FF80
0800
0800
0800
0800
0800
0800
0800
0800
0800
ENDCHAR
STARTCHAR uni0423
ENCODING 1059
SWIDTH 640 0
DWIDTH 9 0
BBX 9 10 0 0
BITMAP
8080
4100
4100
2200
2200
1400
1400
0800
1000
6000
ENDCHAR
STARTCHAR uni0424
ENCODING 1060
SWIDTH 849 0
DWIDTH 13 0
BBX 11 10 1 0
BITMAP
0400
3F80
4440
8420
8420
8420
8420
4440
3F80
0400
ENDCHAR
STARTCHAR uni0425
ENCODING 1061
SWIDTH 666 0
DWIDTH 9 0
BBX 9 10 0 0
BITMAP
8080
4100
2200
1400
0800
0800
1400
2200
4100
8080
ENDCHAR
STARTCHAR uni0426
ENCODING 1062
SWIDTH 748 0
DWIDTH 11 0
BBX 9 13 1 -3
BITMAP
8100
8100
8100
8100
8100
8100
8100
8100
8100
FF80
0080
0080
0080
ENDCHAR
STARTCHAR uni0427
ENCODING 1063
SWIDTH 684 0
DWIDTH 10 0
BBX 8 10 1 0
BITMAP
81
81
81
81
81
43
3D
01
01
01
ENDCHAR
STARTCHAR uni0428
ENCODING 1064
SWIDTH 859 0
DWIDTH 11 0
BBX 9 10 1 0
BITMAP
8880
8880
8880
8880
8880
8880
8880
8880
8880
FF80
ENDCHAR
STARTCHAR uni0429
ENCODING 1065
SWIDTH 886 0
DWIDTH 11 0
BBX 10 13 1 -3
BITMAP
8880
8880
8880
8880
8880
8880
8880
8880
8880
FFC0
0040
0040
0040
ENDCHAR
STARTCHAR uni042A
ENCODING 1066
SWIDTH 779 0
DWIDTH 11 0
BBX 10 10 0 0
BITMAP
F000
1000
1000
1000
1F80
1040
1040
1040
1040
1F80
ENDCHAR
STARTCHAR uni042B
ENCODING 1067
SWIDTH 882 0
DWIDTH 12 0
BBX 10 10 1 0
BITMAP
8040
8040
8040
8040
FC40
8240
8240
8240
8240
FC40
ENDCHAR
STARTCHAR uni042C
ENCODING 1068
SWIDTH 654 0
DWIDTH 9 0
BBX 7 10 1 0
BITMAP
80
80
80
80
FC
82
82
82
82
FC
ENDCHAR
STARTCHAR uni042D
ENCODING 1069
SWIDTH 716 0
DWIDTH 9 0
BBX 8 10 0 0
BITMAP
3C
42
81
01
1F
01
01
81
42
3C
ENDCHAR
STARTCHAR uni042E
ENCODING 1070
SWIDTH 1005 0
DWIDTH 14 0
BBX 12 10 1 0
BITMAP
87C0
8820
9010
9010
F010
9010
9010
8810
8820
87C0
ENDCHAR
STARTCHAR uni042F
ENCODING 1071
SWIDTH 722 0
DWIDTH 10 0
BBX 8 10 1 0
BITMAP
3F
41
81
81
41
3F
21
41
41
81
ENDCHAR
STARTCHAR uni0430
ENCODING 1072
SWIDTH 556 0
DWIDTH 8 0
BBX 7 7 1 0
BITMAP
78
84
7C
84
84
84
7A
ENDCHAR
STARTCHAR uni0431
ENCODING 1073
SWIDTH 573 0
DWIDTH 8 0
BBX 6 11 1 0
BITMAP
04
38
40
80
B8
C4
84
84
84
84
78
ENDCHAR
STARTCHAR uni0432
ENCODING 1074
SWIDTH 530 0
DWIDTH 7 0
BBX 5 7 1 0
BITMAP
F0
88
88
F0
88
88
F0
ENDCHAR
STARTCHAR uni0433
ENCODING 1075
SWIDTH 382 0
DWIDTH 5 0
BBX 4 7 1 0
BITMAP
F0
80
80
80
80
80
80
ENDCHAR
STARTCHAR uni0434
ENCODING 1076
SWIDTH 583 0
DWIDTH 8 0
BBX 8 9 0 -2
BITMAP
3E
22
22
22
22
42
FF
81
81
ENDCHAR
STARTCHAR uni0435
ENCODING 1077
SWIDTH 556 0
DWIDTH 8 0
BBX 6 7 1 0
BITMAP
78
84
84
FC
80
84
78
ENDCHAR
STARTCHAR uni0436
ENCODING 1078
SWIDTH 708 0
DWIDTH 9 0
BBX 9 7 0 0
BITMAP
8880
4900
2A00
1C00
2A00
4900
8880
ENDCHAR
STARTCHAR uni0437
ENCODING 1079
SWIDTH 500 0
DWIDTH 7 0
BBX 6 7 0 0
BITMAP
78
84
04
38
04
84
78
ENDCHAR
STARTCHAR uni0438
ENCODING 1080
SWIDTH 559 0
DWIDTH 8 0
BBX 6 7 1 0
BITMAP
84
8C
94
A4
A4
C4
84
ENDCHAR
STARTCHAR uni0439
ENCODING 1081
SWIDTH 559 0
DWIDTH 8 0
BBX 6 10 1 0
BITMAP
48
30
00
84
8C
94
A4
A4
C4
84
ENDCHAR
STARTCHAR uni043A
ENCODING 1082
SWIDTH 500 0
DWIDTH 7 0
BBX 6 7 1 0
BITMAP
88
90
A0
E0
90
88
84
ENDCHAR
STARTCHAR uni043B
ENCODING 1083
SWIDTH 570 0
DWIDTH 8 0
BBX 7 7 0 0
BITMAP
7E
42
42
42
42
42
82
ENDCHAR
STARTCHAR uni043C
ENCODING 1084
SWIDTH 713 0
DWIDTH 9 0
BBX 7 7 1 0
BITMAP
82
C6
AA
AA
92
82
82
ENDCHAR
STARTCHAR uni043D
ENCODING 1085
SWIDTH 556 0
DWIDTH 8 0
BBX 6 7 1 0
BITMAP
84
84
84
FC
84
84
84
ENDCHAR
STARTCHAR uni043E
ENCODING 1086
SWIDTH 556 0
DWIDTH 8 0
BBX 6 7 1 0
BITMAP
78
84
84
84
84
84
78
ENDCHAR
STARTCHAR uni043F
ENCODING 1087
SWIDTH 556 0
DWIDTH 8 0
BBX 6 7 1 0
BITMAP
FC
84
84
84
84
84
84
ENDCHAR
STARTCHAR uni0440
ENCODING 1088
SWIDTH 556 0
DWIDTH 8 0
BBX 6 10 1 -3
BITMAP
B8
C4
84
84
84
C4
B8
80
80
80
ENDCHAR
STARTCHAR uni0441
ENCODING 1089
SWIDTH 500 0
DWIDTH 7 0
BBX 6 7 1 0
BITMAP
78
84
80
80
80
84
78
ENDCHAR
STARTCHAR uni0442
ENCODING 1090
SWIDTH 458 0
DWIDTH 7 0
BBX 5 7 1 0
BITMAP
F8
20
20
20
20
20
20
ENDCHAR
STARTCHAR uni0443
ENCODING 1091
SWIDTH 500 0
DWIDTH 7 0
BBX 7 10 0 -3
BITMAP
82
82
44
44
28
28
10
10
20
C0
ENDCHAR
STARTCHAR uni0444
ENCODING 1092
SWIDTH 824 0
DWIDTH 11 0
BBX 9 13 1 -3
BITMAP
0800
0800
0800
7F00
8880
8880
8880
8880
8880
7F00
0800
0800
0800
ENDCHAR
STARTCHAR uni0445
ENCODING 1093
SWIDTH 500 0
DWIDTH 6 0
BBX 6 7 0 0
BITMAP
84
48
30
30
30
48
84
ENDCHAR
STARTCHAR uni0446
ENCODING 1094
SWIDTH 574 0
DWIDTH 8 0
BBX 7 9 1 -2
BITMAP
84
84
84
84
84
84
FE
02
02
ENDCHAR
STARTCHAR uni0447
ENCODING 1095
SWIDTH 533 0
DWIDTH 8 0
BBX 6 7 1 0
BITMAP
84
84
84
84
7C
04
04
ENDCHAR
STARTCHAR uni0448
ENCODING 1096
SWIDTH 801 0
DWIDTH 11 0
BBX 9 7 1 0
BITMAP
8880
8880
8880
8880
8880
8880
FF80
ENDCHAR
STARTCHAR uni0449
ENCODING 1097
SWIDTH 819 0
DWIDTH 11 0
BBX 10 9 1 -2
BITMAP
8880
8880
8880
8880
8880
8880
FFC0
0040
0040
ENDCHAR
STARTCHAR uni044A
ENCODING 1098
SWIDTH 620 0
DWIDTH 9 0
BBX 8 7 0 0
BITMAP
E0
20
20
3E
21
21
3E
ENDCHAR
STARTCHAR uni044B
ENCODING 1099
SWIDTH 716 0
DWIDTH 10 0
BBX 8 7 1 0
BITMAP
81
81
81
F1
89
89
F1
ENDCHAR
STARTCHAR uni044C
ENCODING 1100
SWIDTH 522 0
DWIDTH 7 0
BBX 5 7 1 0
BITMAP
80
80
80
F0
88
88
F0
ENDCHAR
STARTCHAR uni044D
ENCODING 1101
SWIDTH 500 0
DWIDTH 7 0
BBX 6 7 0 0
BITMAP
78
84
04
3C
04
84
78
ENDCHAR
STARTCHAR uni044E
ENCODING 1102
SWIDTH 744 0
DWIDTH 10 0
BBX 8 7 1 0
BITMAP
9E
A1
A1
E1
A1
A1
9E
ENDCHAR
STARTCHAR uni044F
ENCODING 1103
SWIDTH 541 0
DWIDTH 8 0
BBX 6 7 1 0
BITMAP
7C
84
84
7C
24
44
84
ENDCHAR
STARTCHAR uni0450
ENCODING 1104
SWIDTH 556 0
DWIDTH 8 0
BBX 6 10 1 0
BITMAP
20
10
00
78
84
84
FC
80
84
78
ENDCHAR
STARTCHAR uni0451
ENCODING 1105
SWIDTH 556 0
DWIDTH 8 0
BBX 6 10 1 0
BITMAP
48
00
00
78
84
84
FC
80
84
78
ENDCHAR
STARTCHAR uni0452
ENCODING 1106
SWIDTH 556 0
DWIDTH 8 0
BBX 7 13 0 -3
BITMAP
40
F0
40
5C
62
42
42
42
42
42
02
02
0C
ENDCHAR
STARTCHAR uni0453
ENCODING 1107
SWIDTH 382 0
DWIDTH 5 0
BBX 4 10 1 0
BITMAP
20
40
00
F0
80
80
80
80
80
80
ENDCHAR
STARTCHAR uni0454
ENCODING 1108
SWIDTH 500 0
DWIDTH 7 0
BBX 6 7 1 0
BITMAP
78
84
80
F0
80
84
78
ENDCHAR
STARTCHAR uni0455
ENCODING 1109
SWIDTH 500 0
DWIDTH 7 0
BBX 5 7 1 0
BITMAP
70
88
80
70
08
88
70
ENDCHAR
STARTCHAR uni0456
ENCODING 1110
SWIDTH 228 0
DWIDTH 3 0
BBX 1 10 1 0
BITMAP
80
00
00
80
80
80
80
80
80
80
ENDCHAR
STARTCHAR uni0457
ENCODING 1111
SWIDTH 228 0
DWIDTH 3 0
BBX 3 10 0 0
BITMAP
A0
00
00
40
40
40
40
40
40
40
ENDCHAR
STARTCHAR uni0458
ENCODING 1112
SWIDTH 228 0
DWIDTH 3 0
BBX 2 13 0 -3
BITMAP
40
00
00
40
40
40
40
40
40
40
40
40
80
ENDCHAR
STARTCHAR uni0459
ENCODING 1113
SWIDTH 863 0
DWIDTH 12 0
BBX 11 7 0 0
BITMAP
7C00
4400
4400
47C0
4420
4420
87C0
ENDCHAR
STARTCHAR uni045A
ENCODING 1114
SWIDTH 824 0
DWIDTH 12 0
BBX 10 7 1 0
BITMAP
8800
8800
8800
FF80
8840
8840
8F80
ENDCHAR
STARTCHAR uni045B
ENCODING 1115
SWIDTH 556 0
DWIDTH 8 0
BBX 7 10 0 0
BITMAP
40
F0
40
5C
62
42
42
42
42
42
ENDCHAR
STARTCHAR uni045C
ENCODING 1116
SWIDTH 500 0
DWIDTH 7 0
BBX 6 10 1 0
BITMAP
10
20
00
88
90
A0
E0
90
88
84
ENDCHAR
STARTCHAR uni045D
ENCODING 1117
SWIDTH 559 0
DWIDTH 8 0
BBX 6 10 1 0
BITMAP
20
10
00
84
8C
94
A4
A4
C4
84
ENDCHAR
STARTCHAR uni045E
ENCODING 1118
SWIDTH 500 0
DWIDTH 7 0
BBX 7 13 0 -3
BITMAP
24
18
00
82
82
44
44
28
28
10
10
20
C0
ENDCHAR
STARTCHAR uni045F
ENCODING 1119
SWIDTH 556 0
DWIDTH 8 0
BBX 6 9 1 -2
BITMAP
84
84
84
84
84
84
FC
20
20
ENDCHAR
STARTCHAR uni0460
ENCODING 1120
SWIDTH 1171 0
DWIDTH 16 0
BBX 14 10 1 0
BITMAP
3EF0
4008
8004
8004
8004
87C4
8104
8104
4108
3EF0
ENDCHAR
STARTCHAR uni0461
ENCODING 1121
SWIDTH 738 0
DWIDTH 10 0
BBX 9 7 1 0
BITMAP
9080
9080
9100
4900
5500
3500
2200
ENDCHAR
STARTCHAR uni0462
ENCODING 1122
SWIDTH 750 0
DWIDTH 11 0
BBX 10 10 0 0
BITMAP
2000
F800
2000
2000
3F00
2080
2040
2040
2080
3F00
ENDCHAR
STARTCHAR uni0463
ENCODING 1123
SWIDTH 593 0
DWIDTH 8 0
BBX 7 10 0 0
BITMAP
20
20
20
F8
20
20
3C
22
22
3C
ENDCHAR
STARTCHAR uni0464
ENCODING 1124
SWIDTH 949 0
DWIDTH 13 0
BBX 11 10 1 0
BITMAP
8F80
9040
A020
A000
FE00
A000
A000
9020
8840
8780
ENDCHAR
STARTCHAR uni0465
ENCODING 1125
SWIDTH 719 0
DWIDTH 10 0
BBX 9 7 1 0
BITMAP
8F00
9080
A000
FE00
A000
9080
8F00
ENDCHAR
STARTCHAR uni0466
ENCODING 1126
SWIDTH 661 0
DWIDTH 9 0
BBX 9 10 0 0
BITMAP
0800
1400
1400
1400
3600
2A00
4900
4900
4900
8880
ENDCHAR
STARTCHAR uni0467
ENCODING 1127
SWIDTH 499 0
DWIDTH 7 0
BBX 7 7 0 0
BITMAP
10
28
28
44
7C
54
92
ENDCHAR
STARTCHAR uni0468
ENCODING 1128
SWIDTH 871 0
DWIDTH 12 0
BBX 10 10 1 0
BITMAP
8400
8A00
8A00
8A00
FB00
9500
A480
A480
A480
C440
ENDCHAR
STARTCHAR uni0469
ENCODING 1129
SWIDTH 684 0
DWIDTH 10 0
BBX 8 7 1 0
BITMAP
88
94
94
F4
AA
AA
C9
ENDCHAR
STARTCHAR uni046A
ENCODING 1130
SWIDTH 900 0
DWIDTH 13 0
BBX 11 10 1 0
BITMAP
FFE0
2080
1100
0A00
0E00
1500
2480
4440
8420
8420
ENDCHAR
STARTCHAR uni046B
ENCODING 1131
SWIDTH 708 0
DWIDTH 10 0
BBX 9 7 0 0
BITMAP
7F00
2200
1400
1C00
6B00
4900
8880
ENDCHAR
STARTCHAR uni046C
ENCODING 1132
SWIDTH 1120 0
DWIDTH 16 0
BBX 13 10 1 0
BITMAP
BFF8
8820
8440
8280
FF80
8540
8920
9110
A108
A108
ENDCHAR
STARTCHAR uni046D
ENCODING 1133
SWIDTH 927 0
DWIDTH 13 0
BBX 11 7 1 0
BITMAP
9FC0
8880
8500
FF00
8A80
9240
A220
ENDCHAR
STARTCHAR uni046E
ENCODING 1134
SWIDTH 634 0
DWIDTH 9 0
BBX 7 16 1 -3
BITMAP
88
70
00
78
84
04
04
38
04
02
02
04
38
40
44
3A
ENDCHAR
STARTCHAR uni046F
ENCODING 1135
SWIDTH 500 0
DWIDTH 7 0
BBX 6 13 0 -3
BITMAP
88
70
00
78
84
04
38
04
04
78
80
8C
74
ENDCHAR
STARTCHAR uni0470
ENCODING 1136
SWIDTH 809 0
DWIDTH 11 0
BBX 9 10 1 0
BITMAP
8880
8880
4880
4880
4880
2900
1E00
0800
0800
0800
ENDCHAR
STARTCHAR uni0471
ENCODING 1137
SWIDTH 689 0
DWIDTH 10 0
BBX 7 10 1 -3
BITMAP
92
92
52
52
52
52
3C
10
10
10
ENDCHAR
STARTCHAR uni0472
ENCODING 1138
SWIDTH 777 0
DWIDTH 11 0
BBX 9 10 1 0
BITMAP
3E00
4100
4100
8080
B880
C780
8080
4100
4100
3E00
ENDCHAR
STARTCHAR uni0473
ENCODING 1139
SWIDTH 556 0
DWIDTH 8 0
BBX 6 7 1 0
BITMAP
78
84
E4
9C
84
84
78
ENDCHAR
STARTCHAR uni0474
ENCODING 1140
SWIDTH 751 0
DWIDTH 11 0
BBX 12 10 0 0
BITMAP
8060
4090
4100
4100
2100
2200
1200
1400
1400
0800
ENDCHAR
STARTCHAR uni0475
ENCODING 1141
SWIDTH 580 0
DWIDTH 8 0
BBX 9 7 0 0
BITMAP
8300
4480
4400
2800
2800
1000
1000
ENDCHAR
STARTCHAR uni0476
ENCODING 1142
SWIDTH 751 0
DWIDTH 11 0
BBX 12 13 0 0
BITMAP
2400
1200
0000
8060
4090
4100
4100
2100
2200
1200
1400
1400
0800
ENDCHAR
STARTCHAR uni0477
ENCODING 1143
SWIDTH 580 0
DWIDTH 8 0
BBX 9 10 0 0
BITMAP
9000
4800
0000
8300
4480
4400
2800
2800
1000
1000
ENDCHAR
STARTCHAR uni0478
ENCODING 1144
SWIDTH 1228 0
DWIDTH 17 0
BBX 17 13 1 -3
BITMAP
3E0000
410000
808000
80A080
80A080
809100
809100
808A00
410A00
3E0400
000400
000800
003000
ENDCHAR
STARTCHAR uni0479
ENCODING 1145
SWIDTH 993 0
DWIDTH 14 0
BBX 13 10 1 -3
BITMAP
7A08
8608
8510
8510
84A0
84A0
7840
0040
0080
0300
ENDCHAR
STARTCHAR uni047A
ENCODING 1146
SWIDTH 883 0
DWIDTH 12 0
BBX 10 12 1 -1
BITMAP
0C00
3F00
4C80
8040
8040
8040
8040
8040
8040
4C80
3F00
0C00
ENDCHAR
STARTCHAR uni047B
ENCODING 1147
SWIDTH 675 0
DWIDTH 9 0
BBX 7 9 1 -1
BITMAP
10
7C
92
82
82
82
92
7C
10
ENDCHAR
STARTCHAR uni047C
ENCODING 1148
SWIDTH 1075 0
DWIDTH 15 0
BBX 13 14 1 0
BITMAP
0600
0980
0200
0200
3AE0
4510
8008
8008
8008
8008
8008
8008
4210
3DE0
ENDCHAR
STARTCHAR uni047D
ENCODING 1149
SWIDTH 700 0
DWIDTH 9 0
BBX 7 11 1 0
BITMAP
30
4C
10
10
54
AA
82
82
82
92
6C
ENDCHAR
STARTCHAR uni047E
ENCODING 1150
SWIDTH 1171 0
DWIDTH 16 0
BBX 14 14 1 0
BITMAP
0FE0
0920
0000
0000
3EF0
4008
8004
8004
8004
87C4
8104
8104
4108
3EF0
ENDCHAR
STARTCHAR uni047F
ENCODING 1151
SWIDTH 738 0
DWIDTH 10 0
BBX 9 11 1 0
BITMAP
7F00
4900
0000
0000
9080
9080
9100
4900
5500
3500
2200
ENDCHAR
STARTCHAR uni0480
ENCODING 1152
SWIDTH 722 0
DWIDTH 10 0
BBX 8 13 1 -3
BITMAP
3C
42
81
80
80
80
80
80
40
38
08
08
08
ENDCHAR
STARTCHAR uni0481
ENCODING 1153
SWIDTH 500 0
DWIDTH 7 0
BBX 6 10 1 -3
BITMAP
38
44
80
80
80
40
30
10
10
10
ENDCHAR
STARTCHAR uni0482
ENCODING 1154
SWIDTH 496 0
DWIDTH 7 0
BBX 7 10 0 0
BITMAP
04
08
68
1C
12
90
70
2C
20
40
ENDCHAR
STARTCHAR uni0483
ENCODING 1155
SWIDTH 0 0
DWIDTH 0 0
BBX 6 3 -1 8
BITMAP
0C
FC
C0
ENDCHAR
STARTCHAR uni0484
ENCODING 1156
SWIDTH 0 0
DWIDTH 0 0
BBX 5 2 0 8
BITMAP
30
C8
ENDCHAR
STARTCHAR uni0485
ENCODING 1157
SWIDTH 0 0
DWIDTH 0 0
BBX 1 2 0 8
BITMAP
80
80
ENDCHAR
STARTCHAR uni0486
ENCODING 1158
SWIDTH 0 0
DWIDTH 0 0
BBX 1 2 0 8
BITMAP
80
80
ENDCHAR
STARTCHAR uni0487
ENCODING 1159
SWIDTH 559 0
DWIDTH 8 0
BBX 6 2 1 9
BITMAP
60
9C
ENDCHAR
STARTCHAR uni0488
ENCODING 1160
SWIDTH 0 0
DWIDTH 0 0
BBX 16 14 -8 -3
BITMAP
01C0
0240
381C
4812
0000
0000
700E
9009
0000
0000
381C
4812
01C0
0240
ENDCHAR
STARTCHAR uni0489
ENCODING 1161
SWIDTH 0 0
DWIDTH 0 0
BBX 15 16 -7 -4
BITMAP
0100
0200
230C
2010
3000
0000
0000
A00C
600A
0000
0018
1008
6008
0300
0100
0200
ENDCHAR
STARTCHAR uni048A
ENCODING 1162
SWIDTH 722 0
DWIDTH 10 0
BBX 9 16 1 -3
BITMAP
2400
1800
0000
8100
8300
8500
8500
8900
9100
A100
A100
C100
8180
0080
0100
0100
ENDCHAR
STARTCHAR uni048B
ENCODING 1163
SWIDTH 559 0
DWIDTH 8 0
BBX 7 12 1 -2
BITMAP
48
30
00
84
8C
94
94
A4
C4
86
02
04
ENDCHAR
STARTCHAR uni048C
ENCODING 1164
SWIDTH 654 0
DWIDTH 9 0
BBX 8 10 0 0
BITMAP
40
E0
40
40
7E
41
41
41
41
7E
ENDCHAR
STARTCHAR uni048D
ENCODING 1165
SWIDTH 522 0
DWIDTH 7 0
BBX 6 10 0 0
BITMAP
40
E0
40
40
40
40
78
44
44
78
ENDCHAR
STARTCHAR uni048E
ENCODING 1166
SWIDTH 666 0
DWIDTH 9 0
BBX 7 10 1 0
BITMAP
FC
82
82
8A
86
FC
82
80
80
80
ENDCHAR
STARTCHAR uni048F
ENCODING 1167
SWIDTH 556 0
DWIDTH 8 0
BBX 6 10 1 -3
BITMAP
B8
C4
84
84
94
88
F8
84
80
80
ENDCHAR
STARTCHAR uni0490
ENCODING 1168
SWIDTH 556 0
DWIDTH 8 0
BBX 7 12 1 0
BITMAP
02
02
FE
80
80
80
80
80
80
80
80
80
ENDCHAR
STARTCHAR uni0491
ENCODING 1169
SWIDTH 464 0
DWIDTH 7 0
BBX 6 9 1 0
BITMAP
04
04
FC
80
80
80
80
80
80
ENDCHAR
STARTCHAR uni0492
ENCODING 1170
SWIDTH 566 0
DWIDTH 8 0
BBX 8 10 0 0
BITMAP
7F
40
40
40
FC
40
40
40
40
40
ENDCHAR
STARTCHAR uni0493
ENCODING 1171
SWIDTH 382 0
DWIDTH 5 0
BBX 5 7 0 0
BITMAP
78
40
40
F0
40
40
40
ENDCHAR
STARTCHAR uni0494
ENCODING 1172
SWIDTH 566 0
DWIDTH 8 0
BBX 6 13 1 -3
BITMAP
FC
80
80
80
80
F0
88
84
84
84
04
88
70
ENDCHAR
STARTCHAR uni0495
ENCODING 1173
SWIDTH 518 0
DWIDTH 7 0
BBX 5 10 1 -3
BITMAP
E0
80
E0
90
88
88
88
08
90
60
ENDCHAR
STARTCHAR uni0496
ENCODING 1174
SWIDTH 940 0
DWIDTH 13 0
BBX 13 12 0 -2
BITMAP
4210
2220
1240
0A80
0700
0A80
1240
2240
4220
8218
0008
0008
ENDCHAR
STARTCHAR uni0497
ENCODING 1175
SWIDTH 726 0
DWIDTH 10 0
BBX 9 9 0 -2
BITMAP
8880
4900
2A00
1C00
2A00
4900
8880
0080
0080
ENDCHAR
STARTCHAR uni0498
ENCODING 1176
SWIDTH 634 0
DWIDTH 9 0
BBX 7 13 1 -3
BITMAP
78
84
04
04
38
04
02
82
42
3C
08
08
38
ENDCHAR
STARTCHAR uni0499
ENCODING 1177
SWIDTH 500 0
DWIDTH 7 0
BBX 6 10 0 -3
BITMAP
78
84
04
38
04
84
78
10
10
70
ENDCHAR
STARTCHAR uni049A
ENCODING 1178
SWIDTH 708 0
DWIDTH 10 0
BBX 9 13 1 -3
BITMAP
8200
8400
8800
9000
B000
C800
8400
8200
8100
8180
0080
0080
0080
ENDCHAR
STARTCHAR uni049B
ENCODING 1179
SWIDTH 534 0
DWIDTH 7 0
BBX 6 9 1 -2
BITMAP
88
90
A0
E0
90
88
8C
04
04
ENDCHAR
STARTCHAR uni049C
ENCODING 1180
SWIDTH 666 0
DWIDTH 9 0
BBX 8 10 1 0
BITMAP
82
84
A8
B0
B0
E8
A8
A4
82
81
ENDCHAR
STARTCHAR uni049D
ENCODING 1181
SWIDTH 500 0
DWIDTH 7 0
BBX 6 7 1 0
BITMAP
AC
B0
A0
F0
B0
A8
84
ENDCHAR
STARTCHAR uni049E
ENCODING 1182
SWIDTH 666 0
DWIDTH 9 0
BBX 9 10 0 0
BITMAP
4180
4200
E400
4800
5000
6800
4400
4200
4100
4080
ENDCHAR
STARTCHAR uni049F
ENCODING 1183
SWIDTH 500 0
DWIDTH 7 0
BBX 7 10 0 0
BITMAP
40
E0
40
46
48
50
70
48
44
42
ENDCHAR
STARTCHAR uni04A0
ENCODING 1184
SWIDTH 826 0
DWIDTH 12 0
BBX 12 10 0 0
BITMAP
F030
1040
1180
1200
1C00
1200
1100
1080
1040
1030
ENDCHAR
STARTCHAR uni04A1
ENCODING 1185
SWIDTH 602 0
DWIDTH 8 0
BBX 8 7 0 0
BITMAP
E3
24
28
38
24
22
21
ENDCHAR
STARTCHAR uni04A2
ENCODING 1186
SWIDTH 748 0
DWIDTH 10 0
BBX 9 13 1 -3
BITMAP
8100
8100
8100
8100
FF00
8100
8100
8100
8100
8180
0080
0080
0080
ENDCHAR
STARTCHAR uni04A3
ENCODING 1187
SWIDTH 575 0
DWIDTH 8 0
BBX 7 9 1 -2
BITMAP
84
84
84
FC
84
84
86
02
02
ENDCHAR
STARTCHAR uni04A4
ENCODING 1188
SWIDTH 883 0
DWIDTH 12 0
BBX 11 10 1 0
BITMAP
81E0
8100
8100
8100
FF00
8100
8100
8100
8100
8100
ENDCHAR
STARTCHAR uni04A5
ENCODING 1189
SWIDTH 657 0
DWIDTH 9 0
BBX 8 7 1 0
BITMAP
87
84
84
FC
84
84
84
ENDCHAR
STARTCHAR uni04A6
ENCODING 1190
SWIDTH 1034 0
DWIDTH 14 0
BBX 13 13 1 -3
BITMAP
FF00
8100
8100
8100
8100
81E0
8110
8108
8108
8108
0008
0090
0060
ENDCHAR
STARTCHAR uni04A7
ENCODING 1191
SWIDTH 846 0
DWIDTH 12 0
BBX 10 10 1 -3
BITMAP
FC00
8400
8700
8480
8440
8440
8440
0040
0480
0300
ENDCHAR
STARTCHAR uni04A8
ENCODING 1192
SWIDTH 724 0
DWIDTH 10 0
BBX 8 10 1 0
BITMAP
30
46
89
89
89
89
89
89
46
3D
ENDCHAR
STARTCHAR uni04A9
ENCODING 1193
SWIDTH 524 0
DWIDTH 7 0
BBX 5 7 1 0
BITMAP
40
90
A8
A8
A8
90
78
ENDCHAR
STARTCHAR uni04AA
ENCODING 1194
SWIDTH 722 0
DWIDTH 10 0
BBX 8 13 1 -3
BITMAP
3C
42
81
80
80
80
80
81
42
3C
04
04
1C
ENDCHAR
STARTCHAR uni04AB
ENCODING 1195
SWIDTH 500 0
DWIDTH 7 0
BBX 6 10 1 -3
BITMAP
38
44
80
80
80
44
38
08
08
38
ENDCHAR
STARTCHAR uni04AC
ENCODING 1196
SWIDTH 610 0
DWIDTH 9 0
BBX 9 13 0 -3
BITMAP
FF80
0800
0800
0800
0800
0800
0800
0800
0800
0C00
0400
0400
0400
ENDCHAR
STARTCHAR uni04AD
ENCODING 1197
SWIDTH 458 0
DWIDTH 6 0
BBX 5 9 1 -2
BITMAP
F8
20
20
20
20
20
30
10
10
ENDCHAR
STARTCHAR uni04AE
ENCODING 1198
SWIDTH 666 0
DWIDTH 9 0
BBX 9 10 0 0
BITMAP
8080
8080
4100
2200
1400
0800
0800
0800
0800
0800
ENDCHAR
STARTCHAR uni04AF
ENCODING 1199
SWIDTH 500 0
DWIDTH 7 0
BBX 7 10 0 -3
BITMAP
82
44
44
44
28
28
10
10
10
10
ENDCHAR
STARTCHAR uni04B0
ENCODING 1200
SWIDTH 666 0
DWIDTH 9 0
BBX 9 10 0 0
BITMAP
8080
4100
2200
2200
1400
0800
7F00
0800
0800
0800
ENDCHAR
STARTCHAR uni04B1
ENCODING 1201
SWIDTH 500 0
DWIDTH 7 0
BBX 7 10 0 -3
BITMAP
82
44
44
44
28
28
10
7C
10
10
ENDCHAR
STARTCHAR uni04B2
ENCODING 1202
SWIDTH 705 0
DWIDTH 10 0
BBX 10 13 0 -3
BITMAP
8080
4100
2200
1400
0800
0C00
1200
2100
4080
80C0
0040
0040
0040
ENDCHAR
STARTCHAR uni04B3
ENCODING 1203
SWIDTH 528 0
DWIDTH 7 0
BBX 7 9 0 -2
BITMAP
84
48
30
10
28
44
86
02
02
ENDCHAR
STARTCHAR uni04B4
ENCODING 1204
SWIDTH 908 0
DWIDTH 13 0
BBX 13 13 0 -3
BITMAP
FF90
1010
1010
1010
1010
1010
1010
1010
1010
1FF8
0008
0008
0008
ENDCHAR
STARTCHAR uni04B5
ENCODING 1205
SWIDTH 673 0
DWIDTH 9 0
BBX 9 9 0 -2
BITMAP
FD00
2100
2100
2100
2100
2100
3F80
0080
0080
ENDCHAR
STARTCHAR uni04B6
ENCODING 1206
SWIDTH 684 0
DWIDTH 10 0
BBX 9 13 1 -3
BITMAP
8100
8100
8100
8100
8100
4300
3D00
0100
0100
0180
0080
0080
0080
ENDCHAR
STARTCHAR uni04B7
ENCODING 1207
SWIDTH 533 0
DWIDTH 7 0
BBX 6 9 1 -2
BITMAP
88
88
88
88
78
08
0C
04
04
ENDCHAR
STARTCHAR uni04B8
ENCODING 1208
SWIDTH 684 0
DWIDTH 10 0
BBX 8 10 1 0
BITMAP
81
81
81
91
91
93
7D
11
11
01
ENDCHAR
STARTCHAR uni04B9
ENCODING 1209
SWIDTH 533 0
DWIDTH 8 0
BBX 6 7 1 0
BITMAP
84
84
A4
A4
7C
24
04
ENDCHAR
STARTCHAR uni04BA
ENCODING 1210
SWIDTH 684 0
DWIDTH 10 0
BBX 8 10 1 0
BITMAP
80
80
80
FC
82
81
81
81
81
81
ENDCHAR
STARTCHAR uni04BB
ENCODING 1211
SWIDTH 556 0
DWIDTH 8 0
BBX 6 10 1 0
BITMAP
80
80
80
B8
C4
84
84
84
84
84
ENDCHAR
STARTCHAR uni04BC
ENCODING 1212
SWIDTH 880 0
DWIDTH 12 0
BBX 11 10 0 0
BITMAP
0700
18C0
1040
A020
A020
FFE0
2000
2000
1040
0F80
ENDCHAR
STARTCHAR uni04BD
ENCODING 1213
SWIDTH 653 0
DWIDTH 9 0
BBX 8 7 0 0
BITMAP
1E
A1
A1
FF
20
21
1E
ENDCHAR
STARTCHAR uni04BE
ENCODING 1214
SWIDTH 880 0
DWIDTH 12 0
BBX 11 13 0 -3
BITMAP
0700
18C0
1040
A020
A020
FFE0
2000
2000
1040
0F80
0200
0200
0200
ENDCHAR
STARTCHAR uni04BF
ENCODING 1215
SWIDTH 653 0
DWIDTH 9 0
BBX 8 9 0 -2
BITMAP
1E
A1
A1
FF
20
21
1E
04
04
ENDCHAR
STARTCHAR uni04C0
ENCODING 1216
SWIDTH 277 0
DWIDTH 3 0
BBX 1 10 1 0
BITMAP
80
80
80
80
80
80
80
80
80
80
ENDCHAR
STARTCHAR uni04C1
ENCODING 1217
SWIDTH 900 0
DWIDTH 13 0
BBX 13 13 0 0
BITMAP
0480
0300
0000
4210
2220
1240
0A80
0700
0A80
1240
2220
4210
8208
ENDCHAR
STARTCHAR uni04C2
ENCODING 1218
SWIDTH 708 0
DWIDTH 9 0
BBX 9 10 0 0
BITMAP
1200
0C00
0000
8880
4900
2A00
1C00
2A00
4900
8880
ENDCHAR
STARTCHAR uni04C3
ENCODING 1219
SWIDTH 666 0
DWIDTH 9 0
BBX 7 13 1 -3
BITMAP
82
8C
90
A0
F8
84
82
82
82
82
02
44
38
ENDCHAR
STARTCHAR uni04C4
ENCODING 1220
SWIDTH 500 0
DWIDTH 7 0
BBX 6 10 1 -3
BITMAP
8C
90
A0
F0
88
84
84
04
88
70
ENDCHAR
STARTCHAR uni04C5
ENCODING 1221
SWIDTH 705 0
DWIDTH 10 0
BBX 10 13 0 -3
BITMAP
3F80
2080
2080
2080
2080
2080
2080
2080
2080
C0C0
0040
0080
0080
ENDCHAR
STARTCHAR uni04C6
ENCODING 1222
SWIDTH 570 0
DWIDTH 8 0
BBX 7 9 1 -2
BITMAP
7C
44
44
44
44
44
C6
02
04
ENDCHAR
STARTCHAR uni04C7
ENCODING 1223
SWIDTH 722 0
DWIDTH 10 0
BBX 8 13 1 -3
BITMAP
81
81
81
81
FF
81
81
81
81
81
01
01
03
ENDCHAR
STARTCHAR uni04C8
ENCODING 1224
SWIDTH 556 0
DWIDTH 8 0
BBX 6 10 1 -3
BITMAP
84
84
84
FC
84
84
84
04
04
0C
ENDCHAR
STARTCHAR uni04C9
ENCODING 1225
SWIDTH 722 0
DWIDTH 10 0
BBX 9 13 1 -3
BITMAP
8100
8100
8100
8100
FF00
8100
8100
8100
8100
8180
0080
0100
0100
ENDCHAR
STARTCHAR uni04CA
ENCODING 1226
SWIDTH 556 0
DWIDTH 8 0
BBX 7 9 1 -2
BITMAP
84
84
84
FC
84
84
86
02
04
ENDCHAR
STARTCHAR uni04CB
ENCODING 1227
SWIDTH 684 0
DWIDTH 10 0
BBX 8 13 1 -3
BITMAP
81
81
81
81
81
43
3D
01
01
03
02
02
02
ENDCHAR
STARTCHAR uni04CC
ENCODING 1228
SWIDTH 533 0
DWIDTH 7 0
BBX 5 9 1 -2
BITMAP
88
88
88
78
08
08
18
10
10
ENDCHAR
STARTCHAR uni04CD
ENCODING 1229
SWIDTH 833 0
DWIDTH 12 0
BBX 11 13 1 -3
BITMAP
C0C0
C0C0
C0C0
A140
A140
9240
9240
8C40
8C40
8860
0020
0040
0040
ENDCHAR
STARTCHAR uni04CE
ENCODING 1230
SWIDTH 713 0
DWIDTH 10 0
BBX 9 9 1 -2
BITMAP
8100
C300
C300
A500
9900
9900
8980
0080
0100
ENDCHAR
STARTCHAR uni04CF
ENCODING 1231
SWIDTH 228 0
DWIDTH 3 0
BBX 1 10 1 0
BITMAP
80
80
80
80
80
80
80
80
80
80
ENDCHAR
STARTCHAR uni04D0
ENCODING 1232
SWIDTH 666 0
DWIDTH 9 0
BBX 9 13 0 0
BITMAP
1200
0C00
0000
0800
0800
1400
1400
2200
2200
7F00
4100
8080
8080
ENDCHAR
STARTCHAR uni04D1
ENCODING 1233
SWIDTH 556 0
DWIDTH 8 0
BBX 7 10 1 0
BITMAP
48
30
00
78
84
7C
84
84
84
7A
ENDCHAR
STARTCHAR uni04D2
ENCODING 1234
SWIDTH 666 0
DWIDTH 9 0
BBX 9 12 0 0
BITMAP
1200
0000
0800
0800
1400
1400
2200
2200
7F00
4100
8080
8080
ENDCHAR
STARTCHAR uni04D3
ENCODING 1235
SWIDTH 556 0
DWIDTH 8 0
BBX 7 10 1 0
BITMAP
48
00
00
78
84
7C
84
84
84
7A
ENDCHAR
STARTCHAR uni04D4
ENCODING 1236
SWIDTH 1000 0
DWIDTH 14 0
BBX 13 10 0 0
BITMAP
03F8
0500
0500
0900
11F0
1100
3F00
2100
4100
81F8
ENDCHAR
STARTCHAR uni04D5
ENCODING 1237
SWIDTH 889 0
DWIDTH 13 0
BBX 11 7 1 0
BITMAP
7BC0
8420
7C20
87E0
8400
8420
7BC0
ENDCHAR
STARTCHAR uni04D6
ENCODING 1238
SWIDTH 666 0
DWIDTH 9 0
BBX 7 13 1 0
BITMAP
24
18
00
FE
80
80
80
FC
80
80
80
80
FE
ENDCHAR
STARTCHAR uni04D7
ENCODING 1239
SWIDTH 556 0
DWIDTH 8 0
BBX 6 10 1 0
BITMAP
48
30
00
78
84
84
FC
80
84
78
ENDCHAR
STARTCHAR uni018F.dup7
ENCODING 1240
SWIDTH 777 0
DWIDTH 11 0
BBX 9 10 1 0
BITMAP
3C00
4200
0100
0080
FF80
8080
8080
4100
2200
1C00
ENDCHAR
STARTCHAR uni0259.dup8
ENCODING 1241
SWIDTH 556 0
DWIDTH 8 0
BBX 6 7 1 0
BITMAP
78
84
04
FC
84
84
78
ENDCHAR
STARTCHAR uni04DA
ENCODING 1242
SWIDTH 777 0
DWIDTH 11 0
BBX 9 12 1 0
BITMAP
1200
0000
3C00
4200
0100
0080
FF80
8080
8080
4100
2200
1C00
ENDCHAR
STARTCHAR uni04DB
ENCODING 1243
SWIDTH 556 0
DWIDTH 8 0
BBX 6 10 1 0
BITMAP
48
00
00
78
84
04
FC
84
84
78
ENDCHAR
STARTCHAR uni04DC
ENCODING 1244
SWIDTH 900 0
DWIDTH 13 0
BBX 13 12 0 0
BITMAP
0480
0000
4210
2220
1240
0A80
0700
0A80
1240
2220
4210
8208
ENDCHAR
STARTCHAR uni04DD
ENCODING 1245
SWIDTH 708 0
DWIDTH 9 0
BBX 9 10 0 0
BITMAP
1200
0000
0000
8880
4900
2A00
1C00
2A00
4900
8880
ENDCHAR
STARTCHAR uni04DE
ENCODING 1246
SWIDTH 634 0
DWIDTH 9 0
BBX 7 12 1 0
BITMAP
24
00
7C
82
82
02
1C
02
02
82
82
7C
ENDCHAR
STARTCHAR uni04DF
ENCODING 1247
SWIDTH 500 0
DWIDTH 7 0
BBX 6 10 0 0
BITMAP
48
00
00
78
84
04
38
04
84
78
ENDCHAR
STARTCHAR uni04E0
ENCODING 1248
SWIDTH 532 0
DWIDTH 7 0
BBX 6 10 1 0
BITMAP
FC
04
08
10
38
04
04
04
84
78
ENDCHAR
STARTCHAR uni04E1
ENCODING 1249
SWIDTH 471 0
DWIDTH 7 0
BBX 4 10 1 -3
BITMAP
F0
30
20
60
30
10
10
10
A0
E0
ENDCHAR
STARTCHAR uni04E2
ENCODING 1250
SWIDTH 722 0
DWIDTH 10 0
BBX 8 12 1 0
BITMAP
3C
00
81
83
85
89
89
91
A1
A1
C1
81
ENDCHAR
STARTCHAR uni04E3
ENCODING 1251
SWIDTH 559 0
DWIDTH 8 0
BBX 6 10 1 0
BITMAP
78
00
00
84
8C
94
A4
A4
C4
84
ENDCHAR
STARTCHAR uni04E4
ENCODING 1252
SWIDTH 722 0
DWIDTH 10 0
BBX 8 12 1 0
BITMAP
24
00
81
83
85
89
89
91
A1
A1
C1
81
ENDCHAR
STARTCHAR uni04E5
ENCODING 1253
SWIDTH 559 0
DWIDTH 8 0
BBX 6 10 1 0
BITMAP
48
00
00
84
8C
94
A4
A4
C4
84
ENDCHAR
STARTCHAR uni04E6
ENCODING 1254
SWIDTH 777 0
DWIDTH 11 0
BBX 9 12 1 0
BITMAP
1200
0000
3E00
4100
8080
8080
8080
8080
8080
8080
4100
3E00
ENDCHAR
STARTCHAR uni04E7
ENCODING 1255
SWIDTH 556 0
DWIDTH 8 0
BBX 6 10 1 0
BITMAP
48
00
00
78
84
84
84
84
84
78
ENDCHAR
STARTCHAR uni04E8
ENCODING 1256
SWIDTH 777 0
DWIDTH 11 0
BBX 9 10 1 0
BITMAP
3E00
4100
8080
8080
FF80
8080
8080
8080
4100
3E00
ENDCHAR
STARTCHAR uni04E9
ENCODING 1257
SWIDTH 556 0
DWIDTH 8 0
BBX 6 7 1 0
BITMAP
78
84
84
FC
84
84
78
ENDCHAR
STARTCHAR uni04EA
ENCODING 1258
SWIDTH 777 0
DWIDTH 11 0
BBX 9 12 1 0
BITMAP
1200
0000
3E00
4100
8080
8080
FF80
8080
8080
8080
4100
3E00
ENDCHAR
STARTCHAR uni04EB
ENCODING 1259
SWIDTH 556 0
DWIDTH 8 0
BBX 6 10 1 0
BITMAP
48
00
00
78
84
84
FC
84
84
78
ENDCHAR
STARTCHAR uni04EC
ENCODING 1260
SWIDTH 716 0
DWIDTH 9 0
BBX 8 12 0 0
BITMAP
24
00
3C
42
81
01
1F
01
01
81
42
3C
ENDCHAR
STARTCHAR uni04ED
ENCODING 1261
SWIDTH 500 0
DWIDTH 7 0
BBX 6 10 0 0
BITMAP
48
00
00
78
84
04
3C
04
84
78
ENDCHAR
STARTCHAR uni04EE
ENCODING 1262
SWIDTH 640 0
DWIDTH 9 0
BBX 9 12 0 0
BITMAP
1E00
0000
8080
4100
4100
2200
2200
1400
1400
0800
1000
6000
ENDCHAR
STARTCHAR uni04EF
ENCODING 1263
SWIDTH 500 0
DWIDTH 7 0
BBX 7 13 0 -3
BITMAP
3C
00
00
82
82
44
44
28
28
10
10
20
C0
ENDCHAR
STARTCHAR uni04F0
ENCODING 1264
SWIDTH 640 0
DWIDTH 9 0
BBX 9 12 0 0
BITMAP
1200
0000
8080
4100
4100
2200
2200
1400
1400
0800
1000
6000
ENDCHAR
STARTCHAR uni04F1
ENCODING 1265
SWIDTH 500 0
DWIDTH 7 0
BBX 7 13 0 -3
BITMAP
24
00
00
82
82
44
44
28
28
10
10
20
C0
ENDCHAR
STARTCHAR uni04F2
ENCODING 1266
SWIDTH 640 0
DWIDTH 9 0
BBX 9 13 0 0
BITMAP
0900
1200
0000
8080
4100
4100
2200
2200
1400
1400
0800
1000
6000
ENDCHAR
STARTCHAR uni04F3
ENCODING 1267
SWIDTH 500 0
DWIDTH 7 0
BBX 7 13 0 -3
BITMAP
12
24
00
82
82
44
44
28
28
10
10
20
C0
ENDCHAR
STARTCHAR uni04F4
ENCODING 1268
SWIDTH 684 0
DWIDTH 10 0
BBX 8 12 1 0
BITMAP
24
00
81
81
81
81
81
43
3D
01
01
01
ENDCHAR
STARTCHAR uni04F5
ENCODING 1269
SWIDTH 533 0
DWIDTH 8 0
BBX 6 10 1 0
BITMAP
48
00
00
84
84
84
84
7C
04
04
ENDCHAR
STARTCHAR uni04F6
ENCODING 1270
SWIDTH 566 0
DWIDTH 8 0
BBX 7 13 1 -3
BITMAP
FE
80
80
80
80
80
80
80
80
C0
40
40
40
ENDCHAR
STARTCHAR uni04F7
ENCODING 1271
SWIDTH 382 0
DWIDTH 5 0
BBX 4 9 1 -2
BITMAP
F0
80
80
80
80
80
C0
40
40
ENDCHAR
STARTCHAR uni04F8
ENCODING 1272
SWIDTH 882 0
DWIDTH 12 0
BBX 10 12 1 0
BITMAP
1200
0000
8040
8040
8040
8040
FC40
8240
8240
8240
8240
FC40
ENDCHAR
STARTCHAR uni04F9
ENCODING 1273
SWIDTH 716 0
DWIDTH 10 0
BBX 8 10 1 0
BITMAP
24
00
00
81
81
81
F1
89
89
F1
ENDCHAR
STARTCHAR uni04FA
ENCODING 1274
SWIDTH 584 0
DWIDTH 8 0
BBX 8 13 0 -3
BITMAP
7F
40
40
40
FC
40
40
40
40
60
20
20
60
ENDCHAR
STARTCHAR uni04FB
ENCODING 1275
SWIDTH 382 0
DWIDTH 5 0
BBX 5 10 0 -3
BITMAP
78
40
40
F0
40
40
60
20
20
60
ENDCHAR
STARTCHAR uni04FC
ENCODING 1276
SWIDTH 715 0
DWIDTH 10 0
BBX 10 13 0 -3
BITMAP
8080
4100
2200
1400
0800
0800
1400
2200
4100
80C0
0040
0040
00C0
ENDCHAR
STARTCHAR uni04FD
ENCODING 1277
SWIDTH 550 0
DWIDTH 8 0
BBX 7 10 0 -3
BITMAP
84
48
30
30
30
48
86
02
02
06
ENDCHAR
STARTCHAR uni04FE
ENCODING 1278
SWIDTH 666 0
DWIDTH 9 0
BBX 9 10 0 0
BITMAP
8080
4100
2200
1400
7F00
0800
1400
2200
4100
8080
ENDCHAR
STARTCHAR uni04FF
ENCODING 1279
SWIDTH 500 0
DWIDTH 7 0
BBX 7 7 0 0
BITMAP
82
44
28
7C
28
44
82
ENDCHAR
STARTCHAR uni0500
ENCODING 1280
SWIDTH 654 0
DWIDTH 9 0
BBX 7 10 1 0
BITMAP
02
02
02
02
7E
82
82
82
82
7E
ENDCHAR
STARTCHAR uni0501
ENCODING 1281
SWIDTH 556 0
DWIDTH 8 0
BBX 6 10 1 0
BITMAP
04
04
04
74
8C
84
84
84
8C
74
ENDCHAR
STARTCHAR uni0502
ENCODING 1282
SWIDTH 977 0
DWIDTH 14 0
BBX 12 10 1 0
BITMAP
0200
0200
0200
0200
7E10
8210
8210
8210
8210
7DE0
ENDCHAR
STARTCHAR uni0503
ENCODING 1283
SWIDTH 892 0
DWIDTH 13 0
BBX 11 10 1 0
BITMAP
0400
0400
0400
7C20
8420
8420
8420
8420
8420
7BC0
ENDCHAR
STARTCHAR uni0504
ENCODING 1284
SWIDTH 985 0
DWIDTH 14 0
BBX 12 10 1 0
BITMAP
7800
8400
0400
0400
3810
0410
0210
0210
0210
01E0
ENDCHAR
STARTCHAR uni0505
ENCODING 1285
SWIDTH 867 0
DWIDTH 12 0
BBX 11 7 0 0
BITMAP
7820
8420
0420
3820
0420
0420
03C0
ENDCHAR
STARTCHAR uni0506
ENCODING 1286
SWIDTH 688 0
DWIDTH 10 0
BBX 9 13 1 -3
BITMAP
7C00
8200
0200
0400
3C00
0200
0100
0100
0100
0180
0080
0080
0080
ENDCHAR
STARTCHAR uni0507
ENCODING 1287
SWIDTH 550 0
DWIDTH 8 0
BBX 7 9 0 -2
BITMAP
78
84
04
38
04
04
06
02
02
ENDCHAR
STARTCHAR uni0508
ENCODING 1288
SWIDTH 1027 0
DWIDTH 14 0
BBX 13 10 0 0
BITMAP
3F80
2080
2080
2088
2088
2088
2088
2088
2088
C070
ENDCHAR
STARTCHAR uni0509
ENCODING 1289
SWIDTH 905 0
DWIDTH 13 0
BBX 11 7 1 0
BITMAP
7C20
4420
4420
4420
4420
4420
C3C0
ENDCHAR
STARTCHAR uni050A
ENCODING 1290
SWIDTH 1044 0
DWIDTH 15 0
BBX 13 10 1 0
BITMAP
8100
8100
8100
8108
FF08
8108
8108
8108
8108
80F0
ENDCHAR
STARTCHAR uni050B
ENCODING 1291
SWIDTH 890 0
DWIDTH 12 0
BBX 10 7 1 0
BITMAP
8800
8800
8800
F840
8840
8840
8780
ENDCHAR
STARTCHAR uni050C
ENCODING 1292
SWIDTH 777 0
DWIDTH 11 0
BBX 9 10 1 0
BITMAP
3E00
4100
8080
8000
8000
8780
8080
8080
4100
3E00
ENDCHAR
STARTCHAR uni050D
ENCODING 1293
SWIDTH 584 0
DWIDTH 8 0
BBX 6 7 1 0
BITMAP
78
84
80
8C
84
84
78
ENDCHAR
STARTCHAR uni050E
ENCODING 1294
SWIDTH 754 0
DWIDTH 11 0
BBX 8 10 2 0
BITMAP
FE
10
10
11
11
11
11
11
11
0E
ENDCHAR
STARTCHAR uni050F
ENCODING 1295
SWIDTH 677 0
DWIDTH 9 0
BBX 7 7 1 0
BITMAP
F8
20
20
22
22
22
1C
ENDCHAR
STARTCHAR uni0510
ENCODING 1296
SWIDTH 634 0
DWIDTH 9 0
BBX 7 10 1 0
BITMAP
3C
42
40
40
38
40
80
82
44
38
ENDCHAR
STARTCHAR uni0511
ENCODING 1297
SWIDTH 500 0
DWIDTH 7 0
BBX 6 7 1 0
BITMAP
78
84
80
70
80
84
78
ENDCHAR
STARTCHAR uni0512
ENCODING 1298
SWIDTH 705 0
DWIDTH 10 0
BBX 9 13 0 -3
BITMAP
3F80
2080
2080
2080
2080
2080
2080
2080
2080
C080
0080
0080
0180
ENDCHAR
STARTCHAR uni0513
ENCODING 1299
SWIDTH 570 0
DWIDTH 8 0
BBX 7 10 0 -3
BITMAP
7E
42
42
42
42
42
82
02
02
06
ENDCHAR
STARTCHAR uni0514
ENCODING 1300
SWIDTH 940 0
DWIDTH 13 0
BBX 13 10 0 0
BITMAP
3C18
2630
2360
2140
2080
21C0
2360
2220
2630
CC18
ENDCHAR
STARTCHAR uni0515
ENCODING 1301
SWIDTH 734 0
DWIDTH 10 0
BBX 10 7 0 0
BITMAP
3CC0
2580
2700
2300
2700
6C80
D8C0
ENDCHAR
STARTCHAR uni0516
ENCODING 1302
SWIDTH 785 0
DWIDTH 11 0
BBX 10 10 1 0
BITMAP
F8C0
8500
8700
8600
8C00
FA00
8300
8100
8180
80C0
ENDCHAR
STARTCHAR uni0517
ENCODING 1303
SWIDTH 719 0
DWIDTH 10 0
BBX 9 10 1 -3
BITMAP
B980
CF00
8600
8400
8600
CF00
B980
8000
8000
8000
ENDCHAR
STARTCHAR uni0518
ENCODING 1304
SWIDTH 1134 0
DWIDTH 16 0
BBX 14 10 1 0
BITMAP
7FFC
C100
8100
C100
7FFC
6100
4100
C100
C100
81FC
ENDCHAR
STARTCHAR uni0519
ENCODING 1305
SWIDTH 899 0
DWIDTH 13 0
BBX 12 7 0 0
BITMAP
7FE0
4630
4610
3FF0
2600
6230
C1E0
ENDCHAR
STARTCHAR uni051A
ENCODING 1306
SWIDTH 777 0
DWIDTH 11 0
BBX 9 10 1 0
BITMAP
3E00
4100
8080
8080
8080
8080
8080
8280
4100
3E80
ENDCHAR
STARTCHAR uni051B
ENCODING 1307
SWIDTH 556 0
DWIDTH 8 0
BBX 6 10 1 -3
BITMAP
74
8C
84
84
84
8C
74
04
04
04
ENDCHAR
STARTCHAR uni051C
ENCODING 1308
SWIDTH 943 0
DWIDTH 13 0
BBX 13 10 0 0
BITMAP
8208
8208
8508
4510
4510
28A0
28A0
28A0
1040
1040
ENDCHAR
STARTCHAR uni051D
ENCODING 1309
SWIDTH 722 0
DWIDTH 9 0
BBX 9 7 0 0
BITMAP
8880
8880
5500
5500
5500
2200
2200
ENDCHAR
STARTCHAR uni051E
ENCODING 1310
SWIDTH 666 0
DWIDTH 9 0
BBX 8 10 1 0
BITMAP
8B
9E
8C
9A
B0
F8
8C
84
86
83
ENDCHAR
STARTCHAR uni051F
ENCODING 1311
SWIDTH 500 0
DWIDTH 7 0
BBX 6 7 1 0
BITMAP
AC
90
A8
F0
90
98
8C
ENDCHAR
STARTCHAR uni0520
ENCODING 1312
SWIDTH 1019 0
DWIDTH 14 0
BBX 13 13 0 -3
BITMAP
3E00
2200
2200
22F0
2318
2208
2208
2208
2208
C208
0008
0008
0070
ENDCHAR
STARTCHAR uni0521
ENCODING 1313
SWIDTH 874 0
DWIDTH 12 0
BBX 12 10 0 -3
BITMAP
3E00
2200
23E0
2220
2230
6230
C230
0030
0030
0060
ENDCHAR
STARTCHAR uni0522
ENCODING 1314
SWIDTH 1150 0
DWIDTH 16 0
BBX 14 13 1 -3
BITMAP
8100
8100
8100
8100
FFF8
810C
8104
8104
8104
8104
0004
0004
0078
ENDCHAR
STARTCHAR uni0523
ENCODING 1315
SWIDTH 861 0
DWIDTH 12 0
BBX 10 10 1 -3
BITMAP
8400
8400
87C0
FC40
8440
8440
8440
0040
0040
00C0
ENDCHAR
STARTCHAR uni0524
ENCODING 1316
SWIDTH 722 0
DWIDTH 10 0
BBX 9 12 1 -2
BITMAP
FF00
8100
8100
8100
8100
8100
8100
8100
8100
8180
0080
0080
ENDCHAR
STARTCHAR uni0525
ENCODING 1317
SWIDTH 556 0
DWIDTH 8 0
BBX 7 9 1 -2
BITMAP
FC
84
84
84
84
84
86
02
02
ENDCHAR
STARTCHAR uni0526
ENCODING 1318
SWIDTH 684 0
DWIDTH 10 0
BBX 9 12 1 -2
BITMAP
8000
8000
8000
BC00
C200
8300
8300
8300
8300
8380
0080
0080
ENDCHAR
STARTCHAR uni0527
ENCODING 1319
SWIDTH 556 0
DWIDTH 8 0
BBX 7 12 1 -2
BITMAP
80
80
80
B8
CC
84
84
84
84
86
02
02
ENDCHAR
STARTCHAR uni0528
ENCODING 1320
SWIDTH 722 0
DWIDTH 10 0
BBX 9 13 0 -3
BITMAP
4080
4080
4080
4080
7F80
4080
4080
4080
4080
4080
4000
4000
C000
ENDCHAR
STARTCHAR uni0529
ENCODING 1321
SWIDTH 556 0
DWIDTH 8 0
BBX 8 10 -1 -3
BITMAP
21
21
21
3F
21
21
21
20
20
E0
ENDCHAR
STARTCHAR uni052A
ENCODING 1322
SWIDTH 1436 0
DWIDTH 20 0
BBX 20 12 0 -2
BITMAP
3F8830
308840
308980
308B00
30FF00
208D80
2088C0
208840
608860
FFE830
C06000
C06000
ENDCHAR
STARTCHAR uni052B
ENCODING 1323
SWIDTH 1087 0
DWIDTH 15 0
BBX 15 9 0 -2
BITMAP
3E46
2248
2250
23F8
6248
4244
FF46
8100
8100
ENDCHAR
STARTCHAR uni052C
ENCODING 1324
SWIDTH 774 0
DWIDTH 11 0
BBX 11 12 0 -2
BITMAP
2080
2180
2280
2680
2480
3980
1E80
3080
6080
FFE0
C060
C060
ENDCHAR
STARTCHAR uni052D
ENCODING 1325
SWIDTH 604 0
DWIDTH 8 0
BBX 8 9 0 -2
BITMAP
66
6E
7A
3E
22
42
FF
81
81
ENDCHAR
STARTCHAR uni052E
ENCODING 1326
SWIDTH 705 0
DWIDTH 10 0
BBX 10 13 0 -3
BITMAP
3F80
2180
2180
2180
2180
2180
2180
2180
2180
C1C0
0040
0040
0040
ENDCHAR
STARTCHAR uni052F
ENCODING 1327
SWIDTH 570 0
DWIDTH 8 0
BBX 8 9 0 -2
BITMAP
3E
22
22
22
22
62
C3
01
01
ENDCHAR
STARTCHAR uni0531
ENCODING 1329
SWIDTH 737 0
DWIDTH 10 0
BBX 9 10 1 0
BITMAP
8100
8100
8100
8100
8100
8100
8100
CD00
4300
3D80
ENDCHAR
STARTCHAR uni0532
ENCODING 1330
SWIDTH 712 0
DWIDTH 10 0
BBX 8 10 1 0
BITMAP
3C
42
C3
83
81
80
FF
80
80
80
ENDCHAR
STARTCHAR uni0533
ENCODING 1331
SWIDTH 748 0
DWIDTH 10 0
BBX 9 10 1 0
BITMAP
7C00
C200
8300
8300
8300
C300
7F80
0300
0300
0300
ENDCHAR
STARTCHAR uni0534
ENCODING 1332
SWIDTH 733 0
DWIDTH 10 0
BBX 9 10 1 0
BITMAP
7C00
C600
8200
8200
0200
0200
0380
0200
0200
0200
ENDCHAR
STARTCHAR uni0535
ENCODING 1333
SWIDTH 716 0
DWIDTH 10 0
BBX 8 10 1 0
BITMAP
80
80
80
FF
80
80
81
C3
42
3C
ENDCHAR
STARTCHAR uni0536
ENCODING 1334
SWIDTH 729 0
DWIDTH 10 0
BBX 8 10 1 0
BITMAP
3C
42
C1
81
81
03
02
06
8C
FF
ENDCHAR
STARTCHAR uni0537
ENCODING 1335
SWIDTH 631 0
DWIDTH 9 0
BBX 7 10 1 0
BITMAP
C0
C0
C0
FE
C0
C0
C0
C0
C0
FC
ENDCHAR
STARTCHAR uni0538
ENCODING 1336
SWIDTH 712 0
DWIDTH 10 0
BBX 8 10 1 0
BITMAP
3C
42
C3
83
81
80
80
80
80
FF
ENDCHAR
STARTCHAR uni0539
ENCODING 1337
SWIDTH 806 0
DWIDTH 11 0
BBX 10 10 1 0
BITMAP
3E00
4300
C180
8080
8FC0
9980
9180
9180
9900
8F00
ENDCHAR
STARTCHAR uni053A
ENCODING 1338
SWIDTH 743 0
DWIDTH 10 0
BBX 9 10 1 0
BITMAP
0300
0300
0300
7F80
C300
8300
8300
8200
C200
7C00
ENDCHAR
STARTCHAR uni053B
ENCODING 1339
SWIDTH 690 0
DWIDTH 10 0
BBX 8 10 1 0
BITMAP
C0
C0
C0
FC
C2
C1
C1
C0
C0
C0
ENDCHAR
STARTCHAR uni053C
ENCODING 1340
SWIDTH 527 0
DWIDTH 7 0
BBX 7 10 1 0
BITMAP
80
80
80
80
80
80
80
80
80
FE
ENDCHAR
STARTCHAR uni053D
ENCODING 1341
SWIDTH 894 0
DWIDTH 13 0
BBX 10 10 1 0
BITMAP
C000
C000
C000
F840
C840
C840
C840
C840
CC40
C780
ENDCHAR
STARTCHAR uni053E
ENCODING 1342
SWIDTH 786 0
DWIDTH 11 0
BBX 10 11 0 0
BITMAP
C000
7FC0
3180
20C0
60C0
4040
4040
60C0
2080
3180
1F00
ENDCHAR
STARTCHAR uni053F
ENCODING 1343
SWIDTH 712 0
DWIDTH 10 0
BBX 8 10 1 0
BITMAP
80
80
80
81
C3
43
3D
01
01
01
ENDCHAR
STARTCHAR uni0540
ENCODING 1344
SWIDTH 610 0
DWIDTH 9 0
BBX 7 10 0 0
BITMAP
7C
06
02
06
FC
02
02
02
02
02
ENDCHAR
STARTCHAR uni0541
ENCODING 1345
SWIDTH 724 0
DWIDTH 10 0
BBX 8 10 1 0
BITMAP
3C
42
C1
81
01
03
72
8E
8E
71
ENDCHAR
STARTCHAR uni0542
ENCODING 1346
SWIDTH 733 0
DWIDTH 10 0
BBX 9 10 1 0
BITMAP
7C00
C600
8200
8200
0200
0200
0200
0200
0200
0380
ENDCHAR
STARTCHAR uni0543
ENCODING 1347
SWIDTH 707 0
DWIDTH 10 0
BBX 8 10 1 0
BITMAP
0E
18
20
F8
4C
C2
C3
81
81
FF
ENDCHAR
STARTCHAR uni0544
ENCODING 1348
SWIDTH 759 0
DWIDTH 11 0
BBX 10 10 1 0
BITMAP
81C0
8100
8100
8100
8100
8100
8100
C300
4200
3C00
ENDCHAR
STARTCHAR uni0545
ENCODING 1349
SWIDTH 729 0
DWIDTH 10 0
BBX 8 10 1 0
BITMAP
3C
C3
03
03
FC
03
01
81
C3
3C
ENDCHAR
STARTCHAR uni0546
ENCODING 1350
SWIDTH 733 0
DWIDTH 10 0
BBX 10 10 0 0
BITMAP
E000
2000
2000
2000
2000
2000
20C0
2080
3080
1F00
ENDCHAR
STARTCHAR uni0547
ENCODING 1351
SWIDTH 718 0
DWIDTH 10 0
BBX 8 10 1 0
BITMAP
F0
1C
7F
C1
C0
81
81
C3
42
3C
ENDCHAR
STARTCHAR uni0548
ENCODING 1352
SWIDTH 712 0
DWIDTH 10 0
BBX 8 10 1 0
BITMAP
3C
42
C3
81
81
81
81
81
81
81
ENDCHAR
STARTCHAR uni0549
ENCODING 1353
SWIDTH 714 0
DWIDTH 10 0
BBX 8 10 1 0
BITMAP
3C
42
C3
81
81
03
03
66
38
04
ENDCHAR
STARTCHAR uni054A
ENCODING 1354
SWIDTH 808 0
DWIDTH 11 0
BBX 9 10 1 0
BITMAP
3E00
C900
8880
8880
0880
0880
0880
0080
0080
0080
ENDCHAR
STARTCHAR uni054B
ENCODING 1355
SWIDTH 766 0
DWIDTH 11 0
BBX 9 10 1 0
BITMAP
3E00
6300
C100
C180
C180
F900
0F00
0600
CC00
FF80
ENDCHAR
STARTCHAR uni054C
ENCODING 1356
SWIDTH 759 0
DWIDTH 11 0
BBX 10 10 1 0
BITMAP
3C00
4200
C300
8100
8100
8100
81C0
8100
8100
8100
ENDCHAR
STARTCHAR uni054D
ENCODING 1357
SWIDTH 712 0
DWIDTH 10 0
BBX 8 10 1 0
BITMAP
81
81
81
81
81
81
81
C3
42
3C
ENDCHAR
STARTCHAR uni054E
ENCODING 1358
SWIDTH 733 0
DWIDTH 10 0
BBX 9 10 1 0
BITMAP
0200
0200
0200
8200
8200
C600
7E00
0200
0200
0380
ENDCHAR
STARTCHAR uni054F
ENCODING 1359
SWIDTH 716 0
DWIDTH 10 0
BBX 8 10 1 0
BITMAP
3C
42
C3
C0
78
06
01
81
C3
3E
ENDCHAR
STARTCHAR uni0550
ENCODING 1360
SWIDTH 686 0
DWIDTH 10 0
BBX 8 10 1 0
BITMAP
3C
42
C3
81
80
80
80
80
80
80
ENDCHAR
STARTCHAR uni0551
ENCODING 1361
SWIDTH 734 0
DWIDTH 10 0
BBX 8 10 1 0
BITMAP
3E
43
C1
43
3E
C3
01
81
C3
3E
ENDCHAR
STARTCHAR uni0552
ENCODING 1362
SWIDTH 503 0
DWIDTH 7 0
BBX 6 10 1 0
BITMAP
C0
C0
C0
FC
C0
C0
C0
C0
C0
C0
ENDCHAR
STARTCHAR uni0553
ENCODING 1363
SWIDTH 852 0
DWIDTH 12 0
BBX 11 10 1 0
BITMAP
0400
3F80
4440
8420
8420
8420
8420
4440
3F80
0400
ENDCHAR
STARTCHAR uni0554
ENCODING 1364
SWIDTH 696 0
DWIDTH 10 0
BBX 9 10 0 0
BITMAP
1E00
3100
6180
6080
6180
7100
7E00
6000
FF80
6000
ENDCHAR
STARTCHAR uni0555
ENCODING 1365
SWIDTH 777 0
DWIDTH 11 0
BBX 9 10 1 0
BITMAP
3E00
4100
8080
8080
8080
8080
8080
8080
4100
3E00
ENDCHAR
STARTCHAR uni0556
ENCODING 1366
SWIDTH 798 0
DWIDTH 11 0
BBX 9 10 1 0
BITMAP
7800
4800
4800
3E00
0980
0880
8880
8880
C980
3E00
ENDCHAR
STARTCHAR uni0559
ENCODING 1369
SWIDTH 222 0
DWIDTH 3 0
BBX 2 3 1 7
BITMAP
80
80
40
ENDCHAR
STARTCHAR uni055A
ENCODING 1370
SWIDTH 222 0
DWIDTH 3 0
BBX 2 3 0 7
BITMAP
40
40
80
ENDCHAR
STARTCHAR uni055B
ENCODING 1371
SWIDTH 182 0
DWIDTH 3 0
BBX 2 2 1 8
BITMAP
40
80
ENDCHAR
STARTCHAR uni055C
ENCODING 1372
SWIDTH 201 0
DWIDTH 3 0
BBX 3 3 0 8
BITMAP
20
C0
80
ENDCHAR
STARTCHAR uni055D
ENCODING 1373
SWIDTH 220 0
DWIDTH 3 0
BBX 3 2 0 8
BITMAP
C0
60
ENDCHAR
STARTCHAR uni055E
ENCODING 1374
SWIDTH 249 0
DWIDTH 4 0
BBX 3 3 0 8
BITMAP
60
A0
A0
ENDCHAR
STARTCHAR uni055F
ENCODING 1375
SWIDTH 513 0
DWIDTH 7 0
BBX 7 2 0 11
BITMAP
80
FE
ENDCHAR
STARTCHAR uni0560
ENCODING 1376
SWIDTH 833 0
DWIDTH 12 0
BBX 10 7 1 0
BITMAP
BB80
CCC0
8CC0
8CC0
8CC0
8CC0
8CC0
ENDCHAR
STARTCHAR uni0561
ENCODING 1377
SWIDTH 834 0
DWIDTH 12 0
BBX 10 7 1 0
BITMAP
88C0
88C0
88C0
88C0
88C0
8CC0
77C0
ENDCHAR
STARTCHAR uni0562
ENCODING 1378
SWIDTH 559 0
DWIDTH 8 0
BBX 6 10 1 -3
BITMAP
B8
CC
84
84
84
80
FC
80
80
80
ENDCHAR
STARTCHAR uni0563
ENCODING 1379
SWIDTH 604 0
DWIDTH 8 0
BBX 7 10 1 -3
BITMAP
74
CC
84
84
84
CC
76
04
04
04
ENDCHAR
STARTCHAR uni0564
ENCODING 1380
SWIDTH 598 0
DWIDTH 8 0
BBX 7 10 1 -3
BITMAP
B8
CC
84
84
84
84
86
04
04
04
ENDCHAR
STARTCHAR uni0565
ENCODING 1381
SWIDTH 556 0
DWIDTH 8 0
BBX 6 10 1 0
BITMAP
80
80
80
FC
80
84
84
84
8C
74
ENDCHAR
STARTCHAR uni0566
ENCODING 1382
SWIDTH 564 0
DWIDTH 8 0
BBX 7 10 1 -3
BITMAP
74
CC
84
84
84
CC
74
04
04
06
ENDCHAR
STARTCHAR uni0567
ENCODING 1383
SWIDTH 509 0
DWIDTH 7 0
BBX 6 10 1 0
BITMAP
80
80
80
FC
80
80
80
80
80
F8
ENDCHAR
STARTCHAR uni0568
ENCODING 1384
SWIDTH 556 0
DWIDTH 8 0
BBX 6 10 1 -3
BITMAP
B8
CC
84
84
84
84
84
80
80
FC
ENDCHAR
STARTCHAR uni0569
ENCODING 1385
SWIDTH 673 0
DWIDTH 9 0
BBX 8 10 1 -3
BITMAP
BC
C6
82
9F
B2
B2
9C
80
80
80
ENDCHAR
STARTCHAR uni056A
ENCODING 1386
SWIDTH 604 0
DWIDTH 8 0
BBX 7 10 1 0
BITMAP
04
04
04
7E
C4
84
84
84
CC
78
ENDCHAR
STARTCHAR uni056B
ENCODING 1387
SWIDTH 559 0
DWIDTH 8 0
BBX 6 13 1 -3
BITMAP
80
80
80
B8
CC
84
84
84
84
84
80
80
80
ENDCHAR
STARTCHAR uni056C
ENCODING 1388
SWIDTH 229 0
DWIDTH 3 0
BBX 3 10 1 -3
BITMAP
80
80
80
80
80
80
80
80
80
E0
ENDCHAR
STARTCHAR uni056D
ENCODING 1389
SWIDTH 836 0
DWIDTH 12 0
BBX 10 13 1 -3
BITMAP
8000
8000
8000
B8C0
C8C0
8CC0
8CC0
8CC0
8CC0
87C0
8000
8000
8000
ENDCHAR
STARTCHAR uni056E
ENCODING 1390
SWIDTH 557 0
DWIDTH 8 0
BBX 6 10 1 0
BITMAP
60
C0
60
7C
CC
84
84
84
CC
78
ENDCHAR
STARTCHAR uni056F
ENCODING 1391
SWIDTH 556 0
DWIDTH 8 0
BBX 6 13 1 -3
BITMAP
80
80
80
84
84
84
84
84
8C
74
04
04
04
ENDCHAR
STARTCHAR uni0570
ENCODING 1392
SWIDTH 556 0
DWIDTH 8 0
BBX 6 10 1 0
BITMAP
80
80
80
B8
C4
84
84
84
84
84
ENDCHAR
STARTCHAR uni0571
ENCODING 1393
SWIDTH 538 0
DWIDTH 8 0
BBX 6 10 1 0
BITMAP
60
60
30
70
C8
8C
8C
8C
8C
FC
ENDCHAR
STARTCHAR uni0572
ENCODING 1394
SWIDTH 556 0
DWIDTH 8 0
BBX 7 10 1 -3
BITMAP
B8
CC
84
84
84
84
84
04
04
06
ENDCHAR
STARTCHAR uni0573
ENCODING 1395
SWIDTH 554 0
DWIDTH 8 0
BBX 6 10 1 0
BITMAP
1C
30
60
F0
C8
8C
84
84
8C
74
ENDCHAR
STARTCHAR uni0574
ENCODING 1396
SWIDTH 556 0
DWIDTH 8 0
BBX 7 10 1 0
BITMAP
0E
18
0C
84
84
84
84
84
8C
74
ENDCHAR
STARTCHAR uni0575
ENCODING 1397
SWIDTH 241 0
DWIDTH 3 0
BBX 3 10 0 -3
BITMAP
40
40
40
40
40
40
40
60
60
C0
ENDCHAR
STARTCHAR uni0576
ENCODING 1398
SWIDTH 556 0
DWIDTH 8 0
BBX 6 10 1 0
BITMAP
E0
80
C0
84
84
84
84
84
8C
74
ENDCHAR
STARTCHAR uni0577
ENCODING 1399
SWIDTH 488 0
DWIDTH 7 0
BBX 6 10 0 -3
BITMAP
78
CC
04
04
0C
18
30
40
C0
7C
ENDCHAR
STARTCHAR uni0578
ENCODING 1400
SWIDTH 556 0
DWIDTH 8 0
BBX 6 7 1 0
BITMAP
B8
C4
84
84
84
84
84
ENDCHAR
STARTCHAR uni0579
ENCODING 1401
SWIDTH 342 0
DWIDTH 5 0
BBX 5 10 0 -3
BITMAP
40
40
40
60
30
10
20
40
C0
F8
ENDCHAR
STARTCHAR uni057A
ENCODING 1402
SWIDTH 834 0
DWIDTH 12 0
BBX 10 10 1 -3
BITMAP
88C0
88C0
88C0
88C0
88C0
8CC0
77C0
00C0
00C0
00C0
ENDCHAR
STARTCHAR uni057B
ENCODING 1403
SWIDTH 527 0
DWIDTH 7 0
BBX 7 10 0 -3
BITMAP
3C
46
42
46
64
2C
38
60
C0
7C
ENDCHAR
STARTCHAR uni057C
ENCODING 1404
SWIDTH 581 0
DWIDTH 8 0
BBX 6 7 1 0
BITMAP
B8
C4
84
84
84
88
8C
ENDCHAR
STARTCHAR uni057D
ENCODING 1405
SWIDTH 556 0
DWIDTH 8 0
BBX 6 7 1 0
BITMAP
84
84
84
84
84
8C
74
ENDCHAR
STARTCHAR uni057E
ENCODING 1406
SWIDTH 556 0
DWIDTH 8 0
BBX 7 13 1 -3
BITMAP
04
04
04
84
84
84
84
84
8C
74
04
04
06
ENDCHAR
STARTCHAR uni057F
ENCODING 1407
SWIDTH 831 0
DWIDTH 12 0
BBX 10 7 1 0
BITMAP
8B80
8CC0
88C0
88C0
88C0
88C0
78C0
ENDCHAR
STARTCHAR uni0580
ENCODING 1408
SWIDTH 556 0
DWIDTH 8 0
BBX 6 10 1 -3
BITMAP
B8
CC
84
84
84
84
84
80
80
80
ENDCHAR
STARTCHAR uni0581
ENCODING 1409
SWIDTH 556 0
DWIDTH 8 0
BBX 6 10 1 -3
BITMAP
74
8C
84
84
84
8C
74
04
04
78
ENDCHAR
STARTCHAR uni0582
ENCODING 1410
SWIDTH 423 0
DWIDTH 6 0
BBX 5 7 1 0
BITMAP
80
80
80
80
80
80
F8
ENDCHAR
STARTCHAR uni0583
ENCODING 1411
SWIDTH 831 0
DWIDTH 12 0
BBX 10 13 1 -3
BITMAP
0800
0800
0800
8B80
8CC0
88C0
88C0
88C0
88C0
78C0
0800
0800
0800
ENDCHAR
STARTCHAR uni0584
ENCODING 1412
SWIDTH 567 0
DWIDTH 8 0
BBX 7 10 0 -3
BITMAP
5C
66
42
42
42
66
5C
40
FE
40
ENDCHAR
STARTCHAR uni0585
ENCODING 1413
SWIDTH 556 0
DWIDTH 8 0
BBX 6 7 1 0
BITMAP
78
84
84
84
84
84
78
ENDCHAR
STARTCHAR uni0586
ENCODING 1414
SWIDTH 742 0
DWIDTH 10 0
BBX 10 13 0 -3
BITMAP
3C00
2C00
2C00
3F00
0C80
0CC0
CC40
CCC0
6C80
3F00
0C00
0C00
0C00
ENDCHAR
STARTCHAR uni0587
ENCODING 1415
SWIDTH 751 0
DWIDTH 11 0
BBX 10 10 1 0
BITMAP
8000
8000
8000
8400
8400
8400
8400
8400
8C00
77C0
ENDCHAR
STARTCHAR uni0588
ENCODING 1416
SWIDTH 241 0
DWIDTH 3 0
BBX 4 10 0 -3
BITMAP
40
40
40
40
40
40
F0
60
60
C0
ENDCHAR
STARTCHAR uni0589
ENCODING 1417
SWIDTH 277 0
DWIDTH 4 0
BBX 1 7 1 0
BITMAP
80
00
00
00
00
00
80
ENDCHAR
STARTCHAR uni058A
ENCODING 1418
SWIDTH 300 0
DWIDTH 4 0
BBX 4 2 0 3
BITMAP
90
F0
ENDCHAR
STARTCHAR uni058D
ENCODING 1421
SWIDTH 1000 0
DWIDTH 14 0
BBX 12 13 1 -3
BITMAP
0F00
33C0
5420
65E0
9A10
97D0
CF30
BA90
8590
7A60
42A0
3DC0
0600
ENDCHAR
STARTCHAR uni058E
ENCODING 1422
SWIDTH 1000 0
DWIDTH 14 0
BBX 12 13 1 -3
BITMAP
0F00
3CC0
42A0
7A60
8590
BE90
CF30
95D0
9A10
65E0
5420
3BC0
0600
ENDCHAR
STARTCHAR uni058F
ENCODING 1423
SWIDTH 607 0
DWIDTH 9 0
BBX 8 10 0 0
BITMAP
3C
42
C2
C3
03
0F
03
0F
03
03
ENDCHAR
STARTCHAR uni0591
ENCODING 1425
SWIDTH 0 0
DWIDTH 0 0
BBX 3 3 -1 -3
BITMAP
40
E0
A0
ENDCHAR
STARTCHAR uni0592
ENCODING 1426
SWIDTH 0 0
DWIDTH 0 0
BBX 3 3 -1 9
BITMAP
40
00
A0
ENDCHAR
STARTCHAR uni0593
ENCODING 1427
SWIDTH 0 0
DWIDTH 0 0
BBX 2 6 -1 8
BITMAP
40
80
40
80
40
80
ENDCHAR
STARTCHAR uni0594
ENCODING 1428
SWIDTH 0 0
DWIDTH 0 0
BBX 1 3 -1 9
BITMAP
80
00
80
ENDCHAR
STARTCHAR uni0595
ENCODING 1429
SWIDTH 0 0
DWIDTH 0 0
BBX 3 3 -2 9
BITMAP
A0
80
A0
ENDCHAR
STARTCHAR uni0596
ENCODING 1430
SWIDTH 0 0
DWIDTH 0 0
BBX 3 2 -1 -2
BITMAP
80
60
ENDCHAR
STARTCHAR uni0597
ENCODING 1431
SWIDTH 0 0
DWIDTH 0 0
BBX 2 3 -1 9
BITMAP
80
C0
80
ENDCHAR
STARTCHAR uni0598
ENCODING 1432
SWIDTH 0 0
DWIDTH 0 0
BBX 5 3 -3 9
BITMAP
C8
A8
98
ENDCHAR
STARTCHAR uni0599
ENCODING 1433
SWIDTH 0 0
DWIDTH 0 0
BBX 3 2 -3 9
BITMAP
C0
20
ENDCHAR
STARTCHAR uni059A
ENCODING 1434
SWIDTH 0 0
DWIDTH 0 0
BBX 2 3 1 -3
BITMAP
40
80
40
ENDCHAR
STARTCHAR uni059B
ENCODING 1435
SWIDTH 0 0
DWIDTH 0 0
BBX 3 3 -1 -3
BITMAP
A0
20
C0
ENDCHAR
STARTCHAR uni059C
ENCODING 1436
SWIDTH 0 0
DWIDTH 0 0
BBX 3 2 -1 9
BITMAP
60
80
ENDCHAR
STARTCHAR uni059D
ENCODING 1437
SWIDTH 0 0
DWIDTH 0 0
BBX 3 2 0 9
BITMAP
60
80
ENDCHAR
STARTCHAR uni059E
ENCODING 1438
SWIDTH 0 0
DWIDTH 0 0
BBX 4 2 -2 9
BITMAP
F0
A0
ENDCHAR
STARTCHAR uni059F
ENCODING 1439
SWIDTH 0 0
DWIDTH 0 0
BBX 8 3 -4 9
BITMAP
E7
A5
E7
ENDCHAR
STARTCHAR uni05A0
ENCODING 1440
SWIDTH 0 0
DWIDTH 0 0
BBX 3 3 -1 9
BITMAP
E0
A0
E0
ENDCHAR
STARTCHAR uni05A1
ENCODING 1441
SWIDTH 0 0
DWIDTH 0 0
BBX 3 3 -1 9
BITMAP
A0
E0
80
ENDCHAR
STARTCHAR uni05A2
ENCODING 1442
SWIDTH 0 0
DWIDTH 0 0
BBX 3 3 -1 -3
BITMAP
A0
E0
40
ENDCHAR
STARTCHAR uni05A3
ENCODING 1443
SWIDTH 0 0
DWIDTH 0 0
BBX 2 2 -1 -2
BITMAP
40
C0
ENDCHAR
STARTCHAR uni05A4
ENCODING 1444
SWIDTH 0 0
DWIDTH 0 0
BBX 2 3 -1 -3
BITMAP
40
80
40
ENDCHAR
STARTCHAR uni05A5
ENCODING 1445
SWIDTH 0 0
DWIDTH 0 0
BBX 3 2 -2 -2
BITMAP
20
C0
ENDCHAR
STARTCHAR uni05A6
ENCODING 1446
SWIDTH 0 0
DWIDTH 0 0
BBX 4 2 -2 -2
BITMAP
50
F0
ENDCHAR
STARTCHAR uni05A7
ENCODING 1447
SWIDTH 0 0
DWIDTH 0 0
BBX 2 3 -1 -3
BITMAP
C0
C0
C0
ENDCHAR
STARTCHAR uni05A8
ENCODING 1448
SWIDTH 0 0
DWIDTH 0 0
BBX 3 2 -2 9
BITMAP
C0
20
ENDCHAR
STARTCHAR uni05A9
ENCODING 1449
SWIDTH 0 0
DWIDTH 0 0
BBX 3 3 -2 9
BITMAP
E0
A0
E0
ENDCHAR
STARTCHAR uni05AA
ENCODING 1450
SWIDTH 0 0
DWIDTH 0 0
BBX 3 3 -1 -3
BITMAP
A0
E0
40
ENDCHAR
STARTCHAR uni05AB
ENCODING 1451
SWIDTH 0 0
DWIDTH 0 0
BBX 2 3 -1 9
BITMAP
40
80
40
ENDCHAR
STARTCHAR uni05AC
ENCODING 1452
SWIDTH 0 0
DWIDTH 0 0
BBX 2 3 -1 9
BITMAP
40
40
C0
ENDCHAR
STARTCHAR uni05AD
ENCODING 1453
SWIDTH 0 0
DWIDTH 0 0
BBX 3 2 0 -2
BITMAP
80
60
ENDCHAR
STARTCHAR uni05AE
ENCODING 1454
SWIDTH 0 0
DWIDTH 0 0
BBX 5 3 -4 9
BITMAP
C8
A8
98
ENDCHAR
STARTCHAR uni05AF
ENCODING 1455
SWIDTH 0 0
DWIDTH 0 0
BBX 3 3 -2 9
BITMAP
E0
A0
E0
ENDCHAR
STARTCHAR uni05B0
ENCODING 1456
SWIDTH 0 0
DWIDTH 0 0
BBX 1 3 0 -3
BITMAP
80
00
80
ENDCHAR
STARTCHAR uni05B1
ENCODING 1457
SWIDTH 0 0
DWIDTH 0 0
BBX 5 3 0 -3
BITMAP
A8
00
48
ENDCHAR
STARTCHAR uni05B2
ENCODING 1458
SWIDTH 0 0
DWIDTH 0 0
BBX 4 3 0 -3
BITMAP
D0
00
10
ENDCHAR
STARTCHAR uni05B3
ENCODING 1459
SWIDTH 0 0
DWIDTH 0 0
BBX 5 3 -1 -3
BITMAP
E8
40
08
ENDCHAR
STARTCHAR uni05B4
ENCODING 1460
SWIDTH 0 0
DWIDTH 0 0
BBX 1 1 0 -1
BITMAP
80
ENDCHAR
STARTCHAR uni05B5
ENCODING 1461
SWIDTH 0 0
DWIDTH 0 0
BBX 3 1 0 -1
BITMAP
A0
ENDCHAR
STARTCHAR uni05B6
ENCODING 1462
SWIDTH 0 0
DWIDTH 0 0
BBX 3 3 0 -3
BITMAP
A0
00
40
ENDCHAR
STARTCHAR uni05B7
ENCODING 1463
SWIDTH 0 0
DWIDTH 0 0
BBX 2 1 0 -1
BITMAP
C0
ENDCHAR
STARTCHAR uni05B8
ENCODING 1464
SWIDTH 0 0
DWIDTH 0 0
BBX 3 2 0 -2
BITMAP
E0
40
ENDCHAR
STARTCHAR uni05B9
ENCODING 1465
SWIDTH 0 0
DWIDTH 0 0
BBX 1 1 -1 9
BITMAP
80
ENDCHAR
STARTCHAR uni05BA
ENCODING 1466
SWIDTH 0 0
DWIDTH 0 0
BBX 1 1 -1 9
BITMAP
80
ENDCHAR
STARTCHAR uni05BB
ENCODING 1467
SWIDTH 0 0
DWIDTH 0 0
BBX 5 3 -1 -3
BITMAP
80
20
08
ENDCHAR
STARTCHAR uni05BC
ENCODING 1468
SWIDTH 0 0
DWIDTH 0 0
BBX 1 1 1 4
BITMAP
80
ENDCHAR
STARTCHAR uni05BD
ENCODING 1469
SWIDTH 0 0
DWIDTH 0 0
BBX 1 2 0 -2
BITMAP
80
80
ENDCHAR
STARTCHAR uni05BE
ENCODING 1470
SWIDTH 259 0
DWIDTH 4 0
BBX 3 1 0 8
BITMAP
E0
ENDCHAR
STARTCHAR uni05BF
ENCODING 1471
SWIDTH 0 0
DWIDTH 0 0
BBX 3 1 -1 9
BITMAP
E0
ENDCHAR
STARTCHAR uni05C0
ENCODING 1472
SWIDTH 226 0
DWIDTH 3 0
BBX 1 9 1 0
BITMAP
80
80
80
80
80
80
80
80
80
ENDCHAR
STARTCHAR uni05C1
ENCODING 1473
SWIDTH 0 0
DWIDTH 0 0
BBX 1 1 2 9
BITMAP
80
ENDCHAR
STARTCHAR uni05C2
ENCODING 1474
SWIDTH 0 0
DWIDTH 0 0
BBX 1 1 -3 9
BITMAP
80
ENDCHAR
STARTCHAR uni05C3
ENCODING 1475
SWIDTH 277 0
DWIDTH 3 0
BBX 1 9 1 0
BITMAP
80
00
00
00
00
00
00
00
80
ENDCHAR
STARTCHAR uni05C4
ENCODING 1476
SWIDTH 0 0
DWIDTH 0 0
BBX 2 1 -1 9
BITMAP
C0
ENDCHAR
STARTCHAR uni05C5
ENCODING 1477
SWIDTH 0 0
DWIDTH 0 0
BBX 1 1 -1 -1
BITMAP
80
ENDCHAR
STARTCHAR uni05C6
ENCODING 1478
SWIDTH 350 0
DWIDTH 5 0
BBX 3 9 1 0
BITMAP
C0
80
80
80
80
80
80
80
E0
ENDCHAR
STARTCHAR uni05C7
ENCODING 1479
SWIDTH 0 0
DWIDTH 0 0
BBX 3 3 0 -3
BITMAP
E0
40
40
ENDCHAR
STARTCHAR uni05D0
ENCODING 1488
SWIDTH 600 0
DWIDTH 8 0
BBX 6 9 1 0
BITMAP
8C
44
44
28
50
90
88
88
C4
ENDCHAR
STARTCHAR uni05D1
ENCODING 1489
SWIDTH 569 0
DWIDTH 8 0
BBX 6 9 1 0
BITMAP
F8
08
08
08
08
08
08
08
FC
ENDCHAR
STARTCHAR uni05D2
ENCODING 1490
SWIDTH 419 0
DWIDTH 6 0
BBX 5 9 0 0
BITMAP
38
08
08
08
08
18
28
48
88
ENDCHAR
STARTCHAR uni05D3
ENCODING 1491
SWIDTH 520 0
DWIDTH 7 0
BBX 5 9 1 0
BITMAP
F8
10
10
10
10
10
10
10
10
ENDCHAR
STARTCHAR uni05D4
ENCODING 1492
SWIDTH 600 0
DWIDTH 8 0
BBX 6 9 1 0
BITMAP
FC
04
04
04
84
84
84
84
84
ENDCHAR
STARTCHAR uni05D5
ENCODING 1493
SWIDTH 319 0
DWIDTH 4 0
BBX 2 9 1 0
BITMAP
C0
40
40
40
40
40
40
40
40
ENDCHAR
STARTCHAR uni05D6
ENCODING 1494
SWIDTH 350 0
DWIDTH 5 0
BBX 3 9 1 0
BITMAP
E0
40
40
40
40
40
40
40
40
ENDCHAR
STARTCHAR uni05D7
ENCODING 1495
SWIDTH 600 0
DWIDTH 8 0
BBX 6 9 1 0
BITMAP
FC
84
84
84
84
84
84
84
84
ENDCHAR
STARTCHAR uni05D8
ENCODING 1496
SWIDTH 600 0
DWIDTH 8 0
BBX 7 9 0 0
BITMAP
C6
4A
42
42
42
42
42
42
3C
ENDCHAR
STARTCHAR uni05D9
ENCODING 1497
SWIDTH 319 0
DWIDTH 4 0
BBX 2 5 1 4
BITMAP
C0
40
40
40
40
ENDCHAR
STARTCHAR uni05DA
ENCODING 1498
SWIDTH 520 0
DWIDTH 7 0
BBX 6 12 1 -3
BITMAP
F8
08
08
08
08
08
08
08
08
08
08
0C
ENDCHAR
STARTCHAR uni05DB
ENCODING 1499
SWIDTH 520 0
DWIDTH 7 0
BBX 5 9 1 0
BITMAP
F0
08
08
08
08
08
08
08
F0
ENDCHAR
STARTCHAR uni05DC
ENCODING 1500
SWIDTH 520 0
DWIDTH 7 0
BBX 5 11 1 0
BITMAP
80
80
F8
08
08
08
08
10
20
40
60
ENDCHAR
STARTCHAR uni05DD
ENCODING 1501
SWIDTH 600 0
DWIDTH 8 0
BBX 7 9 0 0
BITMAP
FE
42
42
42
42
42
42
42
7E
ENDCHAR
STARTCHAR uni05DE
ENCODING 1502
SWIDTH 600 0
DWIDTH 8 0
BBX 7 9 0 0
BITMAP
DC
62
42
42
42
42
42
42
4E
ENDCHAR
STARTCHAR uni05DF
ENCODING 1503
SWIDTH 350 0
DWIDTH 5 0
BBX 4 12 1 -3
BITMAP
E0
20
20
20
20
20
20
20
20
20
20
30
ENDCHAR
STARTCHAR uni05E0
ENCODING 1504
SWIDTH 350 0
DWIDTH 5 0
BBX 3 9 1 0
BITMAP
60
20
20
20
20
20
20
20
E0
ENDCHAR
STARTCHAR uni05E1
ENCODING 1505
SWIDTH 600 0
DWIDTH 8 0
BBX 7 9 0 0
BITMAP
FE
42
42
42
42
42
42
42
3C
ENDCHAR
STARTCHAR uni05E2
ENCODING 1506
SWIDTH 600 0
DWIDTH 8 0
BBX 6 9 1 0
BITMAP
C4
44
44
44
24
24
24
24
F8
ENDCHAR
STARTCHAR uni05E3
ENCODING 1507
SWIDTH 600 0
DWIDTH 8 0
BBX 7 12 1 -3
BITMAP
F8
84
84
84
64
04
04
04
04
04
04
06
ENDCHAR
STARTCHAR uni05E4
ENCODING 1508
SWIDTH 549 0
DWIDTH 8 0
BBX 6 9 1 0
BITMAP
F8
84
84
84
64
04
04
04
F8
ENDCHAR
STARTCHAR uni05E5
ENCODING 1509
SWIDTH 529 0
DWIDTH 7 0
BBX 6 12 0 -3
BITMAP
CC
44
44
44
48
70
40
40
40
40
40
60
ENDCHAR
STARTCHAR uni05E6
ENCODING 1510
SWIDTH 549 0
DWIDTH 8 0
BBX 7 9 0 0
BITMAP
C6
42
42
42
24
18
04
02
7E
ENDCHAR
STARTCHAR uni05E7
ENCODING 1511
SWIDTH 560 0
DWIDTH 8 0
BBX 6 12 1 -3
BITMAP
FC
04
04
04
84
88
90
A0
B0
80
80
80
ENDCHAR
STARTCHAR uni05E8
ENCODING 1512
SWIDTH 500 0
DWIDTH 7 0
BBX 5 9 1 0
BITMAP
F8
08
08
08
08
08
08
08
08
ENDCHAR
STARTCHAR uni05E9
ENCODING 1513
SWIDTH 664 0
DWIDTH 9 0
BBX 7 9 1 0
BITMAP
D6
92
92
92
92
92
92
92
7C
ENDCHAR
STARTCHAR uni05EA
ENCODING 1514
SWIDTH 600 0
DWIDTH 8 0
BBX 7 9 0 0
BITMAP
FC
42
42
42
42
42
42
42
C2
ENDCHAR
STARTCHAR uni05EF
ENCODING 1519
SWIDTH 653 0
DWIDTH 9 0
BBX 8 7 0 4
BITMAP
30
18
08
EF
21
21
21
ENDCHAR
STARTCHAR uni05F0
ENCODING 1520
SWIDTH 600 0
DWIDTH 8 0
BBX 6 9 1 0
BITMAP
CC
44
44
44
44
44
44
44
44
ENDCHAR
STARTCHAR uni05F1
ENCODING 1521
SWIDTH 600 0
DWIDTH 8 0
BBX 6 9 1 0
BITMAP
CC
44
44
44
44
04
04
04
04
ENDCHAR
STARTCHAR uni05F2
ENCODING 1522
SWIDTH 600 0
DWIDTH 8 0
BBX 6 5 1 4
BITMAP
CC
44
44
44
44
ENDCHAR
STARTCHAR uni05F3
ENCODING 1523
SWIDTH 250 0
DWIDTH 4 0
BBX 2 4 1 7
BITMAP
40
40
80
80
ENDCHAR
STARTCHAR uni05F4
ENCODING 1524
SWIDTH 430 0
DWIDTH 6 0
BBX 5 4 1 7
BITMAP
48
48
90
90
ENDCHAR
STARTCHAR uni0600
ENCODING 1536
SWIDTH 962 0
DWIDTH 13 0
BBX 13 4 0 -2
BITMAP
0010
0020
FFF8
FFF8
ENDCHAR
STARTCHAR uni0601
ENCODING 1537
SWIDTH 1426 0
DWIDTH 20 0
BBX 19 4 0 -3
BITMAP
9901E0
BD0FE0
EFFF20
E6F040
ENDCHAR
STARTCHAR uni0602
ENCODING 1538
SWIDTH 595 0
DWIDTH 8 0
BBX 10 6 1 -2
BITMAP
6000
F000
9800
8800
FFC0
7FC0
ENDCHAR
STARTCHAR uni0603
ENCODING 1539
SWIDTH 1323 0
DWIDTH 19 0
BBX 17 6 1 -2
BITMAP
000300
000780
000480
002880
FFFF80
FFDF00
ENDCHAR
STARTCHAR uni0604
ENCODING 1540
SWIDTH 1361 0
DWIDTH 19 0
BBX 18 9 0 -4
BITMAP
000040
003940
007940
004FC0
004780
FFE000
FFE000
001800
000800
ENDCHAR
STARTCHAR uni0605
ENCODING 1541
SWIDTH 0 0
DWIDTH 0 0
BBX 9 2 0 10
BITMAP
E000
BF80
ENDCHAR
STARTCHAR uni0606
ENCODING 1542
SWIDTH 615 0
DWIDTH 9 0
BBX 7 10 1 0
BITMAP
B4
5C
50
50
30
26
2C
18
18
10
ENDCHAR
STARTCHAR uni0607
ENCODING 1543
SWIDTH 615 0
DWIDTH 9 0
BBX 8 10 1 0
BITMAP
88
50
48
50
3C
23
16
14
08
08
ENDCHAR
STARTCHAR uni0608
ENCODING 1544
SWIDTH 767 0
DWIDTH 11 0
BBX 11 11 0 -2
BITMAP
0320
07A0
04A0
04E0
07C0
6380
E080
2080
3100
1F00
0E00
ENDCHAR
STARTCHAR uni0609
ENCODING 1545
SWIDTH 618 0
DWIDTH 9 0
BBX 7 9 1 0
BITMAP
84
48
08
10
30
20
40
5E
8A
ENDCHAR
STARTCHAR uni060A
ENCODING 1546
SWIDTH 685 0
DWIDTH 10 0
BBX 9 9 1 0
BITMAP
8200
4400
0800
0800
1000
2000
2000
5F80
8A80
ENDCHAR
STARTCHAR uni060B
ENCODING 1547
SWIDTH 477 0
DWIDTH 7 0
BBX 7 14 0 -3
BITMAP
08
08
00
0C
1E
12
1E
0E
02
FE
FC
00
08
08
ENDCHAR
STARTCHAR uni060C
ENCODING 1548
SWIDTH 299 0
DWIDTH 4 0
BBX 2 3 1 0
BITMAP
40
80
C0
ENDCHAR
STARTCHAR uni060D
ENCODING 1549
SWIDTH 322 0
DWIDTH 5 0
BBX 4 6 1 -3
BITMAP
30
70
40
40
80
80
ENDCHAR
STARTCHAR uni060E
ENCODING 1550
SWIDTH 1167 0
DWIDTH 16 0
BBX 15 6 1 1
BITMAP
6000
F000
9800
8800
FFFE
7FFE
ENDCHAR
STARTCHAR uni060F
ENCODING 1551
SWIDTH 544 0
DWIDTH 8 0
BBX 7 10 1 -3
BITMAP
78
F8
80
8C
70
9C
FE
C2
7E
BC
ENDCHAR
STARTCHAR uni0610
ENCODING 1552
SWIDTH 0 0
DWIDTH 0 0
BBX 6 4 -3 8
BITMAP
0C
54
78
80
ENDCHAR
STARTCHAR uni0611
ENCODING 1553
SWIDTH 0 0
DWIDTH 0 0
BBX 5 4 -3 8
BITMAP
18
50
78
80
ENDCHAR
STARTCHAR uni0612
ENCODING 1554
SWIDTH 0 0
DWIDTH 0 0
BBX 5 4 -2 8
BITMAP
C0
68
88
18
ENDCHAR
STARTCHAR uni0613
ENCODING 1555
SWIDTH 0 0
DWIDTH 0 0
BBX 8 7 -5 7
BITMAP
10
00
0C
55
79
81
02
ENDCHAR
STARTCHAR uni0614
ENCODING 1556
SWIDTH 0 0
DWIDTH 0 0
BBX 5 2 -2 9
BITMAP
28
F8
ENDCHAR
STARTCHAR uni0615
ENCODING 1557
SWIDTH 0 0
DWIDTH 0 0
BBX 4 4 -2 8
BITMAP
40
70
50
F0
ENDCHAR
STARTCHAR uni0616
ENCODING 1558
SWIDTH 0 0
DWIDTH 0 0
BBX 5 5 -3 -1
BITMAP
50
50
50
80
F8
ENDCHAR
STARTCHAR uni0617
ENCODING 1559
SWIDTH 0 0
DWIDTH 0 0
BBX 3 5 -2 -1
BITMAP
20
00
20
20
C0
ENDCHAR
STARTCHAR uni0618
ENCODING 1560
SWIDTH 0 0
DWIDTH 0 0
BBX 2 2 -1 0
BITMAP
40
80
ENDCHAR
STARTCHAR uni0619
ENCODING 1561
SWIDTH 0 0
DWIDTH 0 0
BBX 4 3 -2 0
BITMAP
70
50
F0
ENDCHAR
STARTCHAR uni061A
ENCODING 1562
SWIDTH 0 0
DWIDTH 0 0
BBX 2 2 -1 -1
BITMAP
40
80
ENDCHAR
STARTCHAR uni061B
ENCODING 1563
SWIDTH 299 0
DWIDTH 4 0
BBX 2 5 2 0
BITMAP
40
80
80
00
80
ENDCHAR
STARTCHAR uni061C
ENCODING 1564
SWIDTH 1000 0
DWIDTH 14 0
BBX 14 10 0 0
BITMAP
CCCC
8004
0000
14F0
B4F4
ACF4
3ED0
4000
8004
CCCC
ENDCHAR
STARTCHAR uni061E
ENCODING 1566
SWIDTH 299 0
DWIDTH 4 0
BBX 3 4 1 0
BITMAP
40
40
A0
A0
ENDCHAR
STARTCHAR uni061F
ENCODING 1567
SWIDTH 556 0
DWIDTH 8 0
BBX 6 10 1 0
BITMAP
78
84
84
80
40
20
20
20
00
20
ENDCHAR
STARTCHAR uni0620
ENCODING 1568
SWIDTH 640 0
DWIDTH 9 0
BBX 8 10 0 -2
BITMAP
07
0F
09
8C
86
82
FE
7C
0A
04
ENDCHAR
STARTCHAR uni0621
ENCODING 1569
SWIDTH 412 0
DWIDTH 6 0
BBX 4 6 1 0
BITMAP
60
E0
80
70
F0
C0
ENDCHAR
STARTCHAR uni0622
ENCODING 1570
SWIDTH 233 0
DWIDTH 3 0
BBX 4 13 0 1
BITMAP
50
A0
00
40
40
40
40
40
40
40
40
40
40
ENDCHAR
STARTCHAR uni0623
ENCODING 1571
SWIDTH 233 0
DWIDTH 3 0
BBX 3 13 0 1
BITMAP
40
80
60
80
40
40
40
40
40
40
40
40
40
ENDCHAR
STARTCHAR uni0624
ENCODING 1572
SWIDTH 423 0
DWIDTH 6 0
BBX 5 14 0 -3
BITMAP
10
20
18
20
00
30
78
48
78
38
08
18
F0
E0
ENDCHAR
STARTCHAR uni0625
ENCODING 1573
SWIDTH 233 0
DWIDTH 3 0
BBX 3 14 0 -3
BITMAP
40
40
40
40
40
40
40
40
40
40
40
80
60
80
ENDCHAR
STARTCHAR uni0626
ENCODING 1574
SWIDTH 640 0
DWIDTH 9 0
BBX 8 10 0 0
BITMAP
40
80
67
8F
09
8C
86
82
FE
7C
ENDCHAR
STARTCHAR uni0627
ENCODING 1575
SWIDTH 233 0
DWIDTH 3 0
BBX 1 10 1 1
BITMAP
80
80
80
80
80
80
80
80
80
80
ENDCHAR
STARTCHAR uni0628
ENCODING 1576
SWIDTH 714 0
DWIDTH 10 0
BBX 8 8 1 -2
BITMAP
81
81
81
FF
7E
00
08
08
ENDCHAR
STARTCHAR uni0629
ENCODING 1577
SWIDTH 310 0
DWIDTH 4 0
BBX 3 10 1 1
BITMAP
A0
A0
00
00
C0
C0
A0
A0
E0
C0
ENDCHAR
STARTCHAR uni062A
ENCODING 1578
SWIDTH 714 0
DWIDTH 10 0
BBX 8 7 1 1
BITMAP
14
14
81
81
81
FF
7E
ENDCHAR
STARTCHAR uni062B
ENCODING 1579
SWIDTH 714 0
DWIDTH 10 0
BBX 8 9 1 1
BITMAP
08
08
14
14
81
81
81
FF
7E
ENDCHAR
STARTCHAR uni062C
ENCODING 1580
SWIDTH 542 0
DWIDTH 8 0
BBX 7 11 1 -3
BITMAP
F0
FC
1E
60
40
88
88
80
C2
7E
3C
ENDCHAR
STARTCHAR uni062D
ENCODING 1581
SWIDTH 542 0
DWIDTH 8 0
BBX 7 11 1 -3
BITMAP
F0
FC
1E
60
40
80
80
80
C2
7E
3C
ENDCHAR
STARTCHAR uni062E
ENCODING 1582
SWIDTH 542 0
DWIDTH 8 0
BBX 7 14 1 -3
BITMAP
08
08
00
F0
FC
1E
60
40
80
80
80
C2
7E
3C
ENDCHAR
STARTCHAR uni062F
ENCODING 1583
SWIDTH 339 0
DWIDTH 5 0
BBX 5 7 0 1
BITMAP
40
60
30
08
08
F8
F0
ENDCHAR
STARTCHAR uni0630
ENCODING 1584
SWIDTH 339 0
DWIDTH 5 0
BBX 5 11 0 1
BITMAP
40
40
00
00
40
60
30
08
08
F8
F0
ENDCHAR
STARTCHAR uni0631
ENCODING 1585
SWIDTH 484 0
DWIDTH 7 0
BBX 5 7 1 -3
BITMAP
18
08
08
08
18
F0
E0
ENDCHAR
STARTCHAR uni0632
ENCODING 1586
SWIDTH 484 0
DWIDTH 7 0
BBX 5 11 1 -3
BITMAP
10
10
00
00
18
08
08
08
18
F0
E0
ENDCHAR
STARTCHAR uni0633
ENCODING 1587
SWIDTH 824 0
DWIDTH 12 0
BBX 11 9 0 -3
BITMAP
0020
0520
8520
87E0
86C0
8400
C800
7800
7000
ENDCHAR
STARTCHAR uni0634
ENCODING 1588
SWIDTH 824 0
DWIDTH 12 0
BBX 11 13 0 -3
BITMAP
0100
0100
0280
0280
0020
0520
8520
87E0
86C0
8400
C800
7800
7000
ENDCHAR
STARTCHAR uni0635
ENCODING 1589
SWIDTH 1089 0
DWIDTH 15 0
BBX 15 10 0 -3
BITMAP
001C
003C
8242
8282
83FE
83FC
8600
C400
7C00
3800
ENDCHAR
STARTCHAR uni0636
ENCODING 1590
SWIDTH 1089 0
DWIDTH 15 0
BBX 15 13 0 -3
BITMAP
0010
0010
0000
001C
003C
8242
8282
83FE
83FC
8600
C400
7C00
3800
ENDCHAR
STARTCHAR uni0637
ENCODING 1591
SWIDTH 580 0
DWIDTH 8 0
BBX 9 10 -1 1
BITMAP
2000
2000
2000
2000
2700
2F00
3880
3080
FF80
FF00
ENDCHAR
STARTCHAR uni0638
ENCODING 1592
SWIDTH 580 0
DWIDTH 8 0
BBX 9 10 -1 1
BITMAP
2000
2200
2200
2000
2700
2F00
3880
3080
FF80
FF00
ENDCHAR
STARTCHAR uni0639
ENCODING 1593
SWIDTH 544 0
DWIDTH 8 0
BBX 7 10 1 -3
BITMAP
78
F8
80
8C
7C
F8
80
82
FE
3C
ENDCHAR
STARTCHAR uni063A
ENCODING 1594
SWIDTH 544 0
DWIDTH 8 0
BBX 7 14 1 -3
BITMAP
10
10
00
00
78
F8
80
8C
7C
F8
80
82
FE
3C
ENDCHAR
STARTCHAR uni063B
ENCODING 1595
SWIDTH 594 0
DWIDTH 8 0
BBX 8 11 0 1
BITMAP
14
15
07
1E
38
10
08
06
81
FF
7E
ENDCHAR
STARTCHAR uni063C
ENCODING 1596
SWIDTH 594 0
DWIDTH 8 0
BBX 8 14 0 -3
BITMAP
01
07
1E
38
10
08
06
81
FF
7E
14
14
08
08
ENDCHAR
STARTCHAR uni063D
ENCODING 1597
SWIDTH 640 0
DWIDTH 9 0
BBX 8 10 0 0
BITMAP
20
50
07
0F
09
8C
86
82
FE
7C
ENDCHAR
STARTCHAR uni063E
ENCODING 1598
SWIDTH 640 0
DWIDTH 9 0
BBX 8 10 0 0
BITMAP
50
50
07
0F
09
8C
86
82
FE
7C
ENDCHAR
STARTCHAR uni063F
ENCODING 1599
SWIDTH 640 0
DWIDTH 9 0
BBX 8 12 0 0
BITMAP
20
20
50
50
07
0F
09
8C
86
82
FE
7C
ENDCHAR
STARTCHAR uni0640
ENCODING 1600
SWIDTH 215 0
DWIDTH 3 0
BBX 4 2 -1 1
BITMAP
F0
F0
ENDCHAR
STARTCHAR uni0641
ENCODING 1601
SWIDTH 790 0
DWIDTH 11 0
BBX 10 12 1 1
BITMAP
0100
0100
0000
0000
0180
03C0
0240
83C0
81C0
8040
FFC0
7F80
ENDCHAR
STARTCHAR uni0642
ENCODING 1602
SWIDTH 582 0
DWIDTH 8 0
BBX 8 13 0 -3
BITMAP
0A
0A
00
00
06
0F
09
0F
87
81
C3
7E
3C
ENDCHAR
STARTCHAR uni0643
ENCODING 1603
SWIDTH 600 0
DWIDTH 8 0
BBX 7 10 0 1
BITMAP
02
02
02
12
22
1A
32
82
FE
7C
ENDCHAR
STARTCHAR uni0644
ENCODING 1604
SWIDTH 509 0
DWIDTH 7 0
BBX 6 12 0 -1
BITMAP
04
04
04
04
04
04
04
84
84
84
FC
78
ENDCHAR
STARTCHAR uni0645
ENCODING 1605
SWIDTH 339 0
DWIDTH 5 0
BBX 5 8 0 -3
BITMAP
E0
90
78
F8
80
80
80
80
ENDCHAR
STARTCHAR uni0646
ENCODING 1606
SWIDTH 529 0
DWIDTH 7 0
BBX 7 9 0 -3
BITMAP
10
10
00
82
82
82
C6
7C
38
ENDCHAR
STARTCHAR uni0647
ENCODING 1607
SWIDTH 310 0
DWIDTH 4 0
BBX 3 6 1 1
BITMAP
C0
C0
A0
A0
E0
C0
ENDCHAR
STARTCHAR uni0648
ENCODING 1608
SWIDTH 423 0
DWIDTH 6 0
BBX 5 9 0 -3
BITMAP
30
78
48
78
38
08
18
F0
E0
ENDCHAR
STARTCHAR uni0649
ENCODING 1609
SWIDTH 640 0
DWIDTH 9 0
BBX 8 8 0 0
BITMAP
07
0F
09
8C
86
82
FE
7C
ENDCHAR
STARTCHAR uni064A
ENCODING 1610
SWIDTH 640 0
DWIDTH 9 0
BBX 8 11 0 -3
BITMAP
07
0F
09
8C
86
82
FE
7C
00
28
28
ENDCHAR
STARTCHAR uni064B
ENCODING 1611
SWIDTH 0 0
DWIDTH 0 0
BBX 3 4 0 9
BITMAP
60
80
60
80
ENDCHAR
STARTCHAR uni064C
ENCODING 1612
SWIDTH 0 0
DWIDTH 0 0
BBX 3 3 0 9
BITMAP
60
E0
A0
ENDCHAR
STARTCHAR uni064D
ENCODING 1613
SWIDTH 0 0
DWIDTH 0 0
BBX 3 4 0 -3
BITMAP
60
80
60
80
ENDCHAR
STARTCHAR uni064E
ENCODING 1614
SWIDTH 0 0
DWIDTH 0 0
BBX 3 2 0 9
BITMAP
60
80
ENDCHAR
STARTCHAR uni064F
ENCODING 1615
SWIDTH 0 0
DWIDTH 0 0
BBX 3 3 0 9
BITMAP
E0
60
80
ENDCHAR
STARTCHAR uni0650
ENCODING 1616
SWIDTH 0 0
DWIDTH 0 0
BBX 3 2 0 -3
BITMAP
60
80
ENDCHAR
STARTCHAR uni0651
ENCODING 1617
SWIDTH 0 0
DWIDTH 0 0
BBX 3 3 0 9
BITMAP
20
E0
80
ENDCHAR
STARTCHAR uni0652
ENCODING 1618
SWIDTH 0 0
DWIDTH 0 0
BBX 3 3 0 9
BITMAP
40
A0
40
ENDCHAR
STARTCHAR uni0653
ENCODING 1619
SWIDTH 0 0
DWIDTH 0 0
BBX 4 2 0 11
BITMAP
50
A0
ENDCHAR
STARTCHAR uni0654
ENCODING 1620
SWIDTH 0 0
DWIDTH 0 0
BBX 3 4 0 8
BITMAP
40
80
60
80
ENDCHAR
STARTCHAR uni0655
ENCODING 1621
SWIDTH 0 0
DWIDTH 0 0
BBX 3 4 0 -3
BITMAP
40
80
60
80
ENDCHAR
STARTCHAR uni0656
ENCODING 1622
SWIDTH 0 0
DWIDTH 0 0
BBX 1 2 0 -3
BITMAP
80
80
ENDCHAR
STARTCHAR uni0657
ENCODING 1623
SWIDTH 0 0
DWIDTH 0 0
BBX 4 4 -2 8
BITMAP
30
C0
A0
E0
ENDCHAR
STARTCHAR uni0658
ENCODING 1624
SWIDTH 0 0
DWIDTH 0 0
BBX 3 2 -1 8
BITMAP
A0
E0
ENDCHAR
STARTCHAR uni0659
ENCODING 1625
SWIDTH 0 0
DWIDTH 0 0
BBX 3 1 -1 9
BITMAP
E0
ENDCHAR
STARTCHAR uni065A
ENCODING 1626
SWIDTH 0 0
DWIDTH 0 0
BBX 3 2 -1 9
BITMAP
A0
40
ENDCHAR
STARTCHAR uni065B
ENCODING 1627
SWIDTH 0 0
DWIDTH 0 0
BBX 3 2 -1 9
BITMAP
40
A0
ENDCHAR
STARTCHAR uni065C
ENCODING 1628
SWIDTH 0 0
DWIDTH 0 0
BBX 1 2 0 -2
BITMAP
80
80
ENDCHAR
STARTCHAR uni065D
ENCODING 1629
SWIDTH 0 0
DWIDTH 0 0
BBX 2 2 0 9
BITMAP
80
C0
ENDCHAR
STARTCHAR uni065E
ENCODING 1630
SWIDTH 0 0
DWIDTH 0 0
BBX 3 2 0 9
BITMAP
A0
E0
ENDCHAR
STARTCHAR uni065F
ENCODING 1631
SWIDTH 0 0
DWIDTH 0 0
BBX 4 3 -2 -2
BITMAP
20
40
F0
ENDCHAR
STARTCHAR uni0660
ENCODING 1632
SWIDTH 542 0
DWIDTH 8 0
BBX 5 4 2 3
BITMAP
20
78
F0
20
ENDCHAR
STARTCHAR uni0661
ENCODING 1633
SWIDTH 542 0
DWIDTH 8 0
BBX 3 9 2 0
BITMAP
80
40
40
20
20
20
20
20
20
ENDCHAR
STARTCHAR uni0662
ENCODING 1634
SWIDTH 542 0
DWIDTH 8 0
BBX 6 9 1 0
BITMAP
C4
7C
3C
20
10
10
10
10
10
ENDCHAR
STARTCHAR uni0663
ENCODING 1635
SWIDTH 542 0
DWIDTH 8 0
BBX 8 9 0 0
BITMAP
89
7F
36
20
10
10
10
10
10
ENDCHAR
STARTCHAR uni0664
ENCODING 1636
SWIDTH 542 0
DWIDTH 8 0
BBX 7 9 1 0
BITMAP
18
60
60
30
10
20
40
FE
FE
ENDCHAR
STARTCHAR uni0665
ENCODING 1637
SWIDTH 542 0
DWIDTH 8 0
BBX 6 8 1 0
BITMAP
30
78
48
84
84
84
FC
78
ENDCHAR
STARTCHAR uni0666
ENCODING 1638
SWIDTH 542 0
DWIDTH 8 0
BBX 5 9 1 0
BITMAP
90
F0
F0
10
10
10
10
08
08
ENDCHAR
STARTCHAR uni0667
ENCODING 1639
SWIDTH 542 0
DWIDTH 8 0
BBX 7 9 1 0
BITMAP
82
82
44
44
44
28
28
28
10
ENDCHAR
STARTCHAR uni0668
ENCODING 1640
SWIDTH 542 0
DWIDTH 8 0
BBX 7 9 1 0
BITMAP
10
28
28
28
44
44
44
82
82
ENDCHAR
STARTCHAR uni0669
ENCODING 1641
SWIDTH 542 0
DWIDTH 8 0
BBX 6 9 1 0
BITMAP
70
F8
88
88
F8
78
08
04
04
ENDCHAR
STARTCHAR uni066A
ENCODING 1642
SWIDTH 571 0
DWIDTH 8 0
BBX 7 9 1 0
BITMAP
42
E4
48
08
10
20
24
4E
84
ENDCHAR
STARTCHAR uni066B
ENCODING 1643
SWIDTH 268 0
DWIDTH 4 0
BBX 2 3 1 -2
BITMAP
40
40
C0
ENDCHAR
STARTCHAR uni066C
ENCODING 1644
SWIDTH 268 0
DWIDTH 4 0
BBX 2 3 1 -2
BITMAP
C0
40
C0
ENDCHAR
STARTCHAR uni066D
ENCODING 1645
SWIDTH 389 0
DWIDTH 5 0
BBX 5 4 0 3
BITMAP
20
F8
20
50
ENDCHAR
STARTCHAR uni066E
ENCODING 1646
SWIDTH 714 0
DWIDTH 10 0
BBX 8 5 1 1
BITMAP
81
81
81
FF
7E
ENDCHAR
STARTCHAR uni066F
ENCODING 1647
SWIDTH 582 0
DWIDTH 8 0
BBX 8 9 0 -3
BITMAP
06
0F
09
0F
87
81
C3
7E
3C
ENDCHAR
STARTCHAR uni0670
ENCODING 1648
SWIDTH 0 0
DWIDTH 0 0
BBX 1 4 0 9
BITMAP
80
80
80
80
ENDCHAR
STARTCHAR uni0671
ENCODING 1649
SWIDTH 233 0
DWIDTH 3 0
BBX 3 12 0 1
BITMAP
60
E0
00
40
40
40
40
40
40
40
40
40
ENDCHAR
STARTCHAR uni0672
ENCODING 1650
SWIDTH 233 0
DWIDTH 3 0
BBX 4 12 0 1
BITMAP
20
40
F0
00
40
40
40
40
40
40
40
40
ENDCHAR
STARTCHAR uni0673
ENCODING 1651
SWIDTH 233 0
DWIDTH 3 0
BBX 4 14 0 -3
BITMAP
40
40
40
40
40
40
40
40
40
40
00
20
40
F0
ENDCHAR
STARTCHAR uni0654.dup9
ENCODING 1652
SWIDTH 0 0
DWIDTH 0 0
BBX 3 4 0 8
BITMAP
40
80
60
80
ENDCHAR
STARTCHAR uni0675
ENCODING 1653
SWIDTH 312 0
DWIDTH 4 0
BBX 4 10 0 1
BITMAP
A0
C0
B0
C0
80
80
80
80
80
80
ENDCHAR
STARTCHAR uni0676
ENCODING 1654
SWIDTH 423 0
DWIDTH 6 0
BBX 6 13 0 -3
BITMAP
08
10
0C
10
30
78
48
78
38
08
18
F0
E0
ENDCHAR
STARTCHAR uni0677
ENCODING 1655
SWIDTH 423 0
DWIDTH 6 0
BBX 6 13 0 -3
BITMAP
E8
70
8C
10
30
78
48
78
38
08
18
F0
E0
ENDCHAR
STARTCHAR uni0678
ENCODING 1656
SWIDTH 686 0
DWIDTH 10 0
BBX 10 13 0 0
BITMAP
0080
0100
00C0
0100
0000
0700
0F00
0900
8C00
8600
8200
FE00
7C00
ENDCHAR
STARTCHAR uni0679
ENCODING 1657
SWIDTH 714 0
DWIDTH 10 0
BBX 8 8 1 1
BITMAP
10
18
14
9D
81
81
FF
7E
ENDCHAR
STARTCHAR uni067A
ENCODING 1658
SWIDTH 714 0
DWIDTH 10 0
BBX 8 8 1 1
BITMAP
08
00
08
81
81
81
FF
7E
ENDCHAR
STARTCHAR uni067B
ENCODING 1659
SWIDTH 714 0
DWIDTH 10 0
BBX 8 9 1 -3
BITMAP
81
81
81
FF
7E
00
08
00
08
ENDCHAR
STARTCHAR uni067C
ENCODING 1660
SWIDTH 714 0
DWIDTH 10 0
BBX 8 9 1 -1
BITMAP
14
14
81
81
81
FF
7E
14
08
ENDCHAR
STARTCHAR uni067D
ENCODING 1661
SWIDTH 714 0
DWIDTH 10 0
BBX 8 9 1 1
BITMAP
14
14
08
08
81
81
81
FF
7E
ENDCHAR
STARTCHAR uni067E
ENCODING 1662
SWIDTH 714 0
DWIDTH 10 0
BBX 8 9 1 -3
BITMAP
81
81
81
FF
7E
00
14
00
08
ENDCHAR
STARTCHAR uni067F
ENCODING 1663
SWIDTH 714 0
DWIDTH 10 0
BBX 8 8 1 1
BITMAP
14
00
14
81
81
81
FF
7E
ENDCHAR
STARTCHAR uni0680
ENCODING 1664
SWIDTH 714 0
DWIDTH 10 0
BBX 8 9 1 -3
BITMAP
81
81
81
FF
7E
00
14
00
14
ENDCHAR
STARTCHAR uni0681
ENCODING 1665
SWIDTH 542 0
DWIDTH 8 0
BBX 7 15 1 -3
BITMAP
08
10
0C
10
F0
FC
1E
60
40
80
80
80
C2
7E
3C
ENDCHAR
STARTCHAR uni0682
ENCODING 1666
SWIDTH 542 0
DWIDTH 8 0
BBX 7 15 1 -3
BITMAP
08
00
08
00
F0
FC
1E
60
40
80
80
80
C2
7E
3C
ENDCHAR
STARTCHAR uni0683
ENCODING 1667
SWIDTH 542 0
DWIDTH 8 0
BBX 7 11 1 -3
BITMAP
F0
FC
1E
60
40
94
94
80
C2
7E
3C
ENDCHAR
STARTCHAR uni0684
ENCODING 1668
SWIDTH 542 0
DWIDTH 8 0
BBX 7 11 1 -3
BITMAP
F0
FC
1E
60
40
88
80
88
C2
7E
3C
ENDCHAR
STARTCHAR uni0685
ENCODING 1669
SWIDTH 542 0
DWIDTH 8 0
BBX 7 16 1 -3
BITMAP
08
08
14
14
00
F0
FC
1E
60
40
80
80
80
C2
7E
3C
ENDCHAR
STARTCHAR uni0686
ENCODING 1670
SWIDTH 542 0
DWIDTH 8 0
BBX 7 11 1 -3
BITMAP
F0
FC
1E
60
40
A8
90
80
C2
7E
3C
ENDCHAR
STARTCHAR uni0687
ENCODING 1671
SWIDTH 542 0
DWIDTH 8 0
BBX 7 11 1 -3
BITMAP
F0
FC
1E
60
40
94
80
94
C2
7E
3C
ENDCHAR
STARTCHAR uni0688
ENCODING 1672
SWIDTH 339 0
DWIDTH 5 0
BBX 5 12 0 1
BITMAP
40
60
50
70
00
40
60
30
08
08
F8
F0
ENDCHAR
STARTCHAR uni0689
ENCODING 1673
SWIDTH 339 0
DWIDTH 5 0
BBX 5 9 0 -1
BITMAP
40
60
30
08
08
F8
F0
50
20
ENDCHAR
STARTCHAR uni068A
ENCODING 1674
SWIDTH 339 0
DWIDTH 5 0
BBX 5 10 0 -2
BITMAP
40
60
30
08
08
F8
F0
00
20
20
ENDCHAR
STARTCHAR uni068B
ENCODING 1675
SWIDTH 339 0
DWIDTH 5 0
BBX 5 15 0 -2
BITMAP
40
60
50
70
00
40
60
30
08
08
F8
F0
00
20
20
ENDCHAR
STARTCHAR uni068C
ENCODING 1676
SWIDTH 339 0
DWIDTH 5 0
BBX 5 11 0 1
BITMAP
A0
A0
00
00
40
60
30
08
08
F8
F0
ENDCHAR
STARTCHAR uni068D
ENCODING 1677
SWIDTH 339 0
DWIDTH 5 0
BBX 5 10 0 -2
BITMAP
40
60
30
08
08
F8
F0
00
50
50
ENDCHAR
STARTCHAR uni068E
ENCODING 1678
SWIDTH 339 0
DWIDTH 5 0
BBX 5 12 0 1
BITMAP
40
40
A0
A0
00
40
60
30
08
08
F8
F0
ENDCHAR
STARTCHAR uni068F
ENCODING 1679
SWIDTH 339 0
DWIDTH 5 0
BBX 5 12 0 1
BITMAP
A0
A0
40
40
00
40
60
30
08
08
F8
F0
ENDCHAR
STARTCHAR uni0690
ENCODING 1680
SWIDTH 339 0
DWIDTH 5 0
BBX 5 11 0 1
BITMAP
A0
00
A0
00
40
60
30
08
08
F8
F0
ENDCHAR
STARTCHAR uni0691
ENCODING 1681
SWIDTH 484 0
DWIDTH 7 0
BBX 5 12 1 -3
BITMAP
40
60
50
70
00
18
08
08
08
18
F0
E0
ENDCHAR
STARTCHAR uni0692
ENCODING 1682
SWIDTH 484 0
DWIDTH 7 0
BBX 5 11 1 -3
BITMAP
28
10
00
00
18
08
08
08
18
F0
E0
ENDCHAR
STARTCHAR uni0693
ENCODING 1683
SWIDTH 484 0
DWIDTH 7 0
BBX 6 7 1 -3
BITMAP
18
08
08
08
18
F4
E8
ENDCHAR
STARTCHAR uni0694
ENCODING 1684
SWIDTH 484 0
DWIDTH 7 0
BBX 5 7 1 -3
BITMAP
18
08
08
08
18
F8
E8
ENDCHAR
STARTCHAR uni0695
ENCODING 1685
SWIDTH 484 0
DWIDTH 7 0
BBX 5 7 1 -3
BITMAP
18
08
18
F0
E0
50
20
ENDCHAR
STARTCHAR uni0696
ENCODING 1686
SWIDTH 484 0
DWIDTH 7 0
BBX 5 7 1 -3
BITMAP
18
08
48
48
18
F8
E8
ENDCHAR
STARTCHAR uni0697
ENCODING 1687
SWIDTH 484 0
DWIDTH 7 0
BBX 5 11 1 -3
BITMAP
28
28
00
00
18
08
08
08
18
F0
E0
ENDCHAR
STARTCHAR uni0698
ENCODING 1688
SWIDTH 484 0
DWIDTH 7 0
BBX 5 13 1 -3
BITMAP
10
10
28
28
00
00
18
08
08
08
18
F0
E0
ENDCHAR
STARTCHAR uni0699
ENCODING 1689
SWIDTH 484 0
DWIDTH 7 0
BBX 5 12 1 -3
BITMAP
28
00
28
00
00
18
08
08
08
18
F0
E0
ENDCHAR
STARTCHAR uni069A
ENCODING 1690
SWIDTH 824 0
DWIDTH 12 0
BBX 11 11 0 -3
BITMAP
0100
0100
0020
0520
8520
87E0
86C0
8400
C900
7900
7000
ENDCHAR
STARTCHAR uni069B
ENCODING 1691
SWIDTH 824 0
DWIDTH 12 0
BBX 11 9 0 -3
BITMAP
0020
0520
8520
87E0
86C0
8540
C940
7880
7080
ENDCHAR
STARTCHAR uni069C
ENCODING 1692
SWIDTH 824 0
DWIDTH 12 0
BBX 11 13 0 -3
BITMAP
0100
0100
0280
0280
0020
0520
8520
87E0
86C0
8540
C940
7880
7080
ENDCHAR
STARTCHAR uni069D
ENCODING 1693
SWIDTH 1089 0
DWIDTH 15 0
BBX 15 10 0 -3
BITMAP
001C
003C
8242
8282
83FE
83FC
8600
C414
7C14
3800
ENDCHAR
STARTCHAR uni069E
ENCODING 1694
SWIDTH 1089 0
DWIDTH 15 0
BBX 15 15 0 -3
BITMAP
0008
0008
0014
0014
0000
001C
003C
8242
8282
83FE
83FC
8600
C400
7C00
3800
ENDCHAR
STARTCHAR uni069F
ENCODING 1695
SWIDTH 580 0
DWIDTH 8 0
BBX 9 11 -1 1
BITMAP
0200
2200
2500
2500
2000
2700
2F00
3880
3080
FF80
FF00
ENDCHAR
STARTCHAR uni06A0
ENCODING 1696
SWIDTH 544 0
DWIDTH 8 0
BBX 7 16 1 -3
BITMAP
20
20
50
50
00
00
78
F8
80
8C
7C
F8
80
82
FE
3C
ENDCHAR
STARTCHAR uni06A1
ENCODING 1697
SWIDTH 790 0
DWIDTH 11 0
BBX 10 8 1 1
BITMAP
0180
03C0
0240
83C0
81C0
8040
FFC0
7F80
ENDCHAR
STARTCHAR uni06A2
ENCODING 1698
SWIDTH 790 0
DWIDTH 11 0
BBX 10 11 1 -2
BITMAP
0180
03C0
0240
83C0
81C0
8040
FFC0
7F80
0000
0080
0080
ENDCHAR
STARTCHAR uni06A3
ENCODING 1699
SWIDTH 790 0
DWIDTH 11 0
BBX 10 15 1 -2
BITMAP
0100
0100
0000
0000
0180
03C0
0240
83C0
81C0
8040
FFC0
7F80
0000
0080
0080
ENDCHAR
STARTCHAR uni06A4
ENCODING 1700
SWIDTH 790 0
DWIDTH 11 0
BBX 10 13 1 1
BITMAP
0100
0100
0280
0280
0000
0180
03C0
0240
83C0
81C0
8040
FFC0
7F80
ENDCHAR
STARTCHAR uni06A5
ENCODING 1701
SWIDTH 790 0
DWIDTH 11 0
BBX 10 12 1 -3
BITMAP
0180
03C0
0240
83C0
81C0
8040
FFC0
7F80
0140
0140
0080
0080
ENDCHAR
STARTCHAR uni06A6
ENCODING 1702
SWIDTH 790 0
DWIDTH 11 0
BBX 10 12 1 1
BITMAP
0280
0000
0280
0000
0180
03C0
0240
83C0
81C0
8040
FFC0
7F80
ENDCHAR
STARTCHAR uni06A7
ENCODING 1703
SWIDTH 582 0
DWIDTH 8 0
BBX 8 13 0 -3
BITMAP
04
04
00
00
06
0F
09
0F
87
81
C3
7E
3C
ENDCHAR
STARTCHAR uni06A8
ENCODING 1704
SWIDTH 582 0
DWIDTH 8 0
BBX 8 15 0 -3
BITMAP
04
04
0A
0A
00
00
06
0F
09
0F
87
81
C3
7E
3C
ENDCHAR
STARTCHAR uni06A9
ENCODING 1705
SWIDTH 594 0
DWIDTH 8 0
BBX 8 10 0 1
BITMAP
01
07
1E
38
10
08
06
81
FF
7E
ENDCHAR
STARTCHAR uni06AA
ENCODING 1706
SWIDTH 1124 0
DWIDTH 16 0
BBX 16 9 0 1
BITMAP
0200
0600
0C00
1000
1FFE
1FFF
0001
FFFE
7FFC
ENDCHAR
STARTCHAR uni06AB
ENCODING 1707
SWIDTH 594 0
DWIDTH 8 0
BBX 8 10 0 1
BITMAP
01
07
1E
3D
12
08
06
81
FF
7E
ENDCHAR
STARTCHAR uni06AC
ENCODING 1708
SWIDTH 600 0
DWIDTH 8 0
BBX 7 10 0 1
BITMAP
12
12
02
12
22
1A
32
82
FE
7C
ENDCHAR
STARTCHAR uni06AD
ENCODING 1709
SWIDTH 600 0
DWIDTH 8 0
BBX 7 10 0 1
BITMAP
12
12
2A
3A
22
1A
32
82
FE
7C
ENDCHAR
STARTCHAR uni06AE
ENCODING 1710
SWIDTH 600 0
DWIDTH 8 0
BBX 7 14 0 -3
BITMAP
02
02
02
12
22
1A
32
82
FE
7C
28
28
10
10
ENDCHAR
STARTCHAR uni06AF
ENCODING 1711
SWIDTH 594 0
DWIDTH 8 0
BBX 8 12 0 1
BITMAP
01
06
19
27
1E
38
10
08
06
81
FF
7E
ENDCHAR
STARTCHAR uni06B0
ENCODING 1712
SWIDTH 594 0
DWIDTH 8 0
BBX 8 12 0 1
BITMAP
01
06
19
27
1E
3D
12
08
06
81
FF
7E
ENDCHAR
STARTCHAR uni06B1
ENCODING 1713
SWIDTH 594 0
DWIDTH 8 0
BBX 8 12 0 1
BITMAP
29
2E
19
27
1E
38
10
08
06
81
FF
7E
ENDCHAR
STARTCHAR uni06B2
ENCODING 1714
SWIDTH 594 0
DWIDTH 8 0
BBX 8 15 0 -2
BITMAP
01
06
19
27
1E
38
10
08
06
81
FF
7E
00
14
14
ENDCHAR
STARTCHAR uni06B3
ENCODING 1715
SWIDTH 594 0
DWIDTH 8 0
BBX 8 16 0 -3
BITMAP
01
06
19
27
1E
38
10
08
06
81
FF
7E
00
08
00
08
ENDCHAR
STARTCHAR uni06B4
ENCODING 1716
SWIDTH 594 0
DWIDTH 8 0
BBX 8 13 0 1
BITMAP
20
21
56
59
27
1E
38
10
08
06
81
FF
7E
ENDCHAR
STARTCHAR uni06B5
ENCODING 1717
SWIDTH 509 0
DWIDTH 7 0
BBX 6 14 0 -1
BITMAP
14
08
04
04
04
04
04
04
04
84
84
84
FC
78
ENDCHAR
STARTCHAR uni06B6
ENCODING 1718
SWIDTH 509 0
DWIDTH 7 0
BBX 6 15 0 -1
BITMAP
04
04
00
04
04
04
04
04
04
04
84
84
84
FC
78
ENDCHAR
STARTCHAR uni06B7
ENCODING 1719
SWIDTH 509 0
DWIDTH 7 0
BBX 7 14 0 -1
BITMAP
04
04
0A
0A
04
04
04
04
04
84
84
84
FC
78
ENDCHAR
STARTCHAR uni06B8
ENCODING 1720
SWIDTH 509 0
DWIDTH 7 0
BBX 6 14 0 -3
BITMAP
04
04
04
04
04
04
84
84
84
FC
78
50
20
20
ENDCHAR
STARTCHAR uni06B9
ENCODING 1721
SWIDTH 529 0
DWIDTH 7 0
BBX 7 11 0 -3
BITMAP
10
10
00
82
82
82
C6
7C
38
10
10
ENDCHAR
STARTCHAR uni06BA
ENCODING 1722
SWIDTH 529 0
DWIDTH 7 0
BBX 7 6 0 -3
BITMAP
82
82
82
C6
7C
38
ENDCHAR
STARTCHAR uni06BB
ENCODING 1723
SWIDTH 529 0
DWIDTH 7 0
BBX 7 10 0 -3
BITMAP
20
30
28
38
82
82
82
C6
7C
38
ENDCHAR
STARTCHAR uni06BC
ENCODING 1724
SWIDTH 529 0
DWIDTH 7 0
BBX 7 11 0 -3
BITMAP
10
10
00
82
82
82
C6
7C
38
28
10
ENDCHAR
STARTCHAR uni06BD
ENCODING 1725
SWIDTH 529 0
DWIDTH 7 0
BBX 7 10 0 -3
BITMAP
10
10
28
28
82
82
82
C6
7C
38
ENDCHAR
STARTCHAR uni06BE
ENCODING 1726
SWIDTH 450 0
DWIDTH 6 0
BBX 7 8 -1 1
BITMAP
30
38
6C
74
52
52
FE
FC
ENDCHAR
STARTCHAR uni06BF
ENCODING 1727
SWIDTH 542 0
DWIDTH 8 0
BBX 7 14 1 -3
BITMAP
08
08
00
F0
FC
1E
60
40
A8
90
80
C2
7E
3C
ENDCHAR
STARTCHAR uni06C0
ENCODING 1728
SWIDTH 310 0
DWIDTH 4 0
BBX 3 12 1 1
BITMAP
40
80
60
80
00
00
C0
C0
A0
A0
E0
C0
ENDCHAR
STARTCHAR uni06C1
ENCODING 1729
SWIDTH 531 0
DWIDTH 7 0
BBX 6 5 1 0
BITMAP
38
78
4C
CC
80
ENDCHAR
STARTCHAR uni06C2
ENCODING 1730
SWIDTH 531 0
DWIDTH 7 0
BBX 6 9 1 0
BITMAP
20
40
30
40
38
78
4C
CC
80
ENDCHAR
STARTCHAR uni06C3
ENCODING 1731
SWIDTH 531 0
DWIDTH 7 0
BBX 6 8 1 0
BITMAP
28
28
00
38
78
4C
CC
80
ENDCHAR
STARTCHAR uni06C4
ENCODING 1732
SWIDTH 423 0
DWIDTH 6 0
BBX 5 9 0 -3
BITMAP
30
78
48
78
38
48
B8
F0
E0
ENDCHAR
STARTCHAR uni06C5
ENCODING 1733
SWIDTH 423 0
DWIDTH 6 0
BBX 5 9 0 -3
BITMAP
30
70
48
78
38
78
18
F0
E0
ENDCHAR
STARTCHAR uni06C6
ENCODING 1734
SWIDTH 423 0
DWIDTH 6 0
BBX 5 13 0 -3
BITMAP
50
20
00
00
30
78
48
78
38
08
18
F0
E0
ENDCHAR
STARTCHAR uni06C7
ENCODING 1735
SWIDTH 423 0
DWIDTH 6 0
BBX 5 13 0 -3
BITMAP
30
30
20
00
30
78
48
78
38
08
18
F0
E0
ENDCHAR
STARTCHAR uni06C8
ENCODING 1736
SWIDTH 423 0
DWIDTH 6 0
BBX 5 15 0 -3
BITMAP
20
20
20
20
00
00
30
78
48
78
38
08
18
F0
E0
ENDCHAR
STARTCHAR uni06C9
ENCODING 1737
SWIDTH 423 0
DWIDTH 6 0
BBX 5 13 0 -3
BITMAP
20
50
00
00
30
78
48
78
38
08
18
F0
E0
ENDCHAR
STARTCHAR uni06CA
ENCODING 1738
SWIDTH 423 0
DWIDTH 6 0
BBX 5 13 0 -3
BITMAP
50
50
00
00
30
78
48
78
38
08
18
F0
E0
ENDCHAR
STARTCHAR uni06CB
ENCODING 1739
SWIDTH 423 0
DWIDTH 6 0
BBX 5 15 0 -3
BITMAP
20
20
50
50
00
00
30
78
48
78
38
08
18
F0
E0
ENDCHAR
STARTCHAR uni06CC
ENCODING 1740
SWIDTH 640 0
DWIDTH 9 0
BBX 8 8 0 0
BITMAP
07
0F
09
8C
86
82
FE
7C
ENDCHAR
STARTCHAR uni06CD
ENCODING 1741
SWIDTH 743 0
DWIDTH 10 0
BBX 9 8 0 0
BITMAP
0380
0780
0480
4600
C300
4100
7F00
3E00
ENDCHAR
STARTCHAR uni06CE
ENCODING 1742
SWIDTH 640 0
DWIDTH 9 0
BBX 8 9 0 0
BITMAP
50
27
0F
09
8C
86
82
FE
7C
ENDCHAR
STARTCHAR uni06CF
ENCODING 1743
SWIDTH 423 0
DWIDTH 6 0
BBX 5 13 0 -3
BITMAP
20
20
00
00
30
78
48
78
38
08
18
F0
E0
ENDCHAR
STARTCHAR uni06D0
ENCODING 1744
SWIDTH 640 0
DWIDTH 9 0
BBX 8 11 0 -3
BITMAP
07
0F
09
8C
86
82
FE
7C
10
00
10
ENDCHAR
STARTCHAR uni06D1
ENCODING 1745
SWIDTH 640 0
DWIDTH 9 0
BBX 8 12 0 -4
BITMAP
07
0F
09
8C
86
82
FE
7C
28
28
10
10
ENDCHAR
STARTCHAR uni06D2
ENCODING 1746
SWIDTH 855 0
DWIDTH 12 0
BBX 13 6 0 -2
BITMAP
0600
0900
1000
6000
FFF8
FFF8
ENDCHAR
STARTCHAR uni06D3
ENCODING 1747
SWIDTH 855 0
DWIDTH 12 0
BBX 13 11 0 -2
BITMAP
0200
0400
0300
0400
0000
0600
0900
1000
6000
FFF8
FFF8
ENDCHAR
STARTCHAR uni06D4
ENCODING 1748
SWIDTH 215 0
DWIDTH 3 0
BBX 3 2 0 1
BITMAP
E0
E0
ENDCHAR
STARTCHAR uni06D5
ENCODING 1749
SWIDTH 310 0
DWIDTH 4 0
BBX 3 6 1 1
BITMAP
C0
C0
A0
A0
E0
C0
ENDCHAR
STARTCHAR uni06D6
ENCODING 1750
SWIDTH 0 0
DWIDTH 0 0
BBX 7 6 -4 7
BITMAP
40
46
5A
7E
80
F8
ENDCHAR
STARTCHAR uni06D7
ENCODING 1751
SWIDTH 0 0
DWIDTH 0 0
BBX 7 6 -3 7
BITMAP
2C
2C
24
7C
80
FE
ENDCHAR
STARTCHAR uni06D8
ENCODING 1752
SWIDTH 0 0
DWIDTH 0 0
BBX 3 2 -2 9
BITMAP
60
E0
ENDCHAR
STARTCHAR uni06D9
ENCODING 1753
SWIDTH 0 0
DWIDTH 0 0
BBX 4 4 -2 9
BITMAP
D0
20
30
70
ENDCHAR
STARTCHAR uni06DA
ENCODING 1754
SWIDTH 0 0
DWIDTH 0 0
BBX 3 5 -1 7
BITMAP
C0
60
C0
80
60
ENDCHAR
STARTCHAR uni06DB
ENCODING 1755
SWIDTH 0 0
DWIDTH 0 0
BBX 3 3 -2 9
BITMAP
40
00
A0
ENDCHAR
STARTCHAR uni06DC
ENCODING 1756
SWIDTH 0 0
DWIDTH 0 0
BBX 5 4 -3 7
BITMAP
A8
B8
A0
C0
ENDCHAR
STARTCHAR uni06DD
ENCODING 1757
SWIDTH 1123 0
DWIDTH 16 0
BBX 16 15 0 -3
BITMAP
03C0
1C38
1FF8
2004
4002
8001
8001
8001
8001
8001
4002
2004
1FF8
1C38
03C0
ENDCHAR
STARTCHAR uni06DE
ENCODING 1758
SWIDTH 1084 0
DWIDTH 15 0
BBX 15 15 0 -2
BITMAP
0100
0280
3FF8
2828
3018
2008
638C
A28A
638C
2008
3018
2828
3FF8
0280
0100
ENDCHAR
STARTCHAR uni06DF
ENCODING 1759
SWIDTH 0 0
DWIDTH 0 0
BBX 3 3 -2 8
BITMAP
E0
A0
E0
ENDCHAR
STARTCHAR uni06E0
ENCODING 1760
SWIDTH 0 0
DWIDTH 0 0
BBX 3 3 -1 8
BITMAP
E0
A0
E0
ENDCHAR
STARTCHAR uni06E1
ENCODING 1761
SWIDTH 0 0
DWIDTH 0 0
BBX 3 3 -1 8
BITMAP
E0
60
C0
ENDCHAR
STARTCHAR uni06E2
ENCODING 1762
SWIDTH 0 0
DWIDTH 0 0
BBX 2 4 -1 7
BITMAP
C0
40
80
80
ENDCHAR
STARTCHAR uni06E3
ENCODING 1763
SWIDTH 0 0
DWIDTH 0 0
BBX 5 4 -3 -4
BITMAP
A8
B8
A0
C0
ENDCHAR
STARTCHAR uni06E4
ENCODING 1764
SWIDTH 0 0
DWIDTH 0 0
BBX 4 2 -1 10
BITMAP
50
A0
ENDCHAR
STARTCHAR uni06E5
ENCODING 1765
SWIDTH 175 0
DWIDTH 2 0
BBX 2 4 0 7
BITMAP
C0
C0
40
80
ENDCHAR
STARTCHAR uni06E6
ENCODING 1766
SWIDTH 349 0
DWIDTH 5 0
BBX 5 3 0 7
BITMAP
20
40
F8
ENDCHAR
STARTCHAR uni06E7
ENCODING 1767
SWIDTH 0 0
DWIDTH 0 0
BBX 5 3 -3 7
BITMAP
20
40
F8
ENDCHAR
STARTCHAR uni06E8
ENCODING 1768
SWIDTH 0 0
DWIDTH 0 0
BBX 3 5 -2 7
BITMAP
40
00
A0
A0
C0
ENDCHAR
STARTCHAR uni06E9
ENCODING 1769
SWIDTH 600 0
DWIDTH 8 0
BBX 11 12 -2 0
BITMAP
0400
0A00
3580
4A40
DB60
2A80
2A80
2A80
2A80
2E80
2080
FFE0
ENDCHAR
STARTCHAR uni06EA
ENCODING 1770
SWIDTH 0 0
DWIDTH 0 0
BBX 2 2 -1 -3
BITMAP
C0
C0
ENDCHAR
STARTCHAR uni06EB
ENCODING 1771
SWIDTH 0 0
DWIDTH 0 0
BBX 2 2 -1 9
BITMAP
C0
C0
ENDCHAR
STARTCHAR uni06EC
ENCODING 1772
SWIDTH 0 0
DWIDTH 0 0
BBX 2 2 -1 8
BITMAP
C0
C0
ENDCHAR
STARTCHAR uni06ED
ENCODING 1773
SWIDTH 0 0
DWIDTH 0 0
BBX 2 4 -1 -4
BITMAP
C0
40
80
80
ENDCHAR
STARTCHAR uni06EE
ENCODING 1774
SWIDTH 339 0
DWIDTH 5 0
BBX 5 10 0 1
BITMAP
40
A0
00
40
60
30
08
08
F8
F0
ENDCHAR
STARTCHAR uni06EF
ENCODING 1775
SWIDTH 484 0
DWIDTH 7 0
BBX 5 10 1 -3
BITMAP
10
28
00
18
08
08
08
18
F0
E0
ENDCHAR
STARTCHAR uni06F0
ENCODING 1776
SWIDTH 542 0
DWIDTH 8 0
BBX 5 4 2 3
BITMAP
20
78
F0
20
ENDCHAR
STARTCHAR uni06F1
ENCODING 1777
SWIDTH 542 0
DWIDTH 8 0
BBX 3 9 2 0
BITMAP
80
40
40
20
20
20
20
20
20
ENDCHAR
STARTCHAR uni06F2
ENCODING 1778
SWIDTH 542 0
DWIDTH 8 0
BBX 6 9 1 0
BITMAP
C4
7C
3C
20
10
10
10
10
10
ENDCHAR
STARTCHAR uni06F3
ENCODING 1779
SWIDTH 542 0
DWIDTH 8 0
BBX 8 9 0 0
BITMAP
89
7F
36
20
10
10
10
10
10
ENDCHAR
STARTCHAR uni06F4
ENCODING 1780
SWIDTH 542 0
DWIDTH 8 0
BBX 8 10 0 0
BITMAP
0E
D0
7F
3E
20
10
10
10
10
10
ENDCHAR
STARTCHAR uni06F5
ENCODING 1781
SWIDTH 542 0
DWIDTH 8 0
BBX 6 9 1 0
BITMAP
30
78
48
CC
84
84
A4
FC
78
ENDCHAR
STARTCHAR uni06F6
ENCODING 1782
SWIDTH 542 0
DWIDTH 8 0
BBX 5 9 2 0
BITMAP
38
78
40
48
30
20
40
80
80
ENDCHAR
STARTCHAR uni06F7
ENCODING 1783
SWIDTH 542 0
DWIDTH 8 0
BBX 7 9 1 0
BITMAP
82
82
44
44
44
28
28
28
10
ENDCHAR
STARTCHAR uni06F8
ENCODING 1784
SWIDTH 542 0
DWIDTH 8 0
BBX 7 9 1 0
BITMAP
10
28
28
28
44
44
44
82
82
ENDCHAR
STARTCHAR uni06F9
ENCODING 1785
SWIDTH 542 0
DWIDTH 8 0
BBX 6 9 1 0
BITMAP
70
F8
88
88
F8
78
08
04
04
ENDCHAR
STARTCHAR uni06FA
ENCODING 1786
SWIDTH 824 0
DWIDTH 12 0
BBX 11 13 0 -3
BITMAP
0100
0100
0280
0280
0020
0520
8520
87E0
86C0
8400
C900
7900
7000
ENDCHAR
STARTCHAR uni06FB
ENCODING 1787
SWIDTH 1089 0
DWIDTH 15 0
BBX 15 13 0 -3
BITMAP
0010
0010
0000
001C
003C
8242
8282
83FE
83FC
8600
C408
7C08
3800
ENDCHAR
STARTCHAR uni06FC
ENCODING 1788
SWIDTH 544 0
DWIDTH 8 0
BBX 7 14 1 -3
BITMAP
10
10
00
00
78
F8
80
8C
7C
F8
88
82
FE
3C
ENDCHAR
STARTCHAR uni06FD
ENCODING 1789
SWIDTH 412 0
DWIDTH 6 0
BBX 4 9 1 -3
BITMAP
60
E0
80
70
F0
C0
00
50
50
ENDCHAR
STARTCHAR uni06FE
ENCODING 1790
SWIDTH 339 0
DWIDTH 5 0
BBX 5 8 0 -3
BITMAP
E0
90
78
F8
80
A8
A8
80
ENDCHAR
STARTCHAR uni06FF
ENCODING 1791
SWIDTH 450 0
DWIDTH 6 0
BBX 7 11 -1 1
BITMAP
08
14
00
30
38
6C
74
52
52
FE
FC
ENDCHAR
STARTCHAR uni0750
ENCODING 1872
SWIDTH 714 0
DWIDTH 10 0
BBX 8 8 1 -2
BITMAP
81
81
81
FF
7E
00
2A
2A
ENDCHAR
STARTCHAR uni0751
ENCODING 1873
SWIDTH 714 0
DWIDTH 10 0
BBX 8 12 1 -2
BITMAP
08
08
14
14
81
81
81
FF
7E
00
08
08
ENDCHAR
STARTCHAR uni0752
ENCODING 1874
SWIDTH 714 0
DWIDTH 10 0
BBX 8 9 1 -3
BITMAP
81
81
81
FF
7E
08
08
14
14
ENDCHAR
STARTCHAR uni0753
ENCODING 1875
SWIDTH 714 0
DWIDTH 10 0
BBX 8 11 1 -3
BITMAP
14
14
81
81
81
FF
7E
08
08
14
14
ENDCHAR
STARTCHAR uni0754
ENCODING 1876
SWIDTH 714 0
DWIDTH 10 0
BBX 8 10 1 -2
BITMAP
08
08
81
81
81
FF
7E
00
14
14
ENDCHAR
STARTCHAR uni0755
ENCODING 1877
SWIDTH 714 0
DWIDTH 10 0
BBX 8 8 1 -2
BITMAP
81
81
81
FF
7E
00
08
14
ENDCHAR
STARTCHAR uni0756
ENCODING 1878
SWIDTH 714 0
DWIDTH 10 0
BBX 8 6 1 1
BITMAP
14
89
81
81
FF
7E
ENDCHAR
STARTCHAR uni0757
ENCODING 1879
SWIDTH 542 0
DWIDTH 8 0
BBX 7 14 1 -3
BITMAP
28
28
00
F0
FC
1E
60
40
80
80
80
C2
7E
3C
ENDCHAR
STARTCHAR uni0758
ENCODING 1880
SWIDTH 542 0
DWIDTH 8 0
BBX 7 11 1 -3
BITMAP
F0
FC
1E
60
48
88
94
94
C2
7E
3C
ENDCHAR
STARTCHAR uni0759
ENCODING 1881
SWIDTH 339 0
DWIDTH 5 0
BBX 5 16 0 -3
BITMAP
40
60
50
70
00
40
60
30
08
08
F8
F0
00
20
00
20
ENDCHAR
STARTCHAR uni075A
ENCODING 1882
SWIDTH 339 0
DWIDTH 5 0
BBX 5 10 0 -2
BITMAP
40
60
30
08
08
F8
F0
00
20
50
ENDCHAR
STARTCHAR uni075B
ENCODING 1883
SWIDTH 484 0
DWIDTH 7 0
BBX 6 7 1 -3
BITMAP
18
08
08
3C
18
F0
E0
ENDCHAR
STARTCHAR uni075C
ENCODING 1884
SWIDTH 824 0
DWIDTH 12 0
BBX 11 12 0 -3
BITMAP
0280
0000
0280
0020
0520
8520
87E0
86C0
8400
C800
7800
7000
ENDCHAR
STARTCHAR uni075D
ENCODING 1885
SWIDTH 544 0
DWIDTH 8 0
BBX 7 13 1 -3
BITMAP
50
50
00
78
F8
80
8C
7C
F8
80
82
FE
3C
ENDCHAR
STARTCHAR uni075E
ENCODING 1886
SWIDTH 544 0
DWIDTH 8 0
BBX 7 15 1 -3
BITMAP
50
50
20
20
00
78
F8
80
8C
7C
F8
80
82
FE
3C
ENDCHAR
STARTCHAR uni075F
ENCODING 1887
SWIDTH 544 0
DWIDTH 8 0
BBX 7 14 1 -3
BITMAP
10
00
10
00
78
F8
80
8C
7C
F8
80
82
FE
3C
ENDCHAR
STARTCHAR uni0760
ENCODING 1888
SWIDTH 790 0
DWIDTH 11 0
BBX 10 11 1 -2
BITMAP
0180
03C0
0240
83C0
81C0
8040
FFC0
7F80
0000
0140
0140
ENDCHAR
STARTCHAR uni0761
ENCODING 1889
SWIDTH 790 0
DWIDTH 11 0
BBX 10 12 1 -3
BITMAP
0180
03C0
0240
83C0
81C0
8040
FFC0
7F80
0080
0080
0140
0140
ENDCHAR
STARTCHAR uni0762
ENCODING 1890
SWIDTH 594 0
DWIDTH 8 0
BBX 8 11 0 1
BITMAP
08
09
07
1E
38
10
08
06
81
FF
7E
ENDCHAR
STARTCHAR uni0763
ENCODING 1891
SWIDTH 594 0
DWIDTH 8 0
BBX 8 13 0 1
BITMAP
10
10
28
29
07
1E
38
10
08
06
81
FF
7E
ENDCHAR
STARTCHAR uni0764
ENCODING 1892
SWIDTH 594 0
DWIDTH 8 0
BBX 8 14 0 -3
BITMAP
01
07
1E
38
10
08
06
81
FF
7E
08
08
14
14
ENDCHAR
STARTCHAR uni0765
ENCODING 1893
SWIDTH 339 0
DWIDTH 5 0
BBX 5 11 0 -3
BITMAP
20
20
00
E0
90
78
F8
80
80
80
80
ENDCHAR
STARTCHAR uni0766
ENCODING 1894
SWIDTH 339 0
DWIDTH 5 0
BBX 5 8 0 -3
BITMAP
E0
90
78
F8
80
A0
A0
80
ENDCHAR
STARTCHAR uni0767
ENCODING 1895
SWIDTH 529 0
DWIDTH 7 0
BBX 7 11 0 -3
BITMAP
10
10
00
82
82
82
C6
7C
38
28
28
ENDCHAR
STARTCHAR uni0768
ENCODING 1896
SWIDTH 529 0
DWIDTH 7 0
BBX 7 12 0 -3
BITMAP
10
1C
14
3C
00
10
92
82
82
C6
7C
38
ENDCHAR
STARTCHAR uni0769
ENCODING 1897
SWIDTH 529 0
DWIDTH 7 0
BBX 7 12 0 -3
BITMAP
28
10
00
10
10
00
82
82
82
C6
7C
38
ENDCHAR
STARTCHAR uni076A
ENCODING 1898
SWIDTH 509 0
DWIDTH 7 0
BBX 7 12 0 -1
BITMAP
04
04
04
1E
04
04
04
84
84
84
FC
78
ENDCHAR
STARTCHAR uni076B
ENCODING 1899
SWIDTH 484 0
DWIDTH 7 0
BBX 5 12 1 -3
BITMAP
10
00
10
00
00
18
08
08
08
18
F0
E0
ENDCHAR
STARTCHAR uni076C
ENCODING 1900
SWIDTH 484 0
DWIDTH 7 0
BBX 5 13 1 -3
BITMAP
10
20
18
30
00
00
18
08
08
08
18
F0
E0
ENDCHAR
STARTCHAR uni076D
ENCODING 1901
SWIDTH 824 0
DWIDTH 12 0
BBX 11 12 0 -3
BITMAP
0100
0000
0100
0020
0520
8520
87E0
86C0
8400
C800
7800
7000
ENDCHAR
STARTCHAR uni076E
ENCODING 1902
SWIDTH 542 0
DWIDTH 8 0
BBX 7 11 1 -3
BITMAP
F0
FC
1E
60
40
90
9C
BC
C2
7E
3C
ENDCHAR
STARTCHAR uni076F
ENCODING 1903
SWIDTH 542 0
DWIDTH 8 0
BBX 7 11 1 -3
BITMAP
F0
FC
1E
60
50
9C
BC
94
D6
7E
3C
ENDCHAR
STARTCHAR uni0770
ENCODING 1904
SWIDTH 824 0
DWIDTH 12 0
BBX 11 12 0 -3
BITMAP
0100
01C0
03C0
0160
0520
8520
87E0
86C0
8400
C800
7800
7000
ENDCHAR
STARTCHAR uni0771
ENCODING 1905
SWIDTH 484 0
DWIDTH 7 0
BBX 6 12 1 -3
BITMAP
10
1C
3C
14
00
18
08
08
08
18
F0
E0
ENDCHAR
STARTCHAR uni0772
ENCODING 1906
SWIDTH 542 0
DWIDTH 8 0
BBX 7 13 1 -3
BITMAP
20
38
F8
FC
1E
60
40
80
80
80
C2
7E
3C
ENDCHAR
STARTCHAR uni0773
ENCODING 1907
SWIDTH 233 0
DWIDTH 3 0
BBX 3 11 -1 1
BITMAP
E0
60
20
20
20
20
20
20
20
20
20
ENDCHAR
STARTCHAR uni0774
ENCODING 1908
SWIDTH 233 0
DWIDTH 3 0
BBX 4 10 -1 1
BITMAP
F0
60
20
20
20
20
20
20
20
20
ENDCHAR
STARTCHAR uni0775
ENCODING 1909
SWIDTH 640 0
DWIDTH 9 0
BBX 8 8 0 0
BITMAP
3F
1F
09
8C
86
82
FE
7C
ENDCHAR
STARTCHAR uni0776
ENCODING 1910
SWIDTH 640 0
DWIDTH 9 0
BBX 8 8 0 0
BITMAP
7F
2F
09
8C
86
82
FE
7C
ENDCHAR
ENDFONT
